<svg xmlns="http://www.w3.org/2000/svg" xmlns:xlink="http://www.w3.org/1999/xlink" version="1.1" baseProfile="basic" x="0px" y="0px" viewBox="-255 347 100 125" xml:space="preserve"><path d="M-225.7,369.6l5.5,1.1l0.1-0.3l1.7,0.6l13.1,2.4h0.8l13.1-2.4l1.7-0.6l0.1,0.3l5.5-1.1l-7.4-4.3v0.1l-1.7,0.6l-0.6-1.7l0,0  h-22.4l0,0l-0.6,1.7l-1.7-0.6v-0.1L-225.7,369.6z M-191,367.1l0.6,1.7l-1.7,0.6l-0.6-1.7L-191,367.1z M-217.3,367.7l-0.6,1.7  l-1.7-0.6l0.6-1.7L-217.3,367.7z"/><path d="M-218.3,428.7l-1.8-5.3l-0.3,0.1l-0.4-1.8l-4.5-12.6l-0.4-0.7l-8.7-10.1l-1.3-1.1l0.2-0.2l-3.7-4.3v8.6l0.1-0.1l1.3,1.1  l-1.1,1.3l0,0l11.2,19.3l0,0l1.8-0.4l0.4,1.8h-0.1L-218.3,428.7z M-222.5,422l0.4,1.8l-1.8,0.4l-0.4-1.8L-222.5,422z M-236.5,401  l-1.3-1.1l1.1-1.3l1.3,1.1L-236.5,401z"/><path d="M-174.5,397l0.2,0.2l-1.3,1.1l-8.7,10.1l-0.4,0.7l-4.5,12.6l-0.4,1.8l-0.3-0.1l-1.8,5.3l7.4-4.3h-0.1l0.4-1.8l1.8,0.4l0,0  l11.2-19.3l0,0l-1.1-1.3l1.3-1.1l0.1,0.1v-8.6L-174.5,397z M-186.1,424l-1.8-0.4l0.4-1.8l1.8,0.4L-186.1,424z M-173.4,401l-1.1-1.3  l1.3-1.1l1.1,1.3L-173.4,401z"/><path d="M-182.2,371l-21.9,4v20.8l0.5,0.9l18,10.4l14.4-16.9L-182.2,371z M-186.9,378.6l-1.7,0.6l-0.6-1.7l1.7-0.6L-186.9,378.6z   M-188.7,373.6l0.6,1.7l-1.7,0.6l-0.6-1.7L-188.7,373.6z M-201.9,396.2l-0.9-1.5l1.5-0.9l0.9,1.5L-201.9,396.2z M-198.8,394.5  l-0.9-1.5l1.5-0.9l0.9,1.5L-198.8,394.5z M-195.8,392.7l-0.9-1.5l1.5-0.9l0.9,1.5L-195.8,392.7z M-192.8,391l-0.9-1.5l1.5-0.9  l0.9,1.5L-192.8,391z M-189.7,389.2l-0.9-1.5l1.5-0.9l0.9,1.5L-189.7,389.2z M-186.3,380.3l0.6,1.7l-1.7,0.6l-0.6-1.7L-186.3,380.3z   M-185.5,386.8l-1.2,0.7l-0.9-1.5l1.2-0.7l-0.4-1.1l1.7-0.6l0.4,1.3l0.4,0.7l0.9,1.1l-1.3,1.1L-185.5,386.8z M-183.6,389l1.3-1.1  l1.1,1.3l-1.3,1.1L-183.6,389z M-181.3,391.7l1.3-1.1l1.1,1.3l-1.3,1.1L-181.3,391.7z M-179.1,394.4l1.3-1.1l1.1,1.3l-1.3,1.1  L-179.1,394.4z"/><path d="M-186.4,408.7l-18-10.4h-1.1l-18,10.4l7.4,20.9h22.3L-186.4,408.7z M-194.3,420.7l1.8,0.4l-0.4,1.8l-1.8-0.4L-194.3,420.7z   M-205.8,400.1h1.8v1.8h-1.8V400.1z M-205.8,403.6h1.8v1.8h-1.8V403.6z M-205.8,407.1h1.8v1.8h-1.8V407.1z M-205.8,410.6h1.8v1.8  h-1.8V410.6z M-205.8,414.1h1.8v1.8h-1.8V414.1z M-217,422.8l-0.4-1.8l1.8-0.4l0.4,1.8L-217,422.8z M-213.5,422.1l-0.4-1.8l1.8-0.4  l0.4,1.8L-213.5,422.1z M-210.1,421.5l-0.4-1.8l1.8-0.4l0.4,1.8L-210.1,421.5z M-203.2,420.9l-1.3-0.3h-0.8l-1.3,0.3l-0.4-1.8  l1.1-0.2v-1.4h1.8v1.4l1.1,0.2L-203.2,420.9z M-199.8,421.5l-1.8-0.4l0.4-1.8l1.8,0.4L-199.8,421.5z M-196.4,422.1l-1.8-0.4l0.4-1.8  l1.8,0.4L-196.4,422.1z"/><path d="M-224.4,407.2l18-10.4l0.5-0.9v-20.8l-21.9-4l-11.1,19.3L-224.4,407.2z M-208.7,393.8l1.5,0.9l-0.9,1.5l-1.5-0.9  L-208.7,393.8z M-211.7,392.1l1.5,0.9l-0.9,1.5l-1.5-0.9L-211.7,392.1z M-214.8,390.3l1.5,0.9l-0.9,1.5l-1.5-0.9L-214.8,390.3z   M-217.8,388.6l1.5,0.9l-0.9,1.5l-1.5-0.9L-217.8,388.6z M-220.2,389.2l-1.5-0.9l0.9-1.5l1.5,0.9L-220.2,389.2z M-221.2,373.6  l1.7,0.6l-0.6,1.7l-1.7-0.6L-221.2,373.6z M-222.5,377l1.7,0.6l-0.6,1.7l-1.7-0.6L-222.5,377z M-223.6,380.3l1.7,0.6l-0.6,1.7  l-1.7-0.6L-223.6,380.3z M-224.7,383.5l1.7,0.6l-0.4,1.1l1.2,0.7l-0.9,1.5l-1.2-0.7l-0.8,0.9l-1.3-1.1l0.9-1.1l0.4-0.7L-224.7,383.5  z M-227.6,387.9l1.3,1.1l-1.1,1.3l-1.3-1.1L-227.6,387.9z M-229.9,390.5l1.3,1.1l-1.1,1.3l-1.3-1.1L-229.9,390.5z M-230.9,394.4  l-1.1,1.3l-1.3-1.1l1.1-1.3L-230.9,394.4z"/><path d="M-179.9,367.9l-12.3-7.1h-25.5l-12.3,7.1l-12.8,22.1v14.2l12.8,22.1l12.3,7.1h25.5l12.3-7.1l12.8-22.1v-14.2L-179.9,367.9z   M-169.2,403.6l-12.3,21.2l-11.4,6.6h-24.4l-11.4-6.6l-12.3-21.2v-13.1l12.3-21.2l11.4-6.6h24.5l11.4,6.6l12.3,21.2L-169.2,403.6  L-169.2,403.6z"/><text x="-255" y="462" fill="#000000" font-size="5px" font-weight="bold" font-family="'Helvetica Neue', Helvetica, Arial-Unicode, Arial, Sans-serif">Created by DaanDirk</text><text x="-255" y="467" fill="#000000" font-size="5px" font-weight="bold" font-family="'Helvetica Neue', Helvetica, Arial-Unicode, Arial, Sans-serif">from the Noun Project</text></svg>