<svg xmlns="http://www.w3.org/2000/svg" xmlns:xlink="http://www.w3.org/1999/xlink" version="1.1" baseProfile="basic" x="0px" y="0px" viewBox="-255 347 100 125" xml:space="preserve"><path d="M-184.3,424.4l0.4-1.8l1.8,0.4l0,0l11.2-19.3l0,0l-1.1-1.3l1.3-1.1l0.1,0.1v-10.5l-11.6-20.1l-9.1-5.3v0.1l-1.7,0.6  l-0.6-1.7l0,0h-22.4l0,0l-0.6,1.7l-1.7-0.6v-0.1l-9.1,5.3l-11.6,20.1v10.5l0.1-0.1l1.3,1.1l-1.1,1.3l0,0l11.2,19.3l0,0l1.8-0.4  l0.4,1.8h-0.1l9.1,5.3h23.3L-184.3,424.4L-184.3,424.4z M-172.1,399.9l-1.3,1.1l-1.1-1.3l1.3-1.1L-172.1,399.9z M-174.3,397.2  l-1.3,1.1l-1.1-1.3l1.3-1.1L-174.3,397.2z M-176.6,394.5l-1.3,1.1l-1.1-1.3l1.3-1.1L-176.6,394.5z M-178.9,391.9l-1.3,1.1l-1.1-1.3  l1.3-1.1L-178.9,391.9z M-182.3,387.9l1.1,1.3l-1.3,1.1l-1.1-1.3L-182.3,387.9z M-186.9,378.6l-1.7,0.6l-0.6-1.7l1.7-0.6  L-186.9,378.6z M-188.1,375.3l-1.7,0.6l-0.6-1.7l1.7-0.6L-188.1,375.3z M-189.2,372l-1.7,0.6l-0.6-1.7l1.7-0.6L-189.2,372z   M-191,367.1l0.6,1.7l-1.7,0.6l-0.6-1.7L-191,367.1z M-205.7,395.6l0.7,0.4l0.7-0.4l0.9,1.5l-0.7,0.4v0.8h-1.8v-0.8l-0.7-0.4  L-205.7,395.6z M-205.8,412.3v-1.8h1.8v1.8H-205.8z M-204.1,414.1v1.8h-1.8v-1.8H-204.1z M-205.8,408.8v-1.8h1.8v1.8H-205.8z   M-205.8,405.3v-1.8h1.8v1.8H-205.8z M-205.8,401.8v-1.8h1.8v1.8H-205.8z M-219,367.1l1.7,0.6l-0.6,1.7l-1.7-0.6L-219,367.1z   M-220.1,370.4l1.7,0.6l-0.6,1.7l-1.7-0.6L-220.1,370.4z M-221.2,373.6l1.7,0.6l-0.6,1.7l-1.7-0.6L-221.2,373.6z M-222.5,377  l1.7,0.6l-0.6,1.7l-1.7-0.6L-222.5,377z M-236.5,401l-1.3-1.1l1.1-1.3l1.3,1.1L-236.5,401z M-234.3,398.3l-1.3-1.1l1.1-1.3l1.3,1.1  L-234.3,398.3z M-232,395.7l-1.3-1.1l1.1-1.3l1.3,1.1L-232,395.7z M-229.7,393.1l-1.3-1.1l1.1-1.3l1.3,1.1L-229.7,393.1z   M-227.4,390.3l-1.3-1.1l1.1-1.3l1.3,1.1L-227.4,390.3z M-226.5,386.6l0.9-1l0.4-0.7l0.4-1.3l1.7,0.6l-0.4,1.1l1.2,0.7l-0.9,1.5  l-1.2-0.7l-0.8,0.9L-226.5,386.6z M-223.9,424l-0.4-1.8l1.8-0.4l0.4,1.8L-223.9,424z M-222.5,382.5l-1.7-0.6l0.6-1.7l1.7,0.6  L-222.5,382.5z M-220.8,386.8l1.5,0.9l-0.9,1.5l-1.5-0.9L-220.8,386.8z M-220.4,423.4l-0.4-1.8l1.8-0.4l0.4,1.8L-220.4,423.4z   M-217.8,388.6l1.5,0.9l-0.9,1.5l-1.5-0.9L-217.8,388.6z M-217,422.8l-0.4-1.8l1.8-0.4l0.4,1.8L-217,422.8z M-215.6,391.8l0.9-1.5  l1.5,0.9l-0.9,1.5L-215.6,391.8z M-213.5,422.1l-0.4-1.8l1.8-0.4l0.4,1.8L-213.5,422.1z M-212.6,393.6l0.9-1.5l1.5,0.9l-0.9,1.5  L-212.6,393.6z M-210.1,421.5l-0.4-1.8l1.8-0.4l0.4,1.8L-210.1,421.5z M-208,396.2l-1.5-0.9l0.9-1.5l1.5,0.9L-208,396.2z   M-203.2,420.9l-1.3-0.3h-0.8l-1.3,0.3l-0.4-1.8l1.1-0.2v-1.4h1.8v1.4l1.1,0.2L-203.2,420.9z M-202.8,394.7l1.5-0.9l0.9,1.5  l-1.5,0.9L-202.8,394.7z M-199.8,421.5l-1.8-0.4l0.4-1.8l1.8,0.4L-199.8,421.5z M-199.7,393l1.5-0.9l0.9,1.5l-1.5,0.9L-199.7,393z   M-196.4,422.1l-1.8-0.4l0.4-1.8l1.8,0.4L-196.4,422.1z M-196.6,391.2l1.5-0.9l0.9,1.5l-1.5,0.9L-196.6,391.2z M-192.9,422.8  l-1.8-0.4l0.4-1.8l1.8,0.4L-192.9,422.8z M-192.8,391l-0.9-1.5l1.5-0.9l0.9,1.5L-192.8,391z M-189.5,423.4l-1.8-0.4l0.4-1.8l1.8,0.4  L-189.5,423.4z M-189.7,389.2l-0.9-1.5l1.5-0.9l0.9,1.5L-189.7,389.2z M-186.3,380.3l0.6,1.7l-1.7,0.6l-0.6-1.7L-186.3,380.3z   M-186.1,424l-1.8-0.4l0.4-1.8l1.8,0.4L-186.1,424z M-186.7,387.5l-0.9-1.5l1.2-0.7l-0.4-1.1l1.7-0.6l0.4,1.3l0.4,0.7l0.9,1  l-1.3,1.1l-0.8-0.9L-186.7,387.5z"/><path d="M-179.9,367.9l-12.3-7.1h-25.5l-12.3,7.1l-12.8,22.1v14.2l12.8,22.1l12.3,7.1h25.5l12.3-7.1l12.8-22.1v-14.2L-179.9,367.9z   M-169.2,403.6l-12.3,21.2l-11.4,6.6h-24.4l-11.4-6.6l-12.3-21.2v-13.1l12.3-21.2l11.4-6.6h24.5l11.4,6.6l12.3,21.2L-169.2,403.6  L-169.2,403.6z"/><text x="-255" y="462" fill="#000000" font-size="5px" font-weight="bold" font-family="'Helvetica Neue', Helvetica, Arial-Unicode, Arial, Sans-serif">Created by DaanDirk</text><text x="-255" y="467" fill="#000000" font-size="5px" font-weight="bold" font-family="'Helvetica Neue', Helvetica, Arial-Unicode, Arial, Sans-serif">from the Noun Project</text></svg>