<svg xmlns="http://www.w3.org/2000/svg" viewBox="0 0 100 125" x="0px" y="0px"><title>psp </title><path d="M29.25,22.5l5.5,1.1.1-.3,1.7.6,13.1,2.4h.8l13.1-2.4,1.7-.6.1.3,5.5-1.1-7.4-4.3v.1l-1.7.6-.6-1.7H38.75l-.6,1.7-1.7-.6v-.1ZM63.95,20l.6,1.7-1.7.6-.6-1.7Zm-26.3.6-.6,1.7-1.7-.6.6-1.7Zm-1,61-1.8-5.3-.3.1-.4-1.8L29.65,62l-.4-.7-8.7-10.1-1.3-1.1.2-.2-3.7-4.3v8.6l.1-.1,1.3,1.1-1.1,1.3h0l11.2,19.3h0l1.8-.4.4,1.8h-.1Zm-4.2-6.7.4,1.8-1.8.4-.4-1.8Zm-14-21-1.3-1.1,1.1-1.3,1.3,1.1Zm62-4,.2.2-1.3,1.1-8.7,10.1-.4.7-4.5,12.6-.4,1.8-.3-.1-1.8,5.3,7.4-4.3h-.1l.4-1.8,1.8.4h0l11.2-19.3h0l-1.1-1.3,1.3-1.1.1.1V45.7Zm-11.6,27-1.8-.4.4-1.8,1.8.4Zm12.7-23-1.1-1.3,1.3-1.1,1.1,1.3Zm-8.8-30-21.9,4V48.7l.5.9,18,10.4,14.4-16.9Zm-4.7,7.6-1.7.6-.6-1.7,1.7-.6Zm-1.8-5,.6,1.7-1.7.6-.6-1.7ZM53.05,49.1l-.9-1.5,1.5-.9.9,1.5Zm3.1-1.7-.9-1.5,1.5-.9.9,1.5Zm3-1.8-.9-1.5,1.5-.9.9,1.5Zm3-1.7-.9-1.5,1.5-.9.9,1.5Zm3.1-1.8-.9-1.5,1.5-.9.9,1.5Zm3.4-8.9.6,1.7-1.7.6-.6-1.7Zm.8,6.5-1.2.7-.9-1.5,1.2-.7-.4-1.1,1.7-.6.4,1.3.4.7.9,1.1-1.3,1.1Zm1.9,2.2,1.3-1.1,1.1,1.3-1.3,1.1Zm2.3,2.7,1.3-1.1,1.1,1.3-1.3,1.1Zm2.2,2.7,1.3-1.1,1.1,1.3-1.3,1.1Zm-7.3,14.3-18-10.4h-1.1l-18,10.4,7.4,20.9h22.3Zm-7.9,12,1.8.4-.4,1.8-1.8-.4ZM49.15,53h1.8v1.8h-1.8Zm0,3.5h1.8v1.8h-1.8Zm0,3.5h1.8v1.8h-1.8Zm0,3.5h1.8v1.8h-1.8Zm0,3.5h1.8v1.8h-1.8Zm-11.2,8.7-.4-1.8,1.8-.4.4,1.8Zm3.5-.7-.4-1.8,1.8-.4.4,1.8Zm3.4-.6-.4-1.8,1.8-.4.4,1.8Zm6.9-.6-1.3-.3h-.8l-1.3.3-.4-1.8,1.1-.2V70.4h1.8v1.4l1.1.2Zm3.4.6-1.8-.4.4-1.8,1.8.4Zm3.4.6-1.8-.4.4-1.8,1.8.4Zm-28-14.9,18-10.4.5-.9V28l-21.9-4L16.05,43.3Zm15.7-13.4,1.5.9-.9,1.5-1.5-.9Zm-3-1.7,1.5.9-.9,1.5-1.5-.9Zm-3.1-1.8,1.5.9-.9,1.5-1.5-.9Zm-3-1.7,1.5.9-.9,1.5-1.5-.9Zm-2.4.6-1.5-.9.9-1.5,1.5.9Zm-1-15.6,1.7.6-.6,1.7-1.7-.6Zm-1.3,3.4,1.7.6-.6,1.7-1.7-.6Zm-1.1,3.3,1.7.6-.6,1.7-1.7-.6Zm-1.1,3.2,1.7.6-.4,1.1,1.2.7-.9,1.5-1.2-.7-.8.9-1.3-1.1.9-1.1.4-.7Zm-2.9,4.4,1.3,1.1-1.1,1.3-1.3-1.1Zm-2.3,2.6,1.3,1.1-1.1,1.3-1.3-1.1Zm-1,3.9-1.1,1.3-1.3-1.1,1.1-1.3Z"/><text x="0" y="115" fill="#000000" font-size="5px" font-weight="bold" font-family="'Helvetica Neue', Helvetica, Arial-Unicode, Arial, Sans-serif">Created by DaanDirk</text><text x="0" y="120" fill="#000000" font-size="5px" font-weight="bold" font-family="'Helvetica Neue', Helvetica, Arial-Unicode, Arial, Sans-serif">from the Noun Project</text></svg>