<svg xmlns="http://www.w3.org/2000/svg" xmlns:xlink="http://www.w3.org/1999/xlink" version="1.1" baseProfile="basic" x="0px" y="0px" viewBox="-275 347 100 125" xml:space="preserve"><rect x="-230.4" y="419.6" transform="matrix(0.1822 0.9833 -0.9833 0.1822 225.7746 569.5832)" width="1.8" height="1.8"/><rect x="-233.8" y="420.2" transform="matrix(0.1822 0.9833 -0.9833 0.1822 223.5941 573.4014)" width="1.8" height="1.8"/><rect x="-237.2" y="420.9" transform="matrix(0.1822 0.9833 -0.9833 0.1822 221.4565 577.3719)" width="1.8" height="1.8"/><rect x="-244.2" y="422.3" transform="matrix(-0.1822 -0.9833 0.9833 -0.1822 -703.7433 260.9663)" width="1.8" height="1.8"/><rect x="-221.5" y="419.7" transform="matrix(0.9833 0.1822 -0.1822 0.9833 72.9351 47.2325)" width="1.8" height="1.8"/><rect x="-218" y="420.3" transform="matrix(0.9833 0.1822 -0.1822 0.9833 73.0994 46.608)" width="1.8" height="1.8"/><rect x="-214.6" y="420.9" transform="matrix(-0.1822 0.9833 -0.9833 -0.1822 162.0646 708.7083)" width="1.8" height="1.8"/><rect x="-207.7" y="422.2" transform="matrix(0.9833 0.1822 -0.1822 0.9833 73.6188 44.7588)" width="1.8" height="1.8"/><rect x="-222.5" y="394.2" transform="matrix(0.5 0.866 -0.866 0.5 231.3352 389.4426)" width="1.7" height="1.7"/><rect x="-219.5" y="392.4" transform="matrix(0.5 0.866 -0.866 0.5 231.3038 385.9427)" width="1.7" height="1.7"/><rect x="-216.4" y="390.7" transform="matrix(0.5 0.866 -0.866 0.5 231.36 382.4427)" width="1.7" height="1.7"/><rect x="-213.4" y="388.9" transform="matrix(0.5 0.866 -0.866 0.5 231.3282 378.9436)" width="1.7" height="1.7"/><rect x="-210.4" y="387.2" transform="matrix(0.5 0.866 -0.866 0.5 231.2968 375.4438)" width="1.7" height="1.7"/><rect x="-241.4" y="387.2" transform="matrix(0.866 0.5 -0.5 0.866 161.8141 172.2491)" width="1.7" height="1.7"/><rect x="-238.5" y="389" transform="matrix(-0.866 -0.5 0.5 -0.866 -638.2799 608.668)" width="1.7" height="1.7"/><rect x="-235.4" y="390.7" transform="matrix(-0.866 -0.5 0.5 -0.866 -633.4559 613.4919)" width="1.7" height="1.7"/><rect x="-229.4" y="394.2" transform="matrix(-0.866 -0.5 0.5 -0.866 -623.9298 623.0208)" width="1.7" height="1.7"/><rect x="-232.4" y="392.5" transform="matrix(-0.866 -0.5 0.5 -0.866 -628.7516 618.1964)" width="1.7" height="1.7"/><rect x="-225.9" y="407.1" width="1.8" height="1.8"/><rect x="-225.9" y="410.6" width="1.8" height="1.8"/><polygon points="-224.2,417.6 -225.9,417.6 -225.9,419 -227.1,419.2 -226.8,420.9 -225.4,420.7 -224.7,420.7 -223.3,420.9   -223,419.2 -224.2,419 "/><rect x="-225.9" y="414.1" width="1.8" height="1.8"/><rect x="-225.9" y="403.6" width="1.8" height="1.8"/><rect x="-225.9" y="400.1" width="1.8" height="1.8"/><rect x="-207.8" y="380.5" transform="matrix(-0.3338 -0.9426 0.9426 -0.3338 -635.4559 313.6795)" width="1.7" height="1.7"/><rect x="-209" y="377.3" transform="matrix(0.9426 -0.3338 0.3338 0.9426 -138.1618 -47.7825)" width="1.7" height="1.7"/><rect x="-210.1" y="373.9" transform="matrix(-0.3338 -0.9426 0.9426 -0.3338 -632.3982 302.619)" width="1.7" height="1.7"/><rect x="-212.5" y="367.4" transform="matrix(-0.3338 -0.9426 0.9426 -0.3338 -629.3791 291.6961)" width="1.7" height="1.7"/><polygon points="-204.4,385.6 -204.7,384.9 -205.3,383.6 -206.8,384.2 -206.5,385.3 -207.6,386 -206.8,387.5 -205.6,386.8   -204.8,387.8 -203.5,386.6 "/><rect x="-203.4" y="388.3" transform="matrix(-0.7604 0.6494 -0.6494 -0.7604 -103.7119 816.6623)" width="1.7" height="1.7"/><rect x="-201" y="391" transform="matrix(0.7604 -0.6494 0.6494 0.7604 -302.413 -36.1033)" width="1.7" height="1.7"/><rect x="-198.8" y="393.6" transform="matrix(0.7604 -0.6494 0.6494 0.7604 -303.5814 -34.0204)" width="1.7" height="1.7"/><rect x="-194.2" y="399" transform="matrix(-0.7604 0.6494 -0.6494 -0.7604 -80.7376 829.5139)" width="1.7" height="1.7"/><polygon points="-246.6,386.6 -245.3,387.8 -244.5,386.8 -243.3,387.5 -242.5,386 -243.6,385.3 -243.2,384.2 -244.8,383.6   -245.3,384.9 -245.7,385.6 "/><rect x="-248.5" y="388.3" transform="matrix(-0.7604 -0.6494 0.6494 -0.7604 -688.6104 524.2584)" width="1.7" height="1.7"/><rect x="-250.7" y="390.9" transform="matrix(-0.7604 -0.6494 0.6494 -0.7604 -694.2795 527.4311)" width="1.7" height="1.7"/><rect x="-253" y="393.6" transform="matrix(0.6494 -0.7604 0.7604 0.6494 -388.3888 -53.4393)" width="1.7" height="1.7"/><rect x="-257.6" y="399" transform="matrix(0.7604 0.6494 -0.6494 0.7604 198.1569 262.5031)" width="1.7" height="1.7"/><rect x="-244" y="380.5" transform="matrix(-0.9426 -0.3338 0.3338 -0.9426 -599.6843 659.6813)" width="1.7" height="1.7"/><rect x="-242.9" y="377.2" transform="matrix(-0.9426 -0.3338 0.3338 -0.9426 -596.4281 653.7401)" width="1.7" height="1.7"/><rect x="-241.7" y="373.9" transform="matrix(-0.9426 -0.3338 0.3338 -0.9426 -592.9329 647.7302)" width="1.7" height="1.7"/><rect x="-239.3" y="367.4" transform="matrix(0.9426 0.3338 -0.3338 0.9426 109.245 100.7058)" width="1.7" height="1.7"/><path d="M-201.2,369.2l-11.7-6.7h-24.2l-11.7,6.7l-12.2,21v13.6l12.2,21l11.7,6.7h24.2l11.7-6.7l12.2-21v-13.6L-201.2,369.2z   M-191.2,390.4l-14.4,16.9l-18-10.4l-0.5-0.9v-20.8l21.9-4L-191.2,390.4z M-213.9,429.7h-22.3l-7.4-20.9l18-10.4h1.1l18,10.4  L-213.9,429.7z M-238.5,371l-1.7-0.6l-0.1,0.3l-5.5-1l7.4-4.3v0.1l1.7,0.6l0.6-1.7l0,0h22.4l0,0l0.6,1.7l1.7-0.6v-0.1l7.4,4.3  l-5.5,1l-0.1-0.3l-1.7,0.6l-13.1,2.4h-0.8L-238.5,371z M-247.8,371.1l21.9,4v20.8l-0.5,0.9l-18,10.4l-14.4-16.9L-247.8,371.1z   M-258.9,403.7L-258.9,403.7l1.1-1.3l-1.3-1.1l-0.1,0.1v-8.6l3.7,4.3l-0.2,0.2l1.3,1.1l8.7,10.2l0.4,0.7l4.5,12.6l0.4,1.8l0.3-0.1  l1.8,5.3l-7.4-4.3h0.1l-0.4-1.8l-1.8,0.4l0,0L-258.9,403.7z M-202.4,423L-202.4,423l-1.8-0.4l-0.4,1.8h0.1l-7.4,4.3l1.8-5.3l0.3,0.1  l0.4-1.8l4.5-12.6l0.4-0.7l8.7-10.2l1.3-1.1l-0.2-0.2l3.7-4.3v8.6l-0.1-0.1l-1.3,1.1l1.1,1.3l0,0L-202.4,423z"/><text x="-275" y="462" fill="#000000" font-size="5px" font-weight="bold" font-family="'Helvetica Neue', Helvetica, Arial-Unicode, Arial, Sans-serif">Created by DaanDirk</text><text x="-275" y="467" fill="#000000" font-size="5px" font-weight="bold" font-family="'Helvetica Neue', Helvetica, Arial-Unicode, Arial, Sans-serif">from the Noun Project</text></svg>