<svg xmlns="http://www.w3.org/2000/svg" xmlns:xlink="http://www.w3.org/1999/xlink" version="1.1" baseProfile="basic" x="0px" y="0px" viewBox="-255 347 100 125" xml:space="preserve"><path d="M-181.2,369.2l-11.7-6.7h-24.2l-11.7,6.7l-12.2,21v13.6l12.2,21l11.7,6.7h24.2l11.7-6.7l12.2-21v-13.6L-181.2,369.2z   M-171.2,390.4l-14.4,16.9l-18.6-10.8v-21.4l21.9-4L-171.2,390.4z M-193.9,429.7h-22.3l-7.4-20.9l18.6-10.7l18.6,10.7L-193.9,429.7z   M-216.7,364.4h23.3l9.1,5.3l-20.4,3.8h-0.8l-20.4-3.8L-216.7,364.4z M-227.8,371.1l21.9,4v21.4l-18.6,10.7l-14.4-16.9L-227.8,371.1  z M-239.2,403.3v-10.5l13.5,15.8l0.4,0.7l6.9,19.5l-9.1-5.3L-239.2,403.3z M-182.6,423.5l-9.1,5.3l6.9-19.5l0.4-0.7l13.5-15.8v10.5  L-182.6,423.5z"/><text x="-255" y="462" fill="#000000" font-size="5px" font-weight="bold" font-family="'Helvetica Neue', Helvetica, Arial-Unicode, Arial, Sans-serif">Created by DaanDirk</text><text x="-255" y="467" fill="#000000" font-size="5px" font-weight="bold" font-family="'Helvetica Neue', Helvetica, Arial-Unicode, Arial, Sans-serif">from the Noun Project</text></svg>