<svg xmlns="http://www.w3.org/2000/svg" viewBox="0 0 100 125" x="0px" y="0px"><title>psp </title><path d="M16.15,43.2l11.1-19.3,21.9,4V49.4L30.55,60.1Zm67.7,0L72.75,23.9l-21.9,4V49.4l18.6,10.7Zm-33.9,7.7L31.45,61.6l7.4,20.9h22.3l7.4-20.9ZM29.65,62.1l-.3-.7L15.85,45.6V56.2l11.7,20.1,9.1,5.3Zm41-.7-.4.7-6.9,19.5,9.1-5.3,11.7-20.1V45.6Zm-21-35.1h.7l20.4-3.8-9.1-5.2H38.35l-9.1,5.2Z"/><text x="0" y="115" fill="#000000" font-size="5px" font-weight="bold" font-family="'Helvetica Neue', Helvetica, Arial-Unicode, Arial, Sans-serif">Created by DaanDirk</text><text x="0" y="120" fill="#000000" font-size="5px" font-weight="bold" font-family="'Helvetica Neue', Helvetica, Arial-Unicode, Arial, Sans-serif">from the Noun Project</text></svg>