<svg xmlns="http://www.w3.org/2000/svg" xmlns:xlink="http://www.w3.org/1999/xlink" version="1.1" x="0px" y="0px" viewBox="0 0 100 125" style="enable-background:new 0 0 100 100;" xml:space="preserve"><path d="M33.4,32.2l-1.7-0.6l0.6-1.7l1.7,0.6L33.4,32.2z M17,52.8l1.3,1.1l1.1-1.3l-1.3-1.1L17,52.8z M35.3,27.1l-1.7-0.6L33,28.2  l1.7,0.6L35.3,27.1z M37.5,20.6L35.8,20l-0.6,1.7l1.7,0.6L37.5,20.6z M19.2,50.1l1.3,1.1l1.1-1.3l-1.3-1.1L19.2,50.1z M36.4,23.9  l-1.7-0.6L34.1,25l1.7,0.6L36.4,23.9z M30.5,75.1l0.4,1.8l1.8-0.4l-0.4-1.8L30.5,75.1z M30.6,34.8l1.7,0.6l0.6-1.7l-1.7-0.6  L30.6,34.8z M21.5,47.5l1.3,1.1l1.1-1.3l-1.3-1.1L21.5,47.5z M35.5,40.6L34,39.7l-0.9,1.5l1.5,0.9L35.5,40.6z M26.1,42.1l1.3,1.1  l1.1-1.3l-1.3-1.1L26.1,42.1z M23.8,44.9l1.3,1.1l1.1-1.3l-1.3-1.1L23.8,44.9z M32.5,38.9l-1.2-0.7l0.4-1.1L30,36.5l-0.4,1.3  l-0.4,0.7l-0.9,1l1.3,1.1l0.8-0.9l1.2,0.7L32.5,38.9z M63.9,25.5l1.7-0.6L65,23.2l-1.7,0.6L63.9,25.5z M64.4,21.7L63.8,20l-1.7,0.6  l0.6,1.7L64.4,21.7z M63.5,43l-0.9-1.5l-1.5,0.9l0.9,1.5L63.5,43z M65,28.8l1.7-0.6l-0.6-1.7l-1.7,0.6L65,28.8z M36.1,43l1.5,0.9  l0.9-1.5L37,41.5L36.1,43z M48.9,51.2h1.8v-0.8l0.7-0.4l-0.9-1.5l-0.7,0.4l-0.7-0.4L48.2,50l0.7,0.4V51.2z M66.2,32.1l1.7-0.6  l-0.6-1.7l-1.7,0.6L66.2,32.1z M50.8,63.4H49v1.8h1.8V63.4z M50.8,56.4H49v1.8h1.8V56.4z M50.8,52.9H49v1.8h1.8V52.9z M48.9,68.8  h1.8V67h-1.8V68.8z M50.8,59.9H49v1.8h1.8V59.9z M69.1,34.9l-0.6-1.7l-1.7,0.6l0.6,1.7L69.1,34.9z M66.9,76.5l1.8,0.4l0.4-1.8  l-1.8-0.4L66.9,76.5z M70.5,38.5l-0.4-0.7l-0.4-1.3L68,37.1l0.4,1.1l-1.2,0.7l0.9,1.5l1.2-0.7l0.8,0.9l1.3-1.1L70.5,38.5z   M64.2,40.6l0.9,1.5l1.5-0.9l-0.9-1.5L64.2,40.6z M63.5,75.9l1.8,0.4l0.4-1.8l-1.8-0.4L63.5,75.9z M81.4,53.9l1.3-1.1l-1.1-1.3  l-1.3,1.1L81.4,53.9z M59.7,43.2l-1.5,0.9l0.9,1.5l1.5-0.9L59.7,43.2z M60.1,75.3l1.8,0.4l0.4-1.8l-1.8-0.4L60.1,75.3z M79.2,51.2  l1.3-1.1l-1.1-1.3l-1.3,1.1L79.2,51.2z M71.2,41.9l1.1,1.3l1.3-1.1l-1.1-1.3L71.2,41.9z M86,43.2v13.6l-12.2,21l-11.7,6.7H37.9  l-11.7-6.7L14,56.8V43.2l12.2-21l11.7-6.7h24.2l11.7,6.7L86,43.2z M84.2,43.8L72.6,23.7l-9.1-5.3v0.1l-1.7,0.6l-0.6-1.7H38.8  l-0.6,1.7l-1.7-0.6v-0.1l-9.1,5.3L15.8,43.8v10.5l0.1-0.1l1.3,1.1l-1.1,1.3l11.2,19.3l1.8-0.4l0.4,1.8h-0.1l9.1,5.3h23.3l8.7-5.3  l0.4-1.8l1.8,0.4l11.2-19.3l-1.1-1.3l1.3-1.1l0.1,0.1V43.8z M74.6,45.9l1.3-1.1l-1.1-1.3l-1.3,1.1L74.6,45.9z M76.9,48.5l1.3-1.1  l-1.1-1.3l-1.3,1.1L76.9,48.5z M37.4,73.9l0.4,1.8l1.8-0.4l-0.4-1.8L37.4,73.9z M43.1,45l-0.9,1.5l1.5,0.9l0.9-1.5L43.1,45z   M44.3,72.6l0.4,1.8l1.8-0.4l-0.4-1.8L44.3,72.6z M40.9,73.2l0.4,1.8l1.8-0.4l-0.4-1.8L40.9,73.2z M34,74.5l0.4,1.8l1.8-0.4  l-0.4-1.8L34,74.5z M40.1,43.2l-0.9,1.5l1.5,0.9l0.9-1.5L40.1,43.2z M56.6,74.6l1.8,0.4l0.4-1.8L57,72.8L56.6,74.6z M45.3,48.2  l1.5,0.9l0.9-1.5l-1.5-0.9L45.3,48.2z M53.2,74l1.8,0.4l0.4-1.8l-1.8-0.4L53.2,74z M56.6,45l-1.5,0.9l0.9,1.5l1.5-0.9L56.6,45z   M50.7,70.4h-1.8v1.4L47.8,72l0.4,1.8l1.3-0.3h0.8l1.3,0.3l0.2-1.8l-1.1-0.2V70.4z M53.5,46.7L52,47.6l0.9,1.5l1.5-0.9L53.5,46.7z"/><text x="0" y="115" fill="#000000" font-size="5px" font-weight="bold" font-family="'Helvetica Neue', Helvetica, Arial-Unicode, Arial, Sans-serif">Created by DaanDirk</text><text x="0" y="120" fill="#000000" font-size="5px" font-weight="bold" font-family="'Helvetica Neue', Helvetica, Arial-Unicode, Arial, Sans-serif">from the Noun Project</text></svg>