<svg xmlns="http://www.w3.org/2000/svg" viewBox="0 0 100 125" x="0px" y="0px"><title>psp </title><path d="M70.65,77.3l.4-1.8,1.8.4h0l11.2-19.3h0l-1.1-1.3,1.3-1.1.1.1V43.8L72.75,23.7l-9.1-5.3v.1l-1.7.6-.6-1.7H38.95l-.6,1.7-1.7-.6v-.1l-9.1,5.3L15.95,43.8V54.3l.1-.1,1.3,1.1-1.1,1.3h0l11.2,19.3h0l1.8-.4.4,1.8h-.1l9.1,5.3h23.3l8.7-5.3Zm12.2-24.5-1.3,1.1-1.1-1.3,1.3-1.1Zm-2.2-2.7-1.3,1.1-1.1-1.3,1.3-1.1Zm-2.3-2.7-1.3,1.1-1.1-1.3,1.3-1.1Zm-2.3-2.6-1.3,1.1-1.1-1.3,1.3-1.1Zm-3.4-4,1.1,1.3-1.3,1.1-1.1-1.3Zm-4.6-9.3-1.7.6-.6-1.7,1.7-.6Zm-1.2-3.3-1.7.6-.6-1.7,1.7-.6Zm-1.1-3.3-1.7.6-.6-1.7,1.7-.6ZM63.95,20l.6,1.7-1.7.6-.6-1.7ZM49.25,48.5l.7.4.7-.4.9,1.5-.7.4v.8h-1.8v-.8l-.7-.4Zm-.1,16.7V63.4h1.8v1.8Zm1.7,1.8v1.8h-1.8V67Zm-1.7-5.3V59.9h1.8v1.8Zm0-3.5V56.4h1.8v1.8Zm0-3.5V52.9h1.8v1.8ZM35.95,20l1.7.6-.6,1.7-1.7-.6Zm-1.1,3.3,1.7.6-.6,1.7-1.7-.6Zm-1.1,3.2,1.7.6-.6,1.7-1.7-.6Zm-1.3,3.4,1.7.6-.6,1.7-1.7-.6Zm-14,24-1.3-1.1,1.1-1.3,1.3,1.1Zm2.2-2.7-1.3-1.1,1.1-1.3,1.3,1.1Zm2.3-2.6-1.3-1.1,1.1-1.3,1.3,1.1Zm2.3-2.6-1.3-1.1,1.1-1.3,1.3,1.1Zm2.3-2.8-1.3-1.1,1.1-1.3,1.3,1.1Zm.9-3.7.9-1,.4-.7.4-1.3,1.7.6-.4,1.1,1.2.7-.9,1.5-1.2-.7-.8.9Zm2.6,37.4-.4-1.8,1.8-.4.4,1.8Zm1.4-41.5-1.7-.6.6-1.7,1.7.6Zm1.7,4.3,1.5.9-.9,1.5-1.5-.9Zm.4,36.6-.4-1.8,1.8-.4.4,1.8Zm2.6-34.8,1.5.9-.9,1.5-1.5-.9Zm.8,34.2-.4-1.8,1.8-.4.4,1.8Zm1.4-31,.9-1.5,1.5.9-.9,1.5ZM41.45,75l-.4-1.8,1.8-.4.4,1.8Zm.9-28.5.9-1.5,1.5.9-.9,1.5Zm2.5,27.9-.4-1.8,1.8-.4.4,1.8Zm2.1-25.3-1.5-.9.9-1.5,1.5.9Zm4.8,24.7-1.3-.3h-.8l-1.3.3-.4-1.8,1.1-.2V70.4h1.8v1.4l1.1.2Zm.4-26.2,1.5-.9.9,1.5-1.5.9Zm3,26.8-1.8-.4.4-1.8,1.8.4Zm.1-28.5,1.5-.9.9,1.5-1.5.9ZM58.55,75l-1.8-.4.4-1.8,1.8.4Zm-.2-30.9,1.5-.9.9,1.5-1.5.9Zm3.7,31.6-1.8-.4.4-1.8,1.8.4Zm.1-31.8-.9-1.5,1.5-.9.9,1.5Zm3.3,32.4-1.8-.4.4-1.8,1.8.4Zm-.2-34.2-.9-1.5,1.5-.9.9,1.5Zm3.4-8.9.6,1.7-1.7.6-.6-1.7Zm.2,43.7-1.8-.4.4-1.8,1.8.4Zm-.6-36.5-.9-1.5,1.2-.7-.4-1.1,1.7-.6.4,1.3.4.7.9,1-1.3,1.1-.8-.9Z"/><text x="0" y="115" fill="#000000" font-size="5px" font-weight="bold" font-family="'Helvetica Neue', Helvetica, Arial-Unicode, Arial, Sans-serif">Created by DaanDirk</text><text x="0" y="120" fill="#000000" font-size="5px" font-weight="bold" font-family="'Helvetica Neue', Helvetica, Arial-Unicode, Arial, Sans-serif">from the Noun Project</text></svg>