<svg xmlns="http://www.w3.org/2000/svg" xmlns:xlink="http://www.w3.org/1999/xlink" version="1.1" baseProfile="basic" x="0px" y="0px" viewBox="-255 347 100 125" xml:space="preserve"><rect x="-235.3" y="396.3" transform="matrix(0.7604 0.6494 -0.6494 0.7604 201.7807 247.4323)" width="1.7" height="1.7"/><rect x="-233.1" y="393.6" transform="matrix(0.7604 0.6494 -0.6494 0.7604 200.5835 245.2971)" width="1.7" height="1.7"/><rect x="-230.8" y="391" transform="matrix(0.7604 0.6494 -0.6494 0.7604 199.416 243.2148)" width="1.7" height="1.7"/><rect x="-221.7" y="373.9" transform="matrix(-0.9426 -0.3338 0.3338 -0.9426 -554.0801 654.4064)" width="1.7" height="1.7"/><rect x="-237.6" y="399" transform="matrix(0.7604 0.6494 -0.6494 0.7604 202.9484 249.5147)" width="1.7" height="1.7"/><rect x="-222.9" y="377.2" transform="matrix(-0.9426 -0.3338 0.3338 -0.9426 -557.5753 660.4164)" width="1.7" height="1.7"/><rect x="-221.5" y="387.2" transform="matrix(-0.866 -0.5 0.5 -0.866 -605.7832 613.8444)" width="1.7" height="1.7"/><rect x="-228.5" y="388.3" transform="matrix(0.7604 0.6494 -0.6494 0.7604 198.2187 241.0796)" width="1.7" height="1.7"/><rect x="-224" y="380.6" transform="matrix(0.9426 0.3338 -0.3338 0.9426 114.5448 96.3689)" width="1.7" height="1.7"/><rect x="-220.7" y="421.6" transform="matrix(0.1822 0.9833 -0.9833 0.1822 235.5774 561.6226)" width="1.8" height="1.8"/><rect x="-224.1" y="422.2" transform="matrix(0.1822 0.9833 -0.9833 0.1822 233.3969 565.4408)" width="1.8" height="1.8"/><polygon points="-222.5,386 -223.6,385.3 -223.2,384.2 -224.8,383.6 -225.3,384.9 -225.7,385.6 -226.6,386.6 -225.3,387.8   -224.5,386.8 -223.3,387.5 "/><polygon points="-205.9,398.4 -204.2,398.4 -204.2,397.6 -203.5,397.1 -204.3,395.6 -205,396 -205.7,395.6 -206.6,397.1   -205.9,397.6 "/><rect x="-192.5" y="367.4" transform="matrix(-0.3338 -0.9426 0.9426 -0.3338 -602.7028 310.5489)" width="1.7" height="1.7"/><rect x="-218.5" y="389" transform="matrix(-0.866 -0.5 0.5 -0.866 -600.9595 618.6683)" width="1.7" height="1.7"/><rect x="-191.3" y="370.7" transform="matrix(0.9426 -0.3338 0.3338 0.9426 -134.9568 -42.2486)" width="1.7" height="1.7"/><rect x="-205.9" y="410.6" width="1.8" height="1.8"/><rect x="-189" y="377.3" transform="matrix(0.9426 -0.3338 0.3338 0.9426 -137.0145 -41.1062)" width="1.7" height="1.7"/><rect x="-190.1" y="374" transform="matrix(0.9426 -0.3338 0.3338 0.9426 -135.9784 -41.6645)" width="1.7" height="1.7"/><rect x="-219.4" y="367.3" transform="matrix(-0.9426 -0.3338 0.3338 -0.9426 -547.4781 642.3702)" width="1.7" height="1.7"/><rect x="-220.5" y="370.6" transform="matrix(-0.9426 -0.3338 0.3338 -0.9426 -550.7408 648.3155)" width="1.7" height="1.7"/><rect x="-205.9" y="400.1" width="1.8" height="1.8"/><rect x="-205.9" y="414.1" width="1.8" height="1.8"/><rect x="-205.9" y="407.1" width="1.8" height="1.8"/><rect x="-205.9" y="403.6" width="1.8" height="1.8"/><rect x="-201.5" y="419.7" transform="matrix(0.9833 0.1822 -0.1822 0.9833 73.2698 43.5886)" width="1.8" height="1.8"/><rect x="-187.7" y="422.2" transform="matrix(0.9833 0.1822 -0.1822 0.9833 73.9536 41.1149)" width="1.8" height="1.8"/><rect x="-174.2" y="398.9" transform="matrix(0.7604 -0.6494 0.6494 0.7604 -301.1548 -16.8144)" width="1.7" height="1.7"/><rect x="-193.4" y="388.9" transform="matrix(0.5 0.866 -0.866 0.5 241.328 361.6233)" width="1.7" height="1.7"/><rect x="-187.8" y="380.5" transform="matrix(-0.3338 -0.9426 0.9426 -0.3338 -608.7796 332.5323)" width="1.7" height="1.7"/><rect x="-191.2" y="421.6" transform="matrix(0.9833 0.1822 -0.1822 0.9833 73.7892 41.7394)" width="1.8" height="1.8"/><rect x="-190.4" y="387.2" transform="matrix(0.5 0.866 -0.866 0.5 241.2966 358.1234)" width="1.7" height="1.7"/><polygon points="-184.4,385.6 -184.7,384.9 -185.3,383.6 -186.8,384.2 -186.5,385.3 -187.6,386 -186.8,387.5 -185.6,386.8   -184.8,387.8 -183.5,386.6 "/><rect x="-183.3" y="388.3" transform="matrix(0.7604 -0.6494 0.6494 0.7604 -296.4251 -25.2495)" width="1.7" height="1.7"/><rect x="-181" y="391" transform="matrix(0.7604 -0.6494 0.6494 0.7604 -297.6216 -23.1148)" width="1.7" height="1.7"/><rect x="-178.8" y="393.6" transform="matrix(0.7604 -0.6494 0.6494 0.7604 -298.7899 -21.032)" width="1.7" height="1.7"/><rect x="-176.5" y="396.3" transform="matrix(0.7604 -0.6494 0.6494 0.7604 -299.9872 -18.8967)" width="1.7" height="1.7"/><rect x="-217.2" y="420.9" transform="matrix(0.1822 0.9833 -0.9833 0.1822 237.8126 557.7067)" width="1.8" height="1.8"/><rect x="-209.3" y="394.2" transform="matrix(0.866 0.5 -0.5 0.866 169.6043 157.1378)" width="1.7" height="1.7"/><rect x="-210.4" y="419.6" transform="matrix(0.1822 0.9833 -0.9833 0.1822 242.1307 549.9179)" width="1.8" height="1.8"/><rect x="-194.6" y="420.9" transform="matrix(0.9833 0.1822 -0.1822 0.9833 73.6095 42.3595)" width="1.8" height="1.8"/><rect x="-215.4" y="390.7" transform="matrix(-0.5 0.866 -0.866 -0.5 17.4108 773.1334)" width="1.7" height="1.7"/><rect x="-213.8" y="420.2" transform="matrix(0.1822 0.9833 -0.9833 0.1822 239.9502 553.7361)" width="1.8" height="1.8"/><rect x="-212.3" y="392.5" transform="matrix(-0.5 0.866 -0.866 -0.5 23.473 773.2308)" width="1.7" height="1.7"/><rect x="-196.5" y="390.7" transform="matrix(-0.866 0.5 -0.5 -0.866 -169.152 828.5579)" width="1.7" height="1.7"/><rect x="-198" y="420.3" transform="matrix(0.9833 0.1822 -0.1822 0.9833 73.4341 42.9642)" width="1.8" height="1.8"/><rect x="-202.5" y="394.2" transform="matrix(-0.866 0.5 -0.5 -0.866 -178.6805 838.0846)" width="1.7" height="1.7"/><rect x="-199.4" y="392.5" transform="matrix(-0.866 0.5 -0.5 -0.866 -173.8567 833.2607)" width="1.7" height="1.7"/><polygon points="-204.2,417.6 -205.9,417.6 -205.9,419 -207.1,419.2 -206.8,420.9 -205.4,420.7 -204.7,420.7 -203.3,420.9   -203,419.2 -204.2,419 "/><path d="M-181.2,369.2l-11.7-6.7h-24.2l-11.7,6.7l-12.2,21v13.6l12.2,21l11.7,6.7h24.2l11.7-6.7l12.2-21v-13.6L-181.2,369.2z   M-170.9,401.3L-170.9,401.3l-1.4,1.1l1.1,1.3l0,0l-11.2,19.3l0,0l-1.8-0.4l-0.4,1.8h0.1l-9.1,5.3h-23.3l-9.1-5.3h0.1l-0.4-1.8  l-1.8,0.4l0,0l-11.2-19.3l0,0l1.1-1.3l-1.3-1.1l-0.1,0.1v-10.5l11.6-20.1l9.1-5.3v0.1l1.7,0.6l0.6-1.7l0,0h22.4l0,0l0.6,1.7l1.7-0.6  v-0.1l9.1,5.3l11.6,20.1V401.3z"/><text x="-255" y="462" fill="#000000" font-size="5px" font-weight="bold" font-family="'Helvetica Neue', Helvetica, Arial-Unicode, Arial, Sans-serif">Created by DaanDirk</text><text x="-255" y="467" fill="#000000" font-size="5px" font-weight="bold" font-family="'Helvetica Neue', Helvetica, Arial-Unicode, Arial, Sans-serif">from the Noun Project</text></svg>