<svg xmlns="http://www.w3.org/2000/svg" xmlns:xlink="http://www.w3.org/1999/xlink" version="1.1" baseProfile="basic" x="0px" y="0px" viewBox="-255 347 100 125" xml:space="preserve"><polygon points="-224.4,407.2 -205.8,396.5 -205.8,375 -227.7,371 -238.8,390.3 "/><polygon points="-171.1,390.3 -182.2,371 -204.1,375 -204.1,396.5 -185.5,407.2 "/><polygon points="-205,398 -223.5,408.7 -216.1,429.6 -193.8,429.6 -186.4,408.7 "/><polygon points="-225.3,409.2 -225.6,408.5 -239.1,392.7 -239.1,403.3 -227.4,423.4 -218.3,428.7 "/><polygon points="-184.3,408.5 -184.7,409.2 -191.6,428.7 -182.5,423.4 -170.8,403.3 -170.8,392.7 "/><polygon points="-205.3,373.4 -204.6,373.4 -184.2,369.6 -193.3,364.4 -216.6,364.4 -225.7,369.6 "/><path d="M-179.9,367.9l-12.3-7.1h-25.5l-12.3,7.1l-12.8,22.1v14.2l12.8,22.1l12.3,7.1h25.5l12.3-7.1l12.8-22.1v-14.2L-179.9,367.9z   M-169.2,403.6l-12.3,21.2l-11.4,6.6h-24.4l-11.4-6.6l-12.3-21.2v-13.1l12.3-21.2l11.4-6.6h24.5l11.4,6.6l12.3,21.2L-169.2,403.6  L-169.2,403.6z"/><text x="-255" y="462" fill="#000000" font-size="5px" font-weight="bold" font-family="'Helvetica Neue', Helvetica, Arial-Unicode, Arial, Sans-serif">Created by DaanDirk</text><text x="-255" y="467" fill="#000000" font-size="5px" font-weight="bold" font-family="'Helvetica Neue', Helvetica, Arial-Unicode, Arial, Sans-serif">from the Noun Project</text></svg>