<svg xmlns="http://www.w3.org/2000/svg" xmlns:xlink="http://www.w3.org/1999/xlink" preserveAspectRatio="xMidYMid" viewBox="0 0 100 125" x="0px" y="0px"><defs><style>
      .cls-1 {
        fill: #000;
        fill-rule: evenodd;
      }
    </style></defs><g><path d="M91.096,54.309 L74.583,82.989 L67.000,88.000 L32.500,88.000 L25.024,83.174 L8.938,55.312 L8.419,45.809 L25.777,15.827 L33.313,12.000 L66.125,12.000 L74.223,16.149 L91.535,46.094 L91.096,54.309 ZM88.856,54.266 L72.995,37.991 L50.969,50.705 L50.969,76.412 L72.860,81.972 L88.856,54.266 ZM33.046,86.000 L66.454,86.000 L70.551,83.339 L49.969,77.962 L28.949,83.339 L33.046,86.000 ZM26.640,81.972 L48.969,76.301 L48.969,50.705 L26.662,37.829 L10.644,54.266 L26.640,81.972 ZM27.136,17.412 L10.432,46.344 L10.702,51.492 L25.588,36.218 L31.522,15.178 L27.136,17.412 ZM65.678,14.000 L33.822,14.000 L27.598,36.071 L49.969,48.983 L71.964,36.288 L65.678,14.000 ZM72.786,17.656 L67.987,15.211 L73.912,36.218 L89.211,51.916 L89.490,46.588 L72.786,17.656 Z" class="cls-1"/><path d="M77.735,55.717 L79.150,57.131 L77.735,58.545 L76.321,57.131 L77.735,55.717 ZM80.564,52.888 L81.978,54.303 L80.564,55.717 L79.150,54.303 L80.564,52.888 ZM83.398,50.055 L84.812,51.469 L83.392,52.888 L81.978,51.474 L83.398,50.055 ZM86.221,47.232 L87.635,48.646 L86.226,50.055 L84.812,48.641 L86.221,47.232 ZM89.054,44.398 L90.469,45.812 L89.049,47.232 L87.635,45.817 L89.054,44.398 ZM76.321,59.960 L74.907,61.374 L73.493,59.960 L74.907,58.545 L76.321,59.960 ZM71.149,16.227 L73.088,15.708 L73.605,17.639 L71.666,18.159 L71.149,16.227 ZM68.903,80.060 L68.387,81.984 L66.455,81.467 L66.971,79.542 L68.903,80.060 ZM73.872,61.771 L73.534,62.731 L72.872,63.503 L70.247,61.987 L71.247,60.255 L73.872,61.771 ZM73.046,64.598 L72.528,66.530 L70.596,66.012 L71.114,64.080 L73.046,64.598 ZM72.010,68.461 L71.493,70.393 L69.561,69.876 L70.078,67.944 L72.010,68.461 ZM69.734,18.677 L67.810,19.192 L67.292,17.260 L69.217,16.745 L69.734,18.677 ZM67.783,58.255 L69.515,59.255 L68.515,60.987 L66.783,59.987 L67.783,58.255 ZM70.975,72.325 L70.457,74.257 L68.526,73.739 L69.043,71.808 L70.975,72.325 ZM67.488,77.610 L68.008,75.671 L69.940,76.189 L69.420,78.128 L67.488,77.610 ZM67.350,85.855 L65.418,85.338 L65.937,83.399 L67.869,83.916 L67.350,85.855 ZM63.319,57.987 L64.319,56.255 L66.051,57.255 L65.051,58.987 L63.319,57.987 ZM63.939,20.229 L63.421,18.298 L65.360,17.778 L65.878,19.710 L63.939,20.229 ZM31.551,81.984 L31.035,80.060 L32.967,79.542 L33.482,81.467 L31.551,81.984 ZM30.423,59.255 L32.155,58.255 L33.155,59.987 L31.423,60.987 L30.423,59.255 ZM28.789,16.227 L28.271,18.159 L26.332,17.639 L26.850,15.708 L28.789,16.227 ZM32.449,77.610 L30.517,78.128 L29.998,76.189 L31.930,75.671 L32.449,77.610 ZM31.412,73.739 L29.480,74.257 L28.962,72.325 L30.894,71.808 L31.412,73.739 ZM29.341,66.012 L27.410,66.530 L26.892,64.598 L28.824,64.080 L29.341,66.012 ZM26.065,61.771 L28.691,60.255 L29.691,61.987 L27.065,63.503 L26.403,62.731 L26.065,61.771 ZM32.645,17.260 L32.128,19.192 L30.203,18.677 L30.721,16.745 L32.645,17.260 ZM27.927,68.461 L29.859,67.944 L30.377,69.876 L28.445,70.393 L27.927,68.461 ZM34.000,83.399 L34.520,85.338 L32.588,85.855 L32.068,83.916 L34.000,83.399 ZM34.577,17.778 L36.516,18.298 L35.999,20.229 L34.060,19.710 L34.577,17.778 ZM34.887,58.987 L33.887,57.255 L35.619,56.255 L36.619,57.987 L34.887,58.987 ZM38.351,56.987 L37.351,55.255 L39.089,54.251 L40.089,55.984 L38.351,56.987 ZM40.380,19.333 L39.862,21.265 L37.930,20.747 L38.448,18.815 L40.380,19.333 ZM41.821,54.984 L40.821,53.251 L42.547,52.255 L43.547,53.987 L41.821,54.984 ZM44.244,20.368 L43.726,22.300 L41.794,21.782 L42.312,19.851 L44.244,20.368 ZM54.658,52.987 L52.920,51.984 L53.920,50.251 L55.658,51.255 L54.658,52.987 ZM54.280,22.818 L52.348,23.335 L51.830,21.403 L53.762,20.886 L54.280,22.818 ZM45.279,52.987 L44.279,51.255 L46.018,50.251 L47.018,51.984 L45.279,52.987 ZM48.107,21.403 L47.590,23.335 L45.658,22.818 L46.176,20.886 L48.107,21.403 ZM50.969,48.548 L52.188,49.251 L51.188,50.984 L49.969,50.280 L48.750,50.984 L47.750,49.251 L48.969,48.548 L48.969,47.140 L50.969,47.140 L50.969,48.548 ZM50.969,45.140 L48.969,45.140 L48.969,43.133 L50.969,43.133 L50.969,45.140 ZM50.969,41.133 L48.969,41.133 L48.969,39.140 L50.969,39.140 L50.969,41.133 ZM50.969,37.140 L48.969,37.140 L48.969,35.133 L50.969,35.133 L50.969,37.140 ZM50.969,33.133 L48.969,33.133 L48.969,31.133 L50.969,31.133 L50.969,33.133 ZM48.969,22.101 L49.969,21.914 L50.969,22.101 L50.969,25.132 L48.969,25.132 L48.969,22.101 ZM50.969,29.132 L48.969,29.132 L48.969,27.132 L50.969,27.132 L50.969,29.132 ZM55.694,20.368 L57.626,19.851 L58.143,21.782 L56.211,22.300 L55.694,20.368 ZM58.116,54.984 L56.390,53.987 L57.390,52.255 L59.116,53.251 L58.116,54.984 ZM59.558,19.333 L61.489,18.815 L62.007,20.747 L60.075,21.265 L59.558,19.333 ZM61.587,56.987 L59.848,55.984 L60.848,54.251 L62.587,55.255 L61.587,56.987 ZM25.031,61.374 L23.616,59.960 L25.031,58.545 L26.445,59.960 L25.031,61.374 ZM12.303,45.817 L10.888,47.232 L9.469,45.812 L10.883,44.398 L12.303,45.817 ZM13.717,47.232 L15.126,48.641 L13.711,50.055 L12.303,48.646 L13.717,47.232 ZM16.540,50.055 L17.959,51.474 L16.545,52.888 L15.126,51.469 L16.540,50.055 ZM19.374,52.888 L20.788,54.303 L19.374,55.717 L17.959,54.303 L19.374,52.888 ZM22.202,55.717 L23.616,57.131 L22.202,58.545 L20.788,57.131 L22.202,55.717 Z" class="cls-1"/></g><text x="0" y="115" fill="#000000" font-size="5px" font-weight="bold" font-family="'Helvetica Neue', Helvetica, Arial-Unicode, Arial, Sans-serif">Created by DaanDirk</text><text x="0" y="120" fill="#000000" font-size="5px" font-weight="bold" font-family="'Helvetica Neue', Helvetica, Arial-Unicode, Arial, Sans-serif">from the Noun Project</text></svg>