<svg xmlns="http://www.w3.org/2000/svg" xmlns:xlink="http://www.w3.org/1999/xlink" version="1.2" baseProfile="tiny" x="0px" y="0px" viewBox="0 0 100 125" xml:space="preserve"><path d="M50,6.1L12,28v43.9l38,22l38-22V28L50,6.1z M86,70.8L50,91.6L14,70.8V29.2L50,8.4l36,20.8V70.8z"/><polygon points="51.9,30.9 67.3,57.7 82.7,30.9 "/><polygon points="65.4,61.1 34.5,61.1 49.9,87.8 "/><polygon points="50.9,29.1 82.1,29.1 50.9,11.1 "/><polygon points="17.1,30.9 32.5,57.7 48,30.9 "/><polygon points="49.9,31.2 33.7,59.2 66.1,59.2 "/><polygon points="68.4,59.5 68.4,59.6 84,68.6 84,32.4 "/><polygon points="32.4,61.1 16.7,70.2 48,88.2 "/><polygon points="67.5,61.1 67.5,61.1 51.8,88.2 83.2,70.1 "/><polygon points="31.4,59.5 15.8,32.4 15.8,68.5 "/><polygon points="48.9,29.1 48.9,11 17.7,29.1 "/><text x="0" y="115" fill="#000000" font-size="5px" font-weight="bold" font-family="'Helvetica Neue', Helvetica, Arial-Unicode, Arial, Sans-serif">Created by DaanDirk</text><text x="0" y="120" fill="#000000" font-size="5px" font-weight="bold" font-family="'Helvetica Neue', Helvetica, Arial-Unicode, Arial, Sans-serif">from the Noun Project</text></svg>