<svg xmlns="http://www.w3.org/2000/svg" viewBox="0 0 100 125" x="0px" y="0px"><title>psp </title><path d="M84,31.35l-.7.4.2-.3-.8-1.4h-.4l.7-.4L51.6,11.55l-1.5.9-.2-.4-.2.4-1.5-.9L16.7,29.75l.5.3-.9,1.5-.5-.3v36.4l1.5.9-.2.4h.4v1.7L49,88.85v-.8l.2.3h1.6l.2-.3v.8l31.5-18.2v-1.7h.4l-.2-.4,1.5-.9V31.35Zm-2.9-.4.9,1.5-1.5.9-.9-1.5Zm.4,32.1-1.6.9-.9-1.5,1.6-.9Zm-3.4-30.4.9,1.5-1.5.9-.9-1.5ZM78,57.05l-1.6.9-.9-1.5,1.6-.9Zm-2.9-22.6.9,1.5-1.5.9-.9-1.5Zm-.6,16.5-1.6.9-.9-1.5,1.6-.9ZM72,36.15l.9,1.5-1.5.9-.9-1.5Zm-1,8.7-1.6.9-.9-1.5,1.6-.9Zm-5.3-9.1-1.6.9-.9-1.5,1.6-.9Zm-1.1,7.5,1.6.9-.9,1.5-1.6-.9ZM64,32.75l-1.6.9-.9-1.5,1.6-.9Zm-1,6v1.8H61.2v-1.8Zm-.8-9.1-1.6.9-.8-1.5,1.6-.9Zm.4,20.6-.9,1.5-1.6-.9.9-1.5Zm-2.1-23.6-1.6.9-.9-1.5,1.6-.9Zm-1,12.1v1.8H57.7v-1.8Zm-.8-15.1-1.6.9-.8-1.5,1.6-.9Zm.4,32.6-.9,1.5-1.6-.9.9-1.5ZM57,20.55l-1.6.9-.9-1.5,1.6-.9Zm-1,18.2v1.8H54.2v-1.8Zm-.8-21.2-1.6.9-.9-1.5,1.6-.9Zm.4,44.8-.9,1.5-1.6-.9.9-1.5Zm-3-49.4.9,1.5-1.6.9-.9-1.4Zm-1.8,25.8h1.8v1.8H50.8Zm-3.6-25.7,1.6.9-.9,1.5-1.6-.9ZM49,38.75v1.8H47.2v-1.8Zm-3.5-22.7,1.6.9-.9,1.5-1.6-.9Zm.3,45.4.9,1.5-1.7.9-.9-1.5Zm-.3-20.8H43.7v-1.8h1.8Zm-1.8-21.6,1.6.9-.9,1.5-1.6-.9Zm-1.7,3,1.6.9-.9,1.5-1.6-.9Zm.3,33.3.9,1.5-1.6.9-.9-1.5ZM42,40.65H40.2v-1.8H42Zm-1.8-15.5,1.6.9-.9,1.5-1.6-.9Zm-1.7,3,1.6.9-.9,1.5-1.6-.9Zm.3,21.2.9,1.5-1.7.9-.9-1.5Zm-.3-8.7H36.7v-1.8h1.8Zm-1.8-9.4,1.6.9-.9,1.5-1.6-.9Zm-1.7,3,1.6.9-.9,1.5-1.6-.9Zm1.1,10.5-1.6.9-.9-1.5,1.6-.9Zm-8.3-8.6,1.5.9-.9,1.5-1.5-.9Zm1.9,7.2,1.6.9-.9,1.5-1.6-.9Zm-5-8.9,1.5.9-.9,1.5-1.5-.9Zm3.1,15.9-.9,1.5-1.6-.9.9-1.5Zm-6.1-17.7,1.5.9-.8,1.5-1.5-.9Zm2.6,23.7-.9,1.5-1.6-.9.9-1.5Zm-5.6-25.4,1.5.9-.9,1.5-1.5-.9Zm2.1,31.5-.9,1.5-1.6-.9.9-1.5Zm-2.6,4.6-1.6-1,.9-1.5,1.6.9Zm2.8,3.7H19.2v-1.8H21Zm.7-9.8-1.6-.9.9-1.5,1.6.9Zm2.8,9.8H22.7v-1.8h1.8Zm.7-15.9-1.6-.9.9-1.5,1.6.9ZM28,70.75H26.2v-1.8H28Zm.7-21.9-1.6-.9.9-1.5,1.6.9Zm2.8,21.9H29.7v-1.8h1.8Zm1-28.6-.3.6-1.6-.9.9-1.5h0l-1.5-.9.9-1.5,1.5.9h0l.9-1.5,1.6.9-.3.6H35v1.8H33.7l.6,1.1-1.6.9ZM35,70.75H33.2v-1.8H35Zm.4-23.6,1.6-.9.9,1.5-1.6.9Zm3.1,23.6H36.7v-1.8h1.8Zm.4-17.5,1.6-.9.9,1.5-1.6.9ZM42,70.75H40.2v-1.8H42Zm.4-11.4,1.6-.9.9,1.5-1.6.9Zm3.1,11.4H43.7v-1.8h1.8Zm.4-5.4,1.6-.9.9,1.5-1.6.9Zm4.9,21.2H49v-1.8h1.8Zm0-3.5H49v-1.8h1.8Zm0-3.6H49v-1.8h1.8Zm0-3.5H49v-1.8h1.8Zm1.7-5.2H50.8v1.7H49v-1.7H47.2v-1.8H48l-.3-.5,1.6-.9.6,1.1.6-1.1,1.6.9-.3.5h.7v1.8Zm.5-3.8-1.6-.9.9-1.5,1.6.9Zm3,3.8H54.2v-1.8H56Zm.5-9.9-1.6-.9.9-1.5,1.6.9Zm3,9.9H57.7v-1.8h1.8Zm.5-16-1.6-.9.9-1.5,1.6.9Zm3,16H61.2v-1.8H63Zm.5-22-1.6-.9.9-1.5,1.6.9Zm3,22H64.7v-1.8h1.8Zm.8-28.6-.3.5-1.6-.9.6-1.1H64.7v-1.8h.6l-.3-.7,1.6-.9.9,1.5,1.5-.9.9,1.5-1.5.9h0l.9,1.5-1.6.9ZM70,70.75H68.2v-1.8H70Zm.3-23.5,1.6-.9.9,1.5-1.6.9Zm3.2,23.5H71.7v-1.8h1.8Zm.3-17.4,1.6-.9.9,1.5-1.6.9Zm3.3,17.4H75.3v-1.8h1.8Zm.2-11.3,1.6-.9.9,1.5-1.6.9Zm3.3,11.3H78.8v-1.8h1.8Zm1.1-3.7-.9-1.5,1.6-.9.9,1.5Z"/><text x="0" y="115" fill="#000000" font-size="5px" font-weight="bold" font-family="'Helvetica Neue', Helvetica, Arial-Unicode, Arial, Sans-serif">Created by DaanDirk</text><text x="0" y="120" fill="#000000" font-size="5px" font-weight="bold" font-family="'Helvetica Neue', Helvetica, Arial-Unicode, Arial, Sans-serif">from the Noun Project</text></svg>