<svg xmlns="http://www.w3.org/2000/svg" xmlns:xlink="http://www.w3.org/1999/xlink" version="1.1" x="0px" y="0px" viewBox="0 0 100 125" style="enable-background:new 0 0 100 100;" xml:space="preserve"><style type="text/css">
	.st0{fill:none;}
</style><g><path d="M14,29.2l36,62.4l36-62.4L14,29.2z M17.2,31l65.7,0L50,87.9L17.2,31z"/><polygon class="st0" points="50,31.3 33.8,59.3 66.2,59.3  "/><path d="M51,29.3l0-19.7l-1.9,0l0,19.7L31.6,59.5l-17,9.8l1,1.7l17-9.8l35,0l16.9,9.8l0.9-1.5l-16.9-9.8L51,29.3z M50,31.3l16.2,28   l-32.3,0L50,31.3z"/><path d="M14,29.2l0,41.6l36,20.8l36-20.8l0-41.6L50,8.4L14,29.2z M84.1,30.3l0,39.4L50,89.4L15.9,69.7l0-39.4L50,10.6L84.1,30.3z"/></g><text x="0" y="115" fill="#000000" font-size="5px" font-weight="bold" font-family="'Helvetica Neue', Helvetica, Arial-Unicode, Arial, Sans-serif">Created by DaanDirk</text><text x="0" y="120" fill="#000000" font-size="5px" font-weight="bold" font-family="'Helvetica Neue', Helvetica, Arial-Unicode, Arial, Sans-serif">from the Noun Project</text></svg>