<svg xmlns="http://www.w3.org/2000/svg" xmlns:xlink="http://www.w3.org/1999/xlink" version="1.1" x="0px" y="0px" viewBox="0 0 100 125" style="enable-background:new 0 0 100 100;" xml:space="preserve"><style type="text/css">
	.st0{fill:none;}
</style><path class="st0" d="M83.4,31.8l0.2-0.3l-0.8-1.3l-0.4,0l0.7-0.4L51.7,11.6l-1.5,0.9L50,12.1l-0.2,0.4l-1.5-0.9L16.8,29.8l0.5,0.3  l-0.9,1.5l-0.5-0.3v36.4l1.5,0.9L17.2,69h0.4l0,1.7L49,88.9l0-0.8l0.2,0.3h1.6L51,88v0.8l31.4-18.2l0-1.7h0.4l-0.2-0.4l1.5-0.9V31.4  L83.4,31.8z M81.2,31l0.9,1.5l-1.5,0.9l-0.9-1.5L81.2,31z M81.6,63.1L80,64l-0.9-1.5l1.6-0.9L81.6,63.1z M78.2,32.7l0.9,1.5  l-1.5,0.9l-0.9-1.5L78.2,32.7z M78.1,57L76.5,58l-0.9-1.5l1.6-0.9L78.1,57z M75.2,34.5L76,36l-1.5,0.9l-0.9-1.5L75.2,34.5z M74.6,51  L73,51.9l-0.9-1.5l1.6-0.9L74.6,51z M72.1,36.2l0.9,1.5l-1.5,0.9l-0.9-1.5L72.1,36.2z M71.1,44.9l-1.6,0.9l-0.9-1.5l1.6-0.9  L71.1,44.9z M65.8,35.8l-1.6,0.9l-0.9-1.5l1.6-0.9L65.8,35.8z M64.6,43.3l1.6,0.9l-0.9,1.5l-1.6-0.9L64.6,43.3z M64.1,32.8l-1.6,0.9  l-0.9-1.5l1.6-0.9L64.1,32.8z M63.1,38.8v1.8h-1.8v-1.8H63.1z M62.3,29.7l-1.6,0.9l-0.9-1.5l1.6-0.9L62.3,29.7z M62.7,50.3l-0.9,1.5  l-1.6-0.9l0.9-1.5L62.7,50.3z M60.6,26.7L59,27.6l-0.9-1.5l1.6-0.9L60.6,26.7z M59.6,38.8v1.8h-1.8v-1.8H59.6z M58.8,23.7l-1.6,0.9  l-0.9-1.5l1.6-0.9L58.8,23.7z M59.2,56.3l-0.9,1.5l-1.6-0.9l0.9-1.5L59.2,56.3z M57.1,20.6l-1.6,0.9L54.6,20l1.6-0.9L57.1,20.6z   M56.1,38.8v1.8h-1.8v-1.8H56.1z M55.3,17.6l-1.6,0.9L52.8,17l1.6-0.9L55.3,17.6z M55.7,62.4l-0.9,1.5L53.3,63l0.9-1.5L55.7,62.4z   M52.7,13l0.9,1.5L52,15.5L51.1,14L52.7,13z M50.9,38.8h1.8v1.8h-1.8V38.8z M47.3,13.1l1.6,0.9L48,15.5l-1.6-0.9L47.3,13.1z   M49.1,38.8v1.8h-1.8v-1.8H49.1z M45.6,16.1l1.6,0.9l-0.9,1.5l-1.6-0.9L45.6,16.1z M45.9,61.5l0.9,1.5l-1.6,0.9l-0.9-1.5L45.9,61.5z   M45.6,40.7h-1.8v-1.8h1.8V40.7z M43.8,19.1l1.6,0.9l-0.9,1.5l-1.6-0.9L43.8,19.1z M42.1,22.2l1.6,0.9l-0.9,1.5l-1.6-0.9L42.1,22.2z   M42.4,55.4l0.9,1.5l-1.6,0.9l-0.9-1.5L42.4,55.4z M42.1,40.7h-1.8v-1.8h1.8V40.7z M40.3,25.2l1.6,0.9L41,27.6l-1.6-0.9L40.3,25.2z   M38.6,28.2l1.6,0.9l-0.9,1.5l-1.6-0.9L38.6,28.2z M38.8,49.4l0.9,1.5l-1.6,0.9l-0.9-1.5L38.8,49.4z M38.6,40.7h-1.8v-1.8h1.8V40.7z   M36.8,31.3l1.6,0.9l-0.9,1.5l-1.6-0.9L36.8,31.3z M35.1,34.3l1.6,0.9l-0.9,1.5l-1.6-0.9L35.1,34.3z M36.2,44.8l-1.6,0.9l-0.9-1.5  l1.6-0.9L36.2,44.8z M27.9,36.2l1.5,0.9l-0.9,1.5L27,37.7L27.9,36.2z M29.8,43.4l1.6,0.9l-0.9,1.5l-1.6-0.9L29.8,43.4z M24.8,34.5  l1.5,0.9l-0.9,1.5L24,36L24.8,34.5z M27.9,50.4L27,51.9L25.4,51l0.9-1.5L27.9,50.4z M21.8,32.7l1.5,0.9l-0.9,1.5l-1.5-0.9L21.8,32.7  z M24.4,56.4L23.5,58L21.9,57l0.9-1.5L24.4,56.4z M18.8,31l1.5,0.9l-0.9,1.5l-1.5-0.9L18.8,31z M20.9,62.5L20,64l-1.6-0.9l0.9-1.5  L20.9,62.5z M18.3,67.1l-1.6-0.9l0.9-1.5l1.6,0.9L18.3,67.1z M21.1,70.8h-1.8V69h1.8V70.8z M21.8,61l-1.6-0.9l0.9-1.5l1.6,0.9  L21.8,61z M24.6,70.8h-1.8V69h1.8V70.8z M25.3,54.9L23.7,54l0.9-1.5l1.6,0.9L25.3,54.9z M28.1,70.8h-1.8V69h1.8V70.8z M28.8,48.9  l-1.6-0.9l0.9-1.5l1.6,0.9L28.8,48.9z M31.6,70.8h-1.8V69h1.8V70.8z M32.3,42.8l-1.6-0.9l0.9-1.5l0,0L30,39.5l0.9-1.5l1.5,0.9h0  l0.9-1.5l1.6,0.9l-0.3,0.6h0.5v1.8h-1.3l0.6,1.1l-1.6,0.9l-0.3-0.5L32.3,42.8z M35.1,70.8h-1.8V69h1.8V70.8z M35.5,47.2l1.6-0.9  l0.9,1.5l-1.6,0.9L35.5,47.2z M38.6,70.8h-1.8v-1.8h1.8V70.8z M39,53.3l1.6-0.9l0.9,1.5l-1.6,0.9L39,53.3z M42.1,70.8h-1.8V69h1.8  V70.8z M42.5,59.4l1.6-0.9L45,60l-1.6,0.9L42.5,59.4z M45.6,70.8h-1.8V69h1.8V70.8z M46,65.4l1.6-0.9l0.9,1.5L46.9,67L46,65.4z   M50.9,86.6h-1.8v-1.8h1.8V86.6z M50.9,83.1h-1.8v-1.8h1.8V83.1z M50.9,79.5h-1.8v-1.8h1.8V79.5z M50.9,76h-1.8v-1.8h1.8V76z   M52.6,70.8h-1.7l0,0v1.7h-1.8v-1.7l0,0h-1.7V69h0.7l-0.3-0.5l1.6-0.9l0.6,1.1l0.6-1.1l1.6,0.9L52,69h0.7V70.8z M53.1,67L51.5,66  l0.9-1.5l1.6,0.9L53.1,67z M56.1,70.8h-1.8V69h1.8V70.8z M56.6,60.9L55,60l0.9-1.5l1.6,0.9L56.6,60.9z M59.6,70.8h-1.8V69h1.8V70.8z   M60.1,54.8l-1.6-0.9l0.9-1.5l1.6,0.9L60.1,54.8z M63.1,70.8h-1.8V69h1.8V70.8z M63.6,48.8L62,47.8l0.9-1.5l1.6,0.9L63.6,48.8z   M66.6,70.8h-1.8V69h1.8V70.8z M67.1,42.7l-1.6-0.9l0.6-1.1h-1.3v-1.8l0.6,0l-0.3-0.6l1.6-0.9l0.9,1.5l1.5-0.9l0.9,1.5l-1.5,0.9l0,0  l0.9,1.5l-1.6,0.9l-0.3-0.6L67.1,42.7z M70.1,70.8h-1.8V69h1.8V70.8z M70.4,47.3l1.6-0.9l0.9,1.5l-1.6,0.9L70.4,47.3z M73.6,70.8  h-1.8V69h1.8V70.8z M73.9,53.4l1.6-0.9l0.9,1.5l-1.6,0.9L73.9,53.4z M77.1,70.8h-1.8V69h1.8V70.8z M77.4,59.5l1.6-0.9l0.9,1.5  L78.2,61L77.4,59.5z M80.6,70.8h-1.8V69h1.8V70.8z M81.7,67.1l-0.9-1.5l1.6-0.9l0.9,1.5L81.7,67.1z"/><rect x="34.1" y="43.6" transform="matrix(-0.5 -0.866 0.866 -0.5 13.9565 97.0637)" width="1.7" height="1.8"/><rect x="36.9" y="38.8" width="1.7" height="1.8"/><rect x="41.1" y="55.8" transform="matrix(-0.866 0.5 -0.5 -0.866 106.6882 84.6996)" width="1.8" height="1.7"/><rect x="35.8" y="46.7" transform="matrix(0.866 -0.5 0.5 0.866 -18.8443 24.739)" width="1.8" height="1.7"/><rect x="37.6" y="49.7" transform="matrix(-0.866 0.5 -0.5 -0.866 97.1016 75.1202)" width="1.8" height="1.7"/><rect x="39.3" y="52.7" transform="matrix(0.866 -0.5 0.5 0.866 -21.4112 27.3078)" width="1.8" height="1.7"/><rect x="54.4" y="38.8" width="1.7" height="1.8"/><rect x="42.8" y="58.8" transform="matrix(0.866 -0.5 0.5 0.866 -23.9731 29.868)" width="1.8" height="1.7"/><rect x="57.9" y="38.8" width="1.7" height="1.8"/><rect x="50.9" y="38.8" width="1.7" height="1.8"/><rect x="43.9" y="38.8" width="1.7" height="1.8"/><rect x="47.4" y="38.8" width="1.7" height="1.8"/><rect x="40.4" y="38.8" width="1.7" height="1.8"/><rect x="62.3" y="46.7" transform="matrix(-0.866 -0.5 0.5 -0.866 94.256 120.3325)" width="1.8" height="1.7"/><rect x="61.4" y="38.8" width="1.7" height="1.8"/><rect x="64.1" y="43.6" transform="matrix(-0.5 0.866 -0.866 -0.5 136.0551 10.4615)" width="1.7" height="1.8"/><polygon points="34.5,41.8 33.8,40.7 35.1,40.7 35.1,38.8 34.6,38.8 34.9,38.2 33.3,37.3 32.4,38.8 32.4,38.8 30.9,38 30,39.5   31.5,40.3 31.5,40.4 30.7,41.9 32.3,42.8 32.6,42.2 32.9,42.7 "/><rect x="44.6" y="61.8" transform="matrix(-0.866 0.5 -0.5 -0.866 116.2432 94.2605)" width="1.8" height="1.7"/><polygon points="52.2,68.5 50.6,67.6 50,68.7 49.4,67.6 47.8,68.5 48.1,69 47.4,69 47.4,70.8 49.1,70.8 49.1,70.8 49.1,72.5   50.9,72.5 50.9,70.8 50.9,70.8 52.6,70.8 52.6,69 52,69 "/><rect x="60.6" y="49.6" transform="matrix(-0.5 0.866 -0.866 -0.5 136.0512 22.585)" width="1.7" height="1.8"/><rect x="53.6" y="61.8" transform="matrix(-0.5 0.866 -0.866 -0.5 136.0434 46.8663)" width="1.7" height="1.8"/><rect x="58.8" y="52.7" transform="matrix(-0.866 -0.5 0.5 -0.866 84.6916 129.8909)" width="1.8" height="1.7"/><rect x="46.3" y="64.9" transform="matrix(0.866 -0.5 0.5 0.866 -26.5387 32.4321)" width="1.8" height="1.7"/><rect x="51.8" y="64.9" transform="matrix(-0.866 -0.5 0.5 -0.866 65.549 149.0485)" width="1.8" height="1.7"/><rect x="55.3" y="58.8" transform="matrix(-0.866 -0.5 0.5 -0.866 75.1271 139.4765)" width="1.8" height="1.7"/><rect x="57.1" y="55.7" transform="matrix(-0.5 0.866 -0.866 -0.5 136.0473 34.7257)" width="1.7" height="1.8"/><rect x="49.1" y="74.3" width="1.7" height="1.7"/><rect x="49.1" y="81.3" width="1.7" height="1.7"/><rect x="49.1" y="84.8" width="1.7" height="1.7"/><rect x="49.1" y="77.8" width="1.7" height="1.7"/><rect x="74" y="34.8" transform="matrix(0.5 0.866 -0.866 0.5 68.2962 -46.9898)" width="1.7" height="1.7"/><rect x="80" y="31.3" transform="matrix(0.5 0.866 -0.866 0.5 68.2977 -53.9877)" width="1.7" height="1.7"/><rect x="70.9" y="36.5" transform="matrix(0.5 0.866 -0.866 0.5 68.2954 -43.4908)" width="1.7" height="1.7"/><rect x="77" y="33" transform="matrix(0.5 0.866 -0.866 0.5 68.2969 -50.4888)" width="1.7" height="1.7"/><rect x="24.3" y="34.8" transform="matrix(0.866 0.5 -0.5 0.866 21.1984 -7.8047)" width="1.7" height="1.7"/><rect x="27.3" y="36.5" transform="matrix(0.866 0.5 -0.5 0.866 22.4798 -9.0889)" width="1.7" height="1.7"/><rect x="21.3" y="33" transform="matrix(0.866 0.5 -0.5 0.866 19.9133 -6.5241)" width="1.7" height="1.7"/><rect x="18.2" y="31.3" transform="matrix(0.866 0.5 -0.5 0.866 18.6355 -5.2435)" width="1.7" height="1.7"/><rect x="19.3" y="69" width="1.7" height="1.8"/><rect x="26.3" y="69" width="1.7" height="1.8"/><rect x="22.8" y="69" width="1.7" height="1.8"/><rect x="17" y="65" transform="matrix(-0.866 -0.5 0.5 -0.866 0.4696 131.8162)" width="1.8" height="1.7"/><rect x="18.8" y="61.9" transform="matrix(-0.5 0.866 -0.866 -0.5 83.8769 77.2003)" width="1.7" height="1.8"/><rect x="22.3" y="55.8" transform="matrix(-0.5 0.866 -0.866 -0.5 83.8635 65.0597)" width="1.7" height="1.8"/><rect x="20.5" y="58.9" transform="matrix(-0.866 -0.5 0.5 -0.866 10.0479 122.2442)" width="1.8" height="1.7"/><rect x="29.9" y="69" width="1.7" height="1.8"/><rect x="43.9" y="69" width="1.7" height="1.8"/><rect x="40.4" y="69" width="1.7" height="1.8"/><rect x="36.9" y="68.9" width="1.7" height="1.8"/><rect x="33.4" y="69" width="1.7" height="1.8"/><rect x="43.3" y="19.5" transform="matrix(0.866 0.5 -0.5 0.866 16.0862 -19.3619)" width="1.8" height="1.7"/><rect x="41.5" y="22.5" transform="matrix(0.866 0.5 -0.5 0.866 17.3705 -18.0805)" width="1.8" height="1.7"/><rect x="25.7" y="49.8" transform="matrix(-0.866 -0.5 0.5 -0.866 24.3946 107.893)" width="1.8" height="1.7"/><rect x="39.7" y="25.5" transform="matrix(0.866 0.5 -0.5 0.866 18.651 -16.7953)" width="1.8" height="1.7"/><rect x="46.8" y="13.4" transform="matrix(0.866 0.5 -0.5 0.866 13.525 -21.9248)" width="1.8" height="1.7"/><rect x="45" y="16.4" transform="matrix(0.866 0.5 -0.5 0.866 14.8019 -20.6433)" width="1.8" height="1.7"/><rect x="38" y="28.6" transform="matrix(0.866 0.5 -0.5 0.866 19.9354 -15.514)" width="1.8" height="1.7"/><rect x="29.3" y="43.7" transform="matrix(-0.5 0.866 -0.866 -0.5 83.8712 40.7954)" width="1.7" height="1.8"/><rect x="27.5" y="46.8" transform="matrix(-0.866 -0.5 0.5 -0.866 29.1903 103.1138)" width="1.8" height="1.7"/><rect x="34.5" y="34.6" transform="matrix(0.866 0.5 -0.5 0.866 22.5003 -12.9475)" width="1.8" height="1.7"/><rect x="36.2" y="31.6" transform="matrix(0.866 0.5 -0.5 0.866 21.2159 -14.2289)" width="1.8" height="1.7"/><rect x="24" y="52.8" transform="matrix(-0.866 -0.5 0.5 -0.866 19.6122 112.6858)" width="1.8" height="1.7"/><rect x="54.4" y="69" width="1.7" height="1.8"/><rect x="58.4" y="25.5" transform="matrix(-0.866 0.5 -0.5 -0.866 123.924 19.5964)" width="1.8" height="1.7"/><rect x="60.2" y="28.6" transform="matrix(-0.866 0.5 -0.5 -0.866 128.7169 24.3903)" width="1.8" height="1.7"/><rect x="61.9" y="31.6" transform="matrix(-0.866 0.5 -0.5 -0.866 133.4912 29.179)" width="1.8" height="1.7"/><rect x="68.9" y="43.7" transform="matrix(-0.866 0.5 -0.5 -0.866 152.643 48.3068)" width="1.8" height="1.7"/><polygon points="69.3,41.9 68.5,40.4 68.5,40.3 70,39.5 69.1,38 67.6,38.8 66.7,37.3 65.1,38.2 65.5,38.8 64.9,38.8 64.9,40.7   66.1,40.7 65.5,41.8 67.1,42.7 67.4,42.2 67.7,42.8 "/><rect x="51.5" y="13.3" transform="matrix(0.5 0.866 -0.866 0.5 38.5208 -38.1872)" width="1.7" height="1.8"/><rect x="70.7" y="46.8" transform="matrix(0.866 -0.5 0.5 0.866 -14.2272 42.1883)" width="1.8" height="1.7"/><rect x="56.7" y="22.5" transform="matrix(-0.866 0.5 -0.5 -0.866 119.1497 14.808)" width="1.8" height="1.7"/><rect x="53.2" y="16.4" transform="matrix(-0.866 0.5 -0.5 -0.866 109.5739 5.2578)" width="1.8" height="1.7"/><rect x="54.9" y="19.5" transform="matrix(-0.866 0.5 -0.5 -0.866 114.3618 10.0331)" width="1.8" height="1.7"/><rect x="63.7" y="34.6" transform="matrix(-0.866 0.5 -0.5 -0.866 138.2792 33.9539)" width="1.8" height="1.7"/><rect x="64.9" y="69" width="1.7" height="1.8"/><rect x="75.4" y="69" width="1.7" height="1.8"/><rect x="71.9" y="69" width="1.7" height="1.8"/><rect x="68.4" y="69" width="1.7" height="1.8"/><rect x="57.9" y="69" width="1.7" height="1.8"/><rect x="61.4" y="69" width="1.7" height="1.8"/><rect x="78.9" y="69" width="1.7" height="1.8"/><rect x="72.5" y="49.8" transform="matrix(-0.5 -0.866 0.866 -0.5 66.1372 139.5381)" width="1.7" height="1.8"/><rect x="74.2" y="52.8" transform="matrix(0.866 -0.5 0.5 0.866 -16.7912 44.7482)" width="1.8" height="1.7"/><rect x="77.7" y="58.9" transform="matrix(0.866 -0.5 0.5 0.866 -19.3576 47.314)" width="1.8" height="1.7"/><rect x="76" y="55.8" transform="matrix(-0.5 -0.866 0.866 -0.5 66.1362 151.6809)" width="1.7" height="1.8"/><rect x="79.4" y="61.9" transform="matrix(-0.866 0.5 -0.5 -0.866 181.362 77.0167)" width="1.8" height="1.7"/><rect x="81.2" y="64.9" transform="matrix(-0.5 -0.866 0.866 -0.5 66.1362 169.883)" width="1.7" height="1.8"/><path d="M50,8.4L14,29.2v41.6l36,20.8l36-20.8V29.2L50,8.4z M82.6,68.6l0.2,0.4h-0.4l0,1.7L51,88.9V88l-0.2,0.3h-1.6L49,88l0,0.8  L17.6,70.7l0-1.7h-0.4l0.2-0.4l-1.5-0.9V31.3l0.5,0.3l0.9-1.5l-0.5-0.3l31.5-18.2l1.5,0.9l0.2-0.4l0.2,0.4l1.5-0.9l31.4,18.2  l-0.7,0.4l0.4,0l0.8,1.3l-0.2,0.3l0.7-0.4v36.3L82.6,68.6z"/><text x="0" y="115" fill="#000000" font-size="5px" font-weight="bold" font-family="'Helvetica Neue', Helvetica, Arial-Unicode, Arial, Sans-serif">Created by DaanDirk</text><text x="0" y="120" fill="#000000" font-size="5px" font-weight="bold" font-family="'Helvetica Neue', Helvetica, Arial-Unicode, Arial, Sans-serif">from the Noun Project</text></svg>