<svg xmlns="http://www.w3.org/2000/svg" xmlns:xlink="http://www.w3.org/1999/xlink" version="1.1" x="0px" y="0px" viewBox="0 0 100 125" style="enable-background:new 0 0 100 100;" xml:space="preserve"><path d="M84,31.3l-0.7,0.4l0.2-0.3l-0.8-1.4h-0.4l0.7-0.4L51.6,11.5l-1.5,0.9L49.9,12l-0.2,0.4l-1.5-0.9L16.7,29.7l0.5,0.3l-0.9,1.5  l-0.5-0.3v36.4l1.5,0.9l-0.2,0.4h0.4l0,1.7l31.5,18.2v-0.8l0.2,0.3h1.6l0.2-0.3v0.8l31.5-18.2l0-1.7h0.4l-0.2-0.4l1.5-0.9V31.3z   M81.1,30.9l0.9,1.5l-1.5,0.9l-0.9-1.5L81.1,30.9z M81.5,63l-1.6,0.9L79,62.4l1.6-0.9L81.5,63z M78.1,32.6l0.9,1.5L77.5,35l-0.9-1.5  L78.1,32.6z M78,57l-1.6,0.9l-0.9-1.5l1.6-0.9L78,57z M75.1,34.4l0.9,1.5l-1.5,0.9l-0.9-1.5L75.1,34.4z M74.5,50.9l-1.6,0.9L72,50.3  l1.6-0.9L74.5,50.9z M72,36.1l0.9,1.5l-1.5,0.9L70.5,37L72,36.1z M71,44.8l-1.6,0.9l-0.9-1.5l1.6-0.9L71,44.8z M65.7,35.7l-1.6,0.9  l-0.9-1.5l1.6-0.9L65.7,35.7z M64.6,43.2l1.6,0.9l-0.9,1.5l-1.6-0.9L64.6,43.2z M64,32.7l-1.6,0.9l-0.9-1.5l1.6-0.9L64,32.7z   M63,38.7v1.8h-1.8v-1.8H63z M62.2,29.6l-1.6,0.9L59.8,29l1.6-0.9L62.2,29.6z M62.6,50.2l-0.9,1.5l-1.6-0.9l0.9-1.5L62.6,50.2z   M60.5,26.6l-1.6,0.9L58,26l1.6-0.9L60.5,26.6z M59.5,38.7v1.8h-1.8v-1.8H59.5z M58.7,23.6l-1.6,0.9L56.3,23l1.6-0.9L58.7,23.6z   M59.1,56.2l-0.9,1.5l-1.6-0.9l0.9-1.5L59.1,56.2z M57,20.5l-1.6,0.9l-0.9-1.5l1.6-0.9L57,20.5z M56,38.7v1.8h-1.8v-1.8H56z   M55.2,17.5l-1.6,0.9l-0.9-1.5l1.6-0.9L55.2,17.5z M55.6,62.3l-0.9,1.5l-1.6-0.9l0.9-1.5L55.6,62.3z M52.6,12.9l0.9,1.5l-1.6,0.9  L51,13.9L52.6,12.9z M50.8,38.7h1.8v1.8h-1.8V38.7z M47.2,13l1.6,0.9l-0.9,1.5l-1.6-0.9L47.2,13z M49,38.7v1.8h-1.8v-1.8H49z   M45.5,16l1.6,0.9l-0.9,1.5l-1.6-0.9L45.5,16z M45.8,61.4l0.9,1.5L45,63.8l-0.9-1.5L45.8,61.4z M45.5,40.6h-1.8v-1.8h1.8V40.6z   M43.7,19l1.6,0.9l-0.9,1.5l-1.6-0.9L43.7,19z M42,22l1.6,0.9l-0.9,1.5l-1.6-0.9L42,22z M42.3,55.3l0.9,1.5l-1.6,0.9l-0.9-1.5  L42.3,55.3z M42,40.6h-1.8v-1.8H42V40.6z M40.2,25.1l1.6,0.9l-0.9,1.5l-1.6-0.9L40.2,25.1z M38.5,28.1l1.6,0.9l-0.9,1.5l-1.6-0.9  L38.5,28.1z M38.8,49.3l0.9,1.5L38,51.7l-0.9-1.5L38.8,49.3z M38.5,40.6h-1.8v-1.8h1.8V40.6z M36.7,31.2l1.6,0.9l-0.9,1.5l-1.6-0.9  L36.7,31.2z M35,34.2l1.6,0.9l-0.9,1.5l-1.6-0.9L35,34.2z M36.1,44.7l-1.6,0.9l-0.9-1.5l1.6-0.9L36.1,44.7z M27.8,36.1l1.5,0.9  l-0.9,1.5l-1.5-0.9L27.8,36.1z M29.7,43.3l1.6,0.9l-0.9,1.5l-1.6-0.9L29.7,43.3z M24.7,34.4l1.5,0.9l-0.9,1.5l-1.5-0.9L24.7,34.4z   M27.8,50.3l-0.9,1.5l-1.6-0.9l0.9-1.5L27.8,50.3z M21.7,32.6l1.5,0.9L22.4,35l-1.5-0.9L21.7,32.6z M24.3,56.3l-0.9,1.5l-1.6-0.9  l0.9-1.5L24.3,56.3z M18.7,30.9l1.5,0.9l-0.9,1.5l-1.5-0.9L18.7,30.9z M20.8,62.4l-0.9,1.5L18.3,63l0.9-1.5L20.8,62.4z M18.2,67  L16.6,66l0.9-1.5l1.6,0.9L18.2,67z M21,70.7h-1.8v-1.8H21V70.7z M21.7,60.9L20.1,60l0.9-1.5l1.6,0.9L21.7,60.9z M24.5,70.7h-1.8  v-1.8h1.8V70.7z M25.2,54.8l-1.6-0.9l0.9-1.5l1.6,0.9L25.2,54.8z M28,70.7h-1.8v-1.8H28V70.7z M28.7,48.8l-1.6-0.9l0.9-1.5l1.6,0.9  L28.7,48.8z M31.5,70.7h-1.8v-1.8h1.8V70.7z M32.5,42.1l-0.3,0.6l-1.6-0.9l0.9-1.5l0,0l-1.5-0.9l0.9-1.5l1.5,0.9h0l0.9-1.5l1.6,0.9  l-0.3,0.6H35v1.8h-1.3l0.6,1.1l-1.6,0.9L32.5,42.1z M35,70.7h-1.8v-1.8H35V70.7z M35.4,47.1l1.6-0.9l0.9,1.5l-1.6,0.9L35.4,47.1z   M38.5,70.7h-1.8v-1.8h1.8V70.7z M38.9,53.2l1.6-0.9l0.9,1.5l-1.6,0.9L38.9,53.2z M42,70.7h-1.8v-1.8H42V70.7z M42.4,59.3l1.6-0.9  l0.9,1.5l-1.6,0.9L42.4,59.3z M45.5,70.7h-1.8v-1.8h1.8V70.7z M45.9,65.3l1.6-0.9l0.9,1.5l-1.6,0.9L45.9,65.3z M50.8,86.5H49v-1.8  h1.8V86.5z M50.8,83H49v-1.8h1.8V83z M50.8,79.4H49v-1.8h1.8V79.4z M50.8,75.9H49v-1.8h1.8V75.9z M52.5,70.7h-1.7l0,0v1.7H49v-1.7  l0,0h-1.8v-1.8H48l-0.3-0.5l1.6-0.9l0.6,1.1l0.6-1.1l1.6,0.9l-0.3,0.5h0.7L52.5,70.7L52.5,70.7z M53,66.9l-1.6-0.9l0.9-1.5l1.6,0.9  L53,66.9z M56,70.7h-1.8v-1.8H56V70.7z M56.5,60.8l-1.6-0.9l0.9-1.5l1.6,0.9L56.5,60.8z M59.5,70.7h-1.8v-1.8h1.8V70.7z M60,54.7  l-1.6-0.9l0.9-1.5l1.6,0.9L60,54.7z M63,70.7h-1.8v-1.8H63V70.7z M63.5,48.7l-1.6-0.9l0.9-1.5l1.6,0.9L63.5,48.7z M66.5,70.7h-1.8  v-1.8h1.8V70.7z M67.3,42.1L67,42.6l-1.6-0.9l0.6-1.1h-1.3v-1.8h0.6L65,38.1l1.6-0.9l0.9,1.5l1.5-0.9l0.9,1.5l-1.5,0.9l0,0l0.9,1.5  l-1.6,0.9L67.3,42.1z M70,70.7h-1.8v-1.8H70V70.7z M70.3,47.2l1.6-0.9l0.9,1.5l-1.6,0.9L70.3,47.2z M73.5,70.7h-1.8v-1.8h1.8V70.7z   M73.8,53.3l1.6-0.9l0.9,1.5l-1.6,0.9L73.8,53.3z M77.1,70.7h-1.8v-1.8h1.8V70.7z M77.3,59.4l1.6-0.9l0.9,1.5l-1.6,0.9L77.3,59.4z   M80.6,70.7h-1.8v-1.8h1.8V70.7z M81.7,67l-0.9-1.5l1.6-0.9l0.9,1.5L81.7,67z"/><path d="M50,6.1L12,28v43.9l38,21.9l38-21.9V28L50,6.1z M86,70.8L50,91.6L14,70.8V29.2L50,8.4l36,20.8V70.8z"/><text x="0" y="115" fill="#000000" font-size="5px" font-weight="bold" font-family="'Helvetica Neue', Helvetica, Arial-Unicode, Arial, Sans-serif">Created by DaanDirk</text><text x="0" y="120" fill="#000000" font-size="5px" font-weight="bold" font-family="'Helvetica Neue', Helvetica, Arial-Unicode, Arial, Sans-serif">from the Noun Project</text></svg>