<svg xmlns="http://www.w3.org/2000/svg" viewBox="0 0 100 125" x="0px" y="0px"><title>psp </title><path d="M82.7,30.9,67.3,57.7,51.9,30.9ZM65.4,61.1H34.5L49.9,87.8Zm-14.5-32H82.1l-31.2-18ZM17.1,30.9,32.5,57.7,48,30.9Zm32.8.3-16.2,28H66.1ZM68.4,59.5v.1l15.6,9V32.4Zm-36,1.6L16.7,70.2,48,88.2Zm35.1,0h0L51.8,88.2,83.2,70.1ZM31.4,59.5,15.8,32.4V68.5ZM48.9,29.1V11L17.7,29.1Z"/><text x="0" y="115" fill="#000000" font-size="5px" font-weight="bold" font-family="'Helvetica Neue', Helvetica, Arial-Unicode, Arial, Sans-serif">Created by DaanDirk</text><text x="0" y="120" fill="#000000" font-size="5px" font-weight="bold" font-family="'Helvetica Neue', Helvetica, Arial-Unicode, Arial, Sans-serif">from the Noun Project</text></svg>