<svg xmlns="http://www.w3.org/2000/svg" xmlns:xlink="http://www.w3.org/1999/xlink" version="1.1" x="0px" y="0px" viewBox="0 0 100 125" style="enable-background:new 0 0 100 100;" xml:space="preserve"><path d="M36.8,30.8L36.8,30.8L36.7,29h1.1L48,11.4L17.3,29.1V30l14.9,8.6L36.8,30.8z M33.2,29h1.8v1.9h-1.8V29z M20.9,30.8h-1.8V29  h1.8V30.8z M24.4,30.8h-1.8V29h1.8V30.8z M27.9,30.8h-1.8V29h1.8V30.8z M31.4,30.8h-1.8V29h1.8V30.8z"/><polygon points="49.9,11.8 49.1,13.2 50.7,13.2 "/><path d="M34.4,38.7h31L50.8,13.3v1.6H49v-1.6L34.4,38.7z M49,20.2h1.8V22H49V20.2z M49,23.7h1.8v1.8H49V23.7z M42,30.8h-1.8V29H42  V30.8z M43.7,29h1.8v1.9h-1.8V29z M45.7,38.4l-1.6-0.9l0.9-1.5l1.6,0.9L45.7,38.4z M47.5,35.3l-1.6-0.9l0.9-1.5l1.6,0.9L47.5,35.3z   M54.1,38.3l-0.9-1.5l1.6-0.9l0.9,1.5L54.1,38.3z M57.8,29h1.8v1.9h-1.8V29z M54.3,29h1.8v1.9h-1.8V29z M53.9,34.4l-1.6,0.9  l-0.9-1.5l1.6-0.9L53.9,34.4z M50.8,29h1.8v1.9h-0.7l0.3,0.5l-1.6,0.9l-0.6-1.1l-0.6,1.1l-1.6-0.9l0.3-0.5h-0.7V29H49l0,0v-1.7h1.8  L50.8,29L50.8,29z M50.8,16.7v1.8H49v-1.8H50.8z"/><path d="M47.9,68.9L32.4,42.1L17.8,67.4l1.4-0.8l0.9,1.5l-1.4,0.8H47.9z M34,64.2l1.6-0.9l0.9,1.5l-1.6,0.9L34,64.2z M36.6,68.7  l-0.9-1.5l1.6-0.9l0.9,1.5L36.6,68.7z M40.2,59.3H42v1.8h-1.8V59.3z M38.5,61.1h-1.8v-1.8h1.8V61.1z M36.2,51.1l1.6,0.9l-0.9,1.5  l-1.6-0.9L36.2,51.1z M34.5,54.2l1.6,0.9l-0.9,1.5l-1.6-0.9L34.5,54.2z M32.4,57.7l0.3-0.5l1.6,0.9l-0.6,1.1h1.3v1.8h-0.6l0.3,0.6  l-1.6,0.9l-0.9-1.5h0L30.7,62l-0.9-1.5l1.5-0.9l0,0l-0.9-1.5l1.6-0.9L32.4,57.7z M31.2,55.6l-1.6,0.9L28.7,55l1.6-0.9L31.2,55.6z   M28.6,51l0.9,1.5l-1.6,0.9L27,52L28.6,51z M28.3,61.3l0.9,1.5l-1.5,0.9l-0.9-1.5L28.3,61.3z M25.3,63.1l0.9,1.5l-1.5,0.9L23.7,64  L25.3,63.1z M22.2,64.9l0.9,1.5l-1.5,0.9l-0.9-1.5L22.2,64.9z"/><polygon points="17.7,67.6 16.9,68.9 18.5,68.9 "/><polygon points="81.3,68.9 82.9,68.9 82.1,67.6 "/><path d="M54.3,59.3h1l5.4-9.4L60.2,49l1.5-0.9l4.4-7.6h-8.8l-1.5,0.9l-0.5-0.9H44.5L44,41.4l-1.5-0.9h-8.8l4.4,7.6l1.5,0.9l-0.5,0.9  l5.4,9.4h1V61l4.4,7.6l4.4-7.6V59.3z M60.9,46.6l-1.6,0.9L58.5,46l1.6-0.9L60.9,46.6z M58.3,42l0.9,1.5l-1.6,0.9l-0.9-1.5L58.3,42z   M40.5,47.5l-1.6-0.9l0.9-1.5l1.6,0.9L40.5,47.5z M42.2,44.4l-1.6-0.9l0.9-1.5l1.6,0.9L42.2,44.4z M49,61.1h-1.8v-1.8H49V61.1z   M52.5,61.1h-1.8v-1.8h1.8V61.1z"/><path d="M61.4,71.8l-1.6-0.9l0-0.1h-9l0,0V88l0.9,0.5l30.7-17.7H62L61.4,71.8z M52.6,87L51,86.1l0.9-1.5l1.6,0.9L52.6,87z M54.4,84  l-1.6-0.9l0.9-1.5l1.6,0.9L54.4,84z M56.1,80.9L54.5,80l0.9-1.5l1.6,0.9L56.1,80.9z M57.9,77.9l-1.6-0.9l0.9-1.5l1.6,0.9L57.9,77.9z   M59.6,74.8L58,73.9l0.9-1.5l1.6,0.9L59.6,74.8z"/><path d="M82,67.4L67.4,42.1L51.9,68.9h29.3l-1.4-0.8l0.9-1.5L82,67.4z M71.2,51l1.6,0.9L72,53.5l-1.6-0.9L71.2,51z M66.2,55.7  l-1.6,0.9l-0.9-1.5l1.6-0.9L66.2,55.7z M63.6,51.1l0.9,1.5l-1.6,0.9L62,52.1L63.6,51.1z M59.6,61.1h-1.8v-1.8h1.8V61.1z M61.3,59.3  h1.8v1.8h-1.8V59.3z M63.2,68.7l-1.6-0.9l0.9-1.5l1.6,0.9L63.2,68.7z M64.9,65.7l-1.6-0.9l0.9-1.5l1.6,0.9L64.9,65.7z M69.1,62  l-1.5-0.9h0l-0.9,1.5l-1.6-0.9l0.3-0.6h-0.6v-1.8h1.3l-0.6-1.1l1.6-0.9l0.3,0.5l0.3-0.6l1.6,0.9l-0.9,1.5l0,0l1.5,0.9L69.1,62z   M68.6,55.6l0.9-1.5l1.6,0.9l-0.9,1.5L68.6,55.6z M72.1,63.8l-1.5-0.9l0.9-1.5l1.5,0.9L72.1,63.8z M75.2,65.5l-1.5-0.9l0.9-1.5  l1.5,0.9L75.2,65.5z M78.2,67.3l-1.5-0.9l0.9-1.5l1.5,0.9L78.2,67.3z"/><path d="M25.2,48.9l1.6-0.9l0,0.1l4.5-7.8l-15-8.6l-0.8,0.4v35.4l10.2-17.6L25.2,48.9z M16.4,33.7l1.6-0.9l0.9,1.5l-1.6,0.9  L16.4,33.7z M18.2,36.7l1.6-0.9l0.9,1.5L19,38.2L18.2,36.7z M19.9,39.8l1.6-0.9l0.9,1.5l-1.6,0.9L19.9,39.8z M21.7,42.8l1.6-0.9  l0.9,1.5l-1.6,0.9L21.7,42.8z M23.4,45.9l1.6-0.9l0.9,1.5l-1.6,0.9L23.4,45.9z"/><path d="M73,48L73,48l1.6,0.9l-0.6,1l10.2,17.6V32.1l-0.8-0.4l-15,8.6L73,48z M81.8,32.8l1.6,0.9l-0.9,1.5l-1.6-0.9L81.8,32.8z   M80,35.8l1.6,0.9l-0.9,1.5l-1.6-0.9L80,35.8z M78.3,38.8l1.6,0.9L79,41.3l-1.6-0.9L78.3,38.8z M76.5,41.9l1.6,0.9l-0.9,1.5  l-1.6-0.9L76.5,41.9z M74.8,44.9l1.6,0.9l-0.9,1.5l-1.6-0.9L74.8,44.9z"/><path d="M40,70.8L40,70.8l-1.6,1l-0.6-1H17.5l30.7,17.7L49,88V70.8l0,0H40z M39.3,73.3l1.6-0.9l0.9,1.5l-1.6,0.9L39.3,73.3z   M41,76.3l1.6-0.9l0.9,1.5l-1.6,0.9L41,76.3z M42.8,79.4l1.6-0.9l0.9,1.5l-1.6,0.9L42.8,79.4z M44.6,82.4l1.6-0.9L47,83L45.4,84  L44.6,82.4z M47.2,87l-0.9-1.5l1.6-0.9l0.9,1.5L47.2,87z"/><path d="M63.1,29v1.9H63l4.5,7.8L82.5,30v-0.9L51.8,11.4L62,29H63.1z M78.9,29h1.8v1.9h-1.8V29z M75.4,29h1.8v1.9h-1.8V29z M71.9,29  h1.8v1.9h-1.8V29z M68.4,29h1.8v1.9h-1.8V29z M64.9,29h1.8v1.9h-1.8V29z"/><path d="M50,6.1L12,28v43.9l38,21.9l38-21.9V28L50,6.1z M14,29.2L50,8.4l36,20.8v41.6L50,91.6L14,70.8V29.2z"/><text x="0" y="115" fill="#000000" font-size="5px" font-weight="bold" font-family="'Helvetica Neue', Helvetica, Arial-Unicode, Arial, Sans-serif">Created by DaanDirk</text><text x="0" y="120" fill="#000000" font-size="5px" font-weight="bold" font-family="'Helvetica Neue', Helvetica, Arial-Unicode, Arial, Sans-serif">from the Noun Project</text></svg>