<svg xmlns="http://www.w3.org/2000/svg" viewBox="0 0 100 125" x="0px" y="0px"><title>psp </title><path d="M36.8,30.85h0l-.1-1.8h1.1L48,11.45,17.3,29.15v.9l14.9,8.6Zm-3.6-1.8H35v1.9H33.2Zm-12.3,1.8H19.1v-1.8h1.8Zm3.5,0H22.6v-1.8h1.8Zm3.5,0H26.1v-1.8h1.8Zm3.5,0H29.6v-1.8h1.8Zm19.3-17.6H49.1l.8-1.4ZM34.4,38.75h31L50.8,13.35v1.6H49v-1.6ZM49,20.25h1.8v1.8H49Zm0,3.5h1.8v1.8H49Zm-7,7.1H40.2v-1.8H42Zm1.7-1.8h1.8v1.9H43.7Zm2,9.4-1.6-.9.9-1.5,1.6.9Zm1.8-3.1-1.6-.9.9-1.5,1.6.9Zm6.6,3-.9-1.5,1.6-.9.9,1.5Zm3.7-9.3h1.8v1.9H57.8Zm-3.5,0h1.8v1.9H54.3Zm-.4,5.4-1.6.9-.9-1.5,1.6-.9Zm-3.1-5.4h1.8v1.9h-.7l.3.5-1.6.9-.6-1.1-.6,1.1-1.6-.9.3-.5h-.7v-1.9H49v-1.7h1.8v1.7Zm0-12.3v1.8H49v-1.8Zm-2.9,52.2L32.4,42.15,17.8,67.45l1.4-.8.9,1.5-1.4.8ZM34,64.25l1.6-.9.9,1.5-1.6.9Zm2.6,4.5-.9-1.5,1.6-.9.9,1.5Zm3.6-9.4H42v1.8H40.2Zm-1.7,1.8H36.7v-1.8h1.8Zm-2.3-10,1.6.9-.9,1.5-1.6-.9Zm-1.7,3.1,1.6.9-.9,1.5-1.6-.9Zm-2.1,3.5.3-.5,1.6.9-.6,1.1H35v1.8h-.6l.3.6-1.6.9-.9-1.5h0l-1.5,1-.9-1.5,1.5-.9h0l-.9-1.5,1.6-.9Zm-1.2-2.1-1.6.9-.9-1.5,1.6-.9Zm-2.6-4.6.9,1.5-1.6.9-.9-1.4Zm-.3,10.3.9,1.5-1.5.9-.9-1.5Zm-3,1.8.9,1.5-1.5.9-1-1.5Zm-3.1,1.8.9,1.5-1.5.9-.9-1.5Zm-3.7,4H16.9l.8-1.3Zm63.6-1.3.8,1.3H81.3Zm-27.8-8.3h1l5.4-9.4-.5-.9,1.5-.9,4.4-7.6H57.3l-1.5.9-.5-.9H44.5l-.5.9-1.5-.9H33.7l4.4,7.6,1.5.9-.5.9,5.4,9.4h1v1.7l4.4,7.6,4.4-7.6Zm6.6-12.7-1.6.9-.8-1.5,1.6-.9Zm-2.6-4.6.9,1.5-1.6.9-.9-1.5Zm-17.8,5.5-1.6-.9.9-1.5,1.6.9Zm1.7-3.1-1.6-.9.9-1.5,1.6.9ZM49,61.15H47.2v-1.8H49Zm3.5,0H50.7v-1.8h1.8Zm8.9,10.7-1.6-.9v-.1h-9v17.2l.9.5,30.7-17.7H62Zm-8.8,15.2-1.6-.9.9-1.5,1.6.9Zm1.8-3-1.6-.9.9-1.5,1.6.9Zm1.7-3.1-1.6-.9.9-1.5,1.6.9Zm1.8-3-1.6-.9.9-1.5,1.6.9Zm1.7-3.1-1.6-.9.9-1.5,1.6.9ZM82,67.45,67.4,42.15,51.9,68.95H81.2l-1.4-.8.9-1.5ZM71.2,51.05l1.6.9-.8,1.6-1.6-.9Zm-5,4.7-1.6.9-.9-1.5,1.6-.9Zm-2.6-4.6.9,1.5-1.6.9-.9-1.4Zm-4,10H57.8v-1.8h1.8Zm1.7-1.8h1.8v1.8H61.3Zm1.9,9.4-1.6-.9.9-1.5,1.6.9Zm1.7-3-1.6-.9.9-1.5,1.6.9Zm4.2-3.7-1.5-.9h0l-.9,1.5-1.6-.9.3-.6h-.6v-1.8h1.3l-.6-1.1,1.6-.9.3.5.3-.6,1.6.9-.9,1.5h0l1.5.9Zm-.5-6.4.9-1.5,1.6.9-.9,1.5Zm3.5,8.2-1.5-.9.9-1.5,1.5.9Zm3.1,1.7-1.5-.9.9-1.5,1.5.9Zm3,1.8-1.5-.9.9-1.5,1.5.9Zm-53-18.4,1.6-.9v.1l4.5-7.8-15-8.6-.8.4v35.4l10.2-17.6Zm-8.8-15.2,1.6-.9.9,1.5-1.6.9Zm1.8,3,1.6-.9.9,1.5-1.7.9Zm1.7,3.1,1.6-.9.9,1.5-1.6.9Zm1.8,3,1.6-.9.9,1.5-1.6.9Zm1.7,3.1,1.6-.9.9,1.5-1.6.9ZM73,48.05h0l1.6.9-.6,1,10.2,17.6V32.15l-.8-.4-15,8.6Zm8.8-15.2,1.6.9-.9,1.5-1.6-.9Zm-1.8,3,1.6.9-.9,1.5-1.6-.9Zm-1.7,3,1.6.9-.9,1.6-1.6-.9Zm-1.8,3.1,1.6.9-.9,1.5-1.6-.9Zm-1.7,3,1.6.9-.9,1.5-1.6-.9ZM40,70.85h0l-1.6,1-.6-1H17.5l30.7,17.7.8-.5V70.85H40Zm-.7,2.5,1.6-.9.9,1.5-1.6.9Zm1.7,3,1.6-.9.9,1.5-1.6.9Zm1.8,3.1,1.6-.9.9,1.5-1.6.9Zm1.8,3,1.6-.9.8,1.5-1.6,1Zm2.6,4.6-.9-1.5,1.6-.9.9,1.5Zm15.9-58v1.9H63l4.5,7.8,15-8.7v-.9L51.8,11.45,62,29.05Zm15.8,0h1.8v1.9H78.9Zm-3.5,0h1.8v1.9H75.4Zm-3.5,0h1.8v1.9H71.9Zm-3.5,0h1.8v1.9H68.4Zm-3.5,0h1.8v1.9H64.9Z"/><text x="0" y="115" fill="#000000" font-size="5px" font-weight="bold" font-family="'Helvetica Neue', Helvetica, Arial-Unicode, Arial, Sans-serif">Created by DaanDirk</text><text x="0" y="120" fill="#000000" font-size="5px" font-weight="bold" font-family="'Helvetica Neue', Helvetica, Arial-Unicode, Arial, Sans-serif">from the Noun Project</text></svg>