<svg xmlns="http://www.w3.org/2000/svg" xmlns:xlink="http://www.w3.org/1999/xlink" preserveAspectRatio="xMidYMid" viewBox="0 0 100 125" x="0px" y="0px"><defs><style>
      .cls-1 {
        fill: #000;
        fill-rule: evenodd;
      }
    </style></defs><g><path d="M91.011,74.495 L50.500,97.866 L50.000,98.094 L49.500,97.866 L8.995,74.485 L9.000,26.844 L10.000,26.276 L49.545,3.822 L50.500,3.280 L51.455,3.822 L91.000,26.276 L91.011,74.495 ZM50.500,5.567 L11.007,27.991 L11.000,27.980 L11.000,73.329 L50.000,95.845 L89.000,73.329 L89.000,27.427 L50.500,5.567 Z" class="cls-1"/><path d="M52.043,4.788 L70.609,36.946 L89.346,26.129 L90.241,27.922 L71.609,38.679 L90.938,72.156 L90.932,74.000 L51.000,74.000 L51.000,97.000 L49.000,97.000 L49.000,74.000 L8.995,74.000 L8.995,72.273 L9.152,72.000 L28.391,38.679 L9.420,27.726 L10.695,26.152 L29.391,36.946 L47.979,4.751 L52.043,4.788 ZM88.538,72.000 L70.424,40.625 L52.309,72.000 L88.538,72.000 ZM11.462,72.000 L47.691,72.000 L29.576,40.625 L11.462,72.000 ZM50.000,5.250 L31.669,37.000 L68.331,37.000 L50.000,5.250 ZM30.984,39.021 L50.000,71.958 L69.016,39.021 L30.984,39.021 Z" class="cls-1"/><path d="M88.177,27.085 L89.108,25.325 L90.887,26.352 L89.920,28.092 L88.177,27.085 ZM52.792,28.272 L51.060,29.272 L50.064,27.547 L51.796,26.547 L52.792,28.272 ZM49.005,24.969 L51.000,24.969 L51.000,26.969 L49.005,26.969 L49.005,24.969 ZM13.361,73.100 L11.633,74.124 L10.633,72.392 L12.361,71.368 L13.361,73.100 ZM46.796,32.769 L45.064,31.769 L46.060,30.044 L47.792,31.044 L46.796,32.769 ZM47.005,26.969 L44.996,26.969 L44.996,24.969 L47.005,24.969 L47.005,26.969 ZM45.796,34.501 L44.792,36.240 L43.060,35.240 L44.064,33.501 L45.796,34.501 ZM42.797,39.696 L41.065,38.696 L42.060,36.972 L43.792,37.972 L42.797,39.696 ZM42.996,26.969 L41.006,26.969 L41.006,24.969 L42.996,24.969 L42.996,26.969 ZM41.797,41.428 L40.793,43.166 L39.061,42.166 L40.065,40.428 L41.797,41.428 ZM38.796,46.626 L37.064,45.626 L38.061,43.898 L39.793,44.898 L38.796,46.626 ZM39.006,26.969 L36.997,26.969 L36.997,24.969 L39.006,24.969 L39.006,26.969 ZM37.796,48.358 L36.791,50.098 L35.059,49.098 L36.064,47.358 L37.796,48.358 ZM34.796,53.553 L33.064,52.553 L34.059,50.830 L35.791,51.830 L34.796,53.553 ZM34.998,26.969 L33.006,26.969 L33.006,24.969 L34.998,24.969 L34.998,26.969 ZM33.796,55.285 L32.792,57.025 L31.060,56.025 L32.064,54.285 L33.796,55.285 ZM30.830,64.613 L32.574,63.634 L33.575,65.393 L31.830,66.371 L30.830,64.613 ZM32.826,68.122 L34.571,67.143 L35.563,68.887 L33.819,69.866 L32.826,68.122 ZM34.914,59.969 L36.923,59.969 L36.923,61.969 L34.914,61.969 L34.914,59.969 ZM34.815,71.616 L36.559,70.638 L37.560,72.396 L35.815,73.375 L34.815,71.616 ZM36.812,75.125 L38.556,74.147 L39.547,75.889 L37.803,76.867 L36.812,75.125 ZM38.923,59.969 L40.913,59.969 L40.913,61.969 L38.923,61.969 L38.923,59.969 ZM38.799,78.618 L40.543,77.639 L41.544,79.398 L39.799,80.376 L38.799,78.618 ZM40.795,82.127 L42.540,81.148 L43.531,82.891 L41.787,83.870 L40.795,82.127 ZM42.913,59.969 L44.922,59.969 L44.922,61.969 L42.913,61.969 L42.913,59.969 ZM42.783,85.620 L44.528,84.642 L45.528,86.400 L43.784,87.379 L42.783,85.620 ZM44.780,89.129 L46.524,88.151 L47.515,89.893 L45.771,90.871 L44.780,89.129 ZM46.922,59.969 L48.917,59.969 L48.917,61.969 L46.922,61.969 L46.922,59.969 ZM47.729,94.311 L46.767,92.622 L48.511,91.643 L49.448,93.346 L47.729,94.311 ZM31.092,59.969 L32.914,59.969 L32.914,61.969 L31.426,61.969 L30.362,62.566 L30.563,62.914 L28.850,63.928 L27.850,62.196 L29.050,61.486 L28.843,61.120 L30.395,60.250 L29.064,59.481 L30.060,57.757 L31.792,58.757 L31.092,59.969 ZM30.923,60.262 L30.796,60.481 L30.772,60.468 L30.923,60.732 L30.923,60.262 ZM31.006,26.969 L28.997,26.969 L28.997,24.969 L31.006,24.969 L31.006,26.969 ZM29.591,58.391 L27.846,59.370 L26.846,57.611 L28.590,56.633 L29.591,58.391 ZM27.129,64.947 L25.401,65.971 L24.401,64.239 L26.129,63.215 L27.129,64.947 ZM25.850,55.861 L24.858,54.118 L26.602,53.139 L27.594,54.882 L25.850,55.861 ZM26.997,26.969 L25.007,26.969 L25.007,24.969 L26.997,24.969 L26.997,26.969 ZM25.606,51.389 L23.862,52.367 L22.861,50.609 L24.606,49.630 L25.606,51.389 ZM23.680,66.990 L21.964,68.006 L20.964,66.274 L22.680,65.258 L23.680,66.990 ZM21.865,48.858 L20.874,47.116 L22.618,46.138 L23.610,47.880 L21.865,48.858 ZM23.008,26.969 L21.000,26.969 L21.000,24.969 L23.008,24.969 L23.008,26.969 ZM21.622,44.387 L19.878,45.366 L18.878,43.608 L20.623,42.630 L21.622,44.387 ZM20.243,69.025 L18.516,70.048 L17.516,68.316 L19.243,67.293 L20.243,69.025 ZM17.882,41.858 L16.888,40.112 L18.633,39.133 L19.626,40.879 L17.882,41.858 ZM19.000,26.969 L17.006,26.969 L17.006,24.969 L19.000,24.969 L19.000,26.969 ZM16.795,71.067 L15.082,72.081 L14.082,70.349 L15.795,69.335 L16.795,71.067 ZM17.637,37.382 L15.892,38.361 L14.892,36.603 L16.636,35.624 L17.637,37.382 ZM13.896,34.852 L12.905,33.110 L14.649,32.132 L15.640,33.874 L13.896,34.852 ZM11.908,31.359 L10.908,29.601 L12.650,28.624 L13.653,30.381 L11.908,31.359 ZM15.006,26.969 L12.998,26.969 L12.998,24.969 L15.006,24.969 L15.006,26.969 ZM48.792,29.312 L47.060,28.312 L48.064,26.572 L49.796,27.572 L48.792,29.312 ZM51.000,23.771 L49.000,23.771 L49.000,21.762 L51.000,21.762 L51.000,23.771 ZM51.000,19.763 L49.000,19.763 L49.000,17.769 L51.000,17.769 L51.000,19.763 ZM51.000,15.769 L49.000,15.769 L49.000,13.761 L51.000,13.761 L51.000,15.769 ZM49.000,5.762 L51.000,5.762 L51.000,7.771 L49.000,7.771 L49.000,5.762 ZM51.000,11.761 L49.000,11.761 L49.000,9.771 L51.000,9.771 L51.000,11.761 ZM49.131,96.777 L48.725,96.062 L50.200,95.234 L51.364,95.906 L50.869,96.777 L49.131,96.777 ZM50.634,93.175 L51.000,92.499 L51.613,91.421 L53.345,92.421 L52.352,94.167 L50.634,93.175 ZM52.602,89.682 L53.586,87.951 L55.318,88.951 L54.334,90.682 L52.602,89.682 ZM54.574,86.213 L55.567,84.466 L57.299,85.466 L56.306,87.213 L54.574,86.213 ZM56.556,82.728 L57.539,80.998 L59.271,81.998 L58.288,83.728 L56.556,82.728 ZM58.528,79.259 L59.521,77.513 L61.253,78.513 L60.260,80.259 L58.528,79.259 ZM60.509,75.774 L61.494,74.042 L63.226,75.042 L62.241,76.774 L60.509,75.774 ZM62.483,72.303 L63.476,70.557 L65.208,71.557 L64.215,73.303 L62.483,72.303 ZM64.464,68.818 L65.448,67.089 L67.180,68.089 L66.196,69.818 L64.464,68.818 ZM66.436,65.350 L67.429,63.604 L69.161,64.604 L68.168,66.350 L66.436,65.350 ZM68.792,55.984 L67.060,56.984 L66.064,55.260 L67.796,54.260 L68.792,55.984 ZM66.997,26.969 L65.006,26.969 L65.006,24.969 L66.997,24.969 L66.997,26.969 ZM66.796,52.528 L65.064,53.528 L64.060,51.788 L65.792,50.788 L66.796,52.528 ZM64.914,61.969 L62.923,61.969 L62.923,59.969 L64.914,59.969 L64.914,61.969 ZM64.792,49.056 L63.060,50.056 L62.065,48.333 L63.797,47.333 L64.792,49.056 ZM63.006,26.969 L60.997,26.969 L60.997,24.969 L63.006,24.969 L63.006,26.969 ZM62.797,45.601 L61.065,46.601 L60.061,44.862 L61.793,43.862 L62.797,45.601 ZM60.923,61.969 L58.914,61.969 L58.914,59.969 L60.923,59.969 L60.923,61.969 ZM60.793,42.130 L59.061,43.130 L58.064,41.402 L59.796,40.402 L60.793,42.130 ZM58.997,26.969 L57.007,26.969 L57.007,24.969 L58.997,24.969 L58.997,26.969 ZM58.796,38.670 L57.064,39.670 L56.059,37.931 L57.791,36.931 L58.796,38.670 ZM56.914,61.969 L54.924,61.969 L54.924,59.969 L56.914,59.969 L56.914,61.969 ZM56.791,35.199 L55.059,36.199 L54.064,34.475 L55.796,33.475 L56.791,35.199 ZM55.007,26.969 L53.000,26.969 L53.000,24.969 L55.007,24.969 L55.007,26.969 ZM50.917,61.969 L50.917,59.969 L52.924,59.969 L52.924,61.969 L50.917,61.969 ZM54.796,31.743 L53.064,32.743 L52.060,31.004 L53.792,30.004 L54.796,31.743 ZM70.698,63.671 L68.986,62.656 L69.187,62.309 L68.597,61.969 L66.914,61.969 L66.914,59.969 L68.783,59.969 L68.060,58.716 L69.792,57.716 L70.796,59.456 L69.512,60.198 L71.134,61.134 L70.934,61.486 L71.698,61.939 L70.698,63.671 ZM69.064,60.456 L68.923,60.211 L68.923,60.976 L69.294,60.323 L69.064,60.456 ZM68.998,24.969 L71.006,24.969 L71.006,26.969 L68.998,26.969 L68.998,24.969 ZM70.390,58.395 L71.383,56.649 L73.115,57.649 L72.122,59.395 L70.390,58.395 ZM72.419,64.690 L73.419,62.958 L75.147,63.982 L74.147,65.715 L72.419,64.690 ZM75.087,54.180 L74.104,55.910 L72.372,54.910 L73.355,53.180 L75.087,54.180 ZM74.996,26.969 L73.006,26.969 L73.006,24.969 L74.996,24.969 L74.996,26.969 ZM75.336,49.696 L77.068,50.696 L76.076,52.442 L74.344,51.442 L75.336,49.696 ZM75.868,66.734 L76.868,65.002 L78.583,66.019 L77.583,67.751 L75.868,66.734 ZM76.325,47.958 L77.311,46.223 L79.043,47.223 L78.057,48.958 L76.325,47.958 ZM76.996,24.969 L79.005,24.969 L79.005,26.969 L76.996,26.969 L76.996,24.969 ZM79.292,42.738 L81.024,43.738 L80.031,45.485 L78.299,44.485 L79.292,42.738 ZM79.304,68.770 L80.304,67.038 L82.031,68.062 L81.031,69.794 L79.304,68.770 ZM80.281,41.000 L81.264,39.270 L82.996,40.270 L82.013,42.000 L80.281,41.000 ZM82.752,70.814 L83.752,69.082 L85.464,70.096 L84.464,71.828 L82.752,70.814 ZM81.005,24.969 L82.998,24.969 L82.998,26.969 L81.005,26.969 L81.005,24.969 ZM84.978,36.785 L83.985,38.531 L82.253,37.531 L83.246,35.785 L84.978,36.785 ZM84.234,34.046 L85.218,32.315 L86.951,33.315 L85.966,35.046 L84.234,34.046 ZM86.184,72.848 L87.184,71.116 L88.913,72.140 L87.913,73.872 L86.184,72.848 ZM84.997,24.969 L87.006,24.969 L87.006,26.969 L84.997,26.969 L84.997,24.969 ZM88.932,29.830 L87.939,31.577 L86.207,30.577 L87.200,28.830 L88.932,29.830 Z" class="cls-1"/></g><text x="0" y="115" fill="#000000" font-size="5px" font-weight="bold" font-family="'Helvetica Neue', Helvetica, Arial-Unicode, Arial, Sans-serif">Created by DaanDirk</text><text x="0" y="120" fill="#000000" font-size="5px" font-weight="bold" font-family="'Helvetica Neue', Helvetica, Arial-Unicode, Arial, Sans-serif">from the Noun Project</text></svg>