<svg xmlns="http://www.w3.org/2000/svg" xmlns:xlink="http://www.w3.org/1999/xlink" preserveAspectRatio="xMidYMid" viewBox="0 0 100 125" x="0px" y="0px"><defs><style>
      .cls-1 {
        fill: #000;
        fill-rule: evenodd;
      }
    </style></defs><g><path d="M90.963,74.969 L8.995,74.969 L8.995,73.750 L9.410,72.969 L49.100,3.161 L50.837,3.161 L90.559,72.969 L90.963,73.594 L90.963,74.969 ZM12.689,71.248 L48.969,7.438 L49.969,5.593 L50.969,7.436 L87.240,71.181 L88.298,72.962 L86.335,72.969 L13.708,72.969 L11.730,72.962 L12.689,71.248 Z" class="cls-1"/><path d="M90.963,74.969 L8.995,74.969 L8.995,73.750 L9.410,72.969 L49.100,3.161 L50.837,3.161 L90.559,72.969 L90.963,73.594 L90.963,74.969 ZM48.969,7.438 L12.689,71.248 L48.969,49.863 L48.969,7.438 ZM50.969,7.436 L50.969,49.863 L87.240,71.181 L50.969,7.436 ZM49.969,51.595 L13.708,72.969 L86.335,72.969 L49.969,51.595 Z" class="cls-1"/></g><text x="0" y="115" fill="#000000" font-size="5px" font-weight="bold" font-family="'Helvetica Neue', Helvetica, Arial-Unicode, Arial, Sans-serif">Created by DaanDirk</text><text x="0" y="120" fill="#000000" font-size="5px" font-weight="bold" font-family="'Helvetica Neue', Helvetica, Arial-Unicode, Arial, Sans-serif">from the Noun Project</text></svg>