<svg xmlns="http://www.w3.org/2000/svg" xmlns:xlink="http://www.w3.org/1999/xlink" preserveAspectRatio="xMidYMid" viewBox="0 0 100 125" x="0px" y="0px"><defs><style>
      .cls-1 {
        fill: #000;
        fill-rule: evenodd;
      }
    </style></defs><g><path d="M90.244,74.969 L50.500,97.116 L49.500,97.085 L9.725,74.969 L8.969,74.563 L8.969,25.344 L9.740,24.969 L49.478,2.821 L50.460,2.821 L90.315,24.969 L90.969,25.281 L90.969,74.594 L90.244,74.969 ZM49.970,4.823 L10.969,26.560 L10.969,73.372 L50.028,95.090 L88.969,73.390 L88.969,26.495 L49.970,4.823 Z" class="cls-1"/><path d="M87.913,73.872 L86.184,72.848 L87.184,71.116 L88.913,72.140 L87.913,73.872 ZM82.752,70.814 L83.752,69.082 L85.464,70.096 L84.464,71.828 L82.752,70.814 ZM79.304,68.770 L80.304,67.038 L82.031,68.062 L81.031,69.794 L79.304,68.770 ZM75.868,66.734 L76.868,65.002 L78.583,66.019 L77.583,67.751 L75.868,66.734 ZM72.419,64.690 L73.419,62.958 L75.147,63.982 L74.147,65.715 L72.419,64.690 ZM68.986,62.656 L69.986,60.924 L71.698,61.939 L70.698,63.671 L68.986,62.656 ZM65.538,60.613 L66.538,58.881 L68.266,59.904 L67.266,61.636 L65.538,60.613 ZM62.103,58.577 L63.103,56.845 L64.818,57.861 L63.818,59.593 L62.103,58.577 ZM58.656,56.534 L59.656,54.802 L61.383,55.826 L60.383,57.558 L58.656,56.534 ZM55.214,54.495 L56.214,52.763 L57.935,53.782 L56.935,55.514 L55.214,54.495 ZM51.773,52.455 L52.773,50.723 L54.494,51.743 L53.494,53.475 L51.773,52.455 ZM50.000,51.405 L49.501,51.700 L48.501,49.968 L48.838,49.769 L51.015,49.769 L50.052,51.436 L50.000,51.405 ZM49.000,45.769 L51.000,45.769 L51.000,47.769 L49.000,47.769 L49.000,45.769 ZM49.000,41.769 L51.000,41.769 L51.000,43.769 L49.000,43.769 L49.000,41.769 ZM49.000,37.761 L51.000,37.761 L51.000,39.769 L49.000,39.769 L49.000,37.761 ZM49.000,33.769 L51.000,33.769 L51.000,35.761 L49.000,35.761 L49.000,33.769 ZM49.000,29.761 L51.000,29.761 L51.000,31.769 L49.000,31.769 L49.000,29.761 ZM49.000,25.771 L51.000,25.771 L51.000,27.761 L49.000,27.761 L49.000,25.771 ZM49.000,21.762 L51.000,21.762 L51.000,23.771 L49.000,23.771 L49.000,21.762 ZM49.000,17.769 L51.000,17.769 L51.000,19.763 L49.000,19.763 L49.000,17.769 ZM49.000,13.761 L51.000,13.761 L51.000,15.769 L49.000,15.769 L49.000,13.761 ZM49.000,9.771 L51.000,9.771 L51.000,11.761 L49.000,11.761 L49.000,9.771 ZM49.000,5.762 L51.000,5.762 L51.000,7.771 L49.000,7.771 L49.000,5.762 ZM49.000,2.656 L51.000,2.656 L51.000,3.762 L49.000,3.762 L49.000,2.656 ZM47.780,52.720 L46.059,53.739 L45.059,52.007 L46.780,50.987 L47.780,52.720 ZM44.338,54.758 L42.616,55.777 L41.616,54.045 L43.338,53.026 L44.338,54.758 ZM40.895,56.796 L39.168,57.819 L38.168,56.087 L39.895,55.064 L40.895,56.796 ZM37.447,58.838 L35.732,59.853 L34.732,58.121 L36.447,57.106 L37.447,58.838 ZM34.011,60.872 L32.284,61.895 L31.284,60.163 L33.011,59.140 L34.011,60.872 ZM30.563,62.914 L28.850,63.928 L27.850,62.196 L29.563,61.182 L30.563,62.914 ZM27.129,64.947 L25.401,65.971 L24.401,64.239 L26.129,63.215 L27.129,64.947 ZM23.680,66.990 L21.964,68.006 L20.964,66.274 L22.680,65.258 L23.680,66.990 ZM20.243,69.025 L18.516,70.048 L17.516,68.316 L19.243,67.293 L20.243,69.025 ZM16.795,71.067 L15.082,72.081 L14.082,70.349 L15.795,69.335 L16.795,71.067 ZM13.361,73.100 L11.633,74.124 L10.633,72.392 L12.361,71.368 L13.361,73.100 Z" class="cls-1"/><path d="M90.484,26.835 L50.969,50.234 L50.969,97.250 L48.969,97.250 L48.969,50.234 L9.484,26.835 L10.484,25.103 L49.969,48.502 L89.484,25.103 L90.484,26.835 Z" class="cls-1"/></g><text x="0" y="115" fill="#000000" font-size="5px" font-weight="bold" font-family="'Helvetica Neue', Helvetica, Arial-Unicode, Arial, Sans-serif">Created by DaanDirk</text><text x="0" y="120" fill="#000000" font-size="5px" font-weight="bold" font-family="'Helvetica Neue', Helvetica, Arial-Unicode, Arial, Sans-serif">from the Noun Project</text></svg>