<svg xmlns="http://www.w3.org/2000/svg" xmlns:xlink="http://www.w3.org/1999/xlink" version="1.1" baseProfile="basic" x="0px" y="0px" viewBox="900 0 100 125" xml:space="preserve"><rect x="927.4" y="36.6" transform="matrix(-0.866 -0.5 0.5 -0.866 1713.4639 534.0418)" width="1.8" height="1.8"/><rect x="924.4" y="34.8" transform="matrix(-0.866 -0.5 0.5 -0.866 1708.6564 529.2321)" width="1.8" height="1.8"/><rect x="933.5" y="40.1" transform="matrix(-0.866 -0.5 0.5 -0.866 1723.0815 543.6573)" width="1.8" height="1.8"/><rect x="921.3" y="33.1" transform="matrix(-0.866 -0.5 0.5 -0.866 1703.847 524.425)" width="1.8" height="1.8"/><rect x="918.3" y="31.3" transform="matrix(-0.866 -0.5 0.5 -0.866 1699.0396 519.6152)" width="1.8" height="1.8"/><rect x="930.4" y="38.3" transform="matrix(-0.866 -0.5 0.5 -0.866 1718.2732 538.8489)" width="1.8" height="1.8"/><rect x="914.4" y="29.3" transform="matrix(-0.866 -0.5 0.5 -0.866 1693.6296 514.2066)" width="2.6" height="1.8"/><rect x="945.7" y="47.1" transform="matrix(-0.866 -0.5 0.5 -0.866 1742.3153 562.8909)" width="1.8" height="1.8"/><rect x="942.6" y="45.4" transform="matrix(-0.866 -0.5 0.5 -0.866 1737.506 558.0839)" width="1.8" height="1.8"/><rect x="939.6" y="43.6" transform="matrix(-0.866 -0.5 0.5 -0.866 1732.6985 553.2741)" width="1.8" height="1.8"/><rect x="936.5" y="41.9" transform="matrix(-0.866 -0.5 0.5 -0.866 1727.8892 548.467)" width="1.8" height="1.8"/><rect x="949.1" y="81.2" width="1.8" height="1.8"/><rect x="949.1" y="77.7" width="1.8" height="1.8"/><rect x="949.1" y="74.2" width="1.8" height="1.8"/><rect x="949.1" y="84.8" width="1.8" height="1.8"/><rect x="949.1" y="88.3" width="1.8" height="2.6"/><rect x="949.1" y="70.7" width="1.8" height="1.8"/><rect x="949.1" y="56.6" width="1.8" height="1.8"/><rect x="949.1" y="53.1" width="1.8" height="1.8"/><rect x="949.1" y="60.1" width="1.8" height="1.8"/><rect x="949.1" y="67.2" width="1.8" height="1.8"/><rect x="949.1" y="63.6" width="1.8" height="1.8"/><rect x="961.7" y="41.9" transform="matrix(-0.5 -0.866 0.866 -0.5 1406.8472 897.7246)" width="1.8" height="1.8"/><rect x="983" y="29.3" transform="matrix(0.866 -0.5 0.5 0.866 116.7704 496.1932)" width="2.6" height="1.8"/><rect x="958.6" y="43.6" transform="matrix(-0.5 -0.866 0.866 -0.5 1400.7518 897.7239)" width="1.8" height="1.8"/><rect x="952.5" y="47.1" transform="matrix(-0.5 -0.866 0.866 -0.5 1388.5607 897.7225)" width="1.8" height="1.8"/><rect x="964.7" y="40.1" transform="matrix(-0.5 -0.866 0.866 -0.5 1412.9454 897.7239)" width="1.8" height="1.8"/><rect x="955.6" y="45.4" transform="matrix(-0.5 -0.866 0.866 -0.5 1394.655 897.7239)" width="1.8" height="1.8"/><rect x="967.8" y="38.3" transform="matrix(-0.5 -0.866 0.866 -0.5 1419.0448 897.7225)" width="1.8" height="1.8"/><rect x="980" y="31.3" transform="matrix(-0.5 -0.866 0.866 -0.5 1443.4296 897.7239)" width="1.8" height="1.8"/><polygon points="950.7,48.6 950,49 949.3,48.6 948.4,50.1 949.1,50.5 949.1,51.3 950.9,51.3 950.9,50.5 951.6,50.1 "/><rect x="976.9" y="33.1" transform="matrix(-0.5 -0.866 0.866 -0.5 1437.3312 897.7247)" width="1.8" height="1.8"/><rect x="970.8" y="36.6" transform="matrix(-0.5 -0.866 0.866 -0.5 1425.139 897.7239)" width="1.8" height="1.8"/><rect x="973.9" y="34.8" transform="matrix(-0.5 -0.866 0.866 -0.5 1431.236 897.7239)" width="1.8" height="1.8"/><polygon points="985.9,69.7 950.9,49.5 950.9,9.1 949.1,9.1 949.1,49.5 914.1,69.7 915,71.2 950,51 985,71.2 "/><path d="M950,8.2l-36.2,20.9v41.8L950,91.8l36.2-20.9V29.1L950,8.2z M984.3,69.8L950,89.6l-34.3-19.8V30.2L950,10.4l34.3,19.8V69.8z  "/><text x="900" y="115" fill="#000000" font-size="5px" font-weight="bold" font-family="'Helvetica Neue', Helvetica, Arial-Unicode, Arial, Sans-serif">Created by DaanDirk</text><text x="900" y="120" fill="#000000" font-size="5px" font-weight="bold" font-family="'Helvetica Neue', Helvetica, Arial-Unicode, Arial, Sans-serif">from the Noun Project</text></svg>