<svg xmlns="http://www.w3.org/2000/svg" xmlns:xlink="http://www.w3.org/1999/xlink" version="1.1" baseProfile="basic" x="0px" y="0px" viewBox="0 0 100 125" xml:space="preserve"><path style="" d="M83.6,31.6l-0.9-1.5l0.7-0.4L50,10.4L16.6,29.7l0.7,0.4l-0.9,1.5l-0.7-0.4v38.6l33.4,19.3v-0.8h1.8v0.8  l33.4-19.3V31.2L83.6,31.6z M19.5,33.4L18,32.5l0.9-1.5l1.5,0.9L19.5,33.4z M22.5,35.1L21,34.2l0.9-1.5l1.5,0.9L22.5,35.1z   M25.6,36.9L24,36l0.9-1.5l1.5,0.9L25.6,36.9z M28.6,38.7l-1.5-0.9l0.9-1.5l1.5,0.9L28.6,38.7z M31.7,40.4l-1.5-0.9L31,38l1.5,0.9  L31.7,40.4z M34.7,42.2l-1.5-0.9l0.9-1.5l1.5,0.9L34.7,42.2z M37.7,43.9L36.2,43l0.9-1.5l1.5,0.9L37.7,43.9z M40.8,45.7l-1.5-0.9  l0.9-1.5l1.5,0.9L40.8,45.7z M43.8,47.5l-1.5-0.9l0.9-1.5l1.5,0.9L43.8,47.5z M46.9,49.2l-1.5-0.9l0.9-1.5l1.5,0.9L46.9,49.2z   M50.9,86.5h-1.8v-1.8h1.8V86.5z M50.9,83h-1.8v-1.8h1.8V83z M50.9,79.5h-1.8v-1.8h1.8V79.5z M50.9,76h-1.8v-1.8h1.8V76z M50.9,72.4  h-1.8v-1.8h1.8V72.4z M50.9,68.9h-1.8v-1.8h1.8V68.9z M50.9,65.4h-1.8v-1.8h1.8V65.4z M50.9,61.9h-1.8v-1.8h1.8V61.9z M50.9,58.4  h-1.8v-1.8h1.8V58.4z M50.9,54.8h-1.8V53h1.8V54.8z M50.9,50.5v0.8h-1.8v-0.8l-0.7-0.4l0.9-1.5L50,49l0.7-0.4l0.9,1.5L50.9,50.5z   M53.1,49.2l-0.9-1.5l1.5-0.9l0.9,1.5L53.1,49.2z M56.2,47.5L55.3,46l1.5-0.9l0.9,1.5L56.2,47.5z M59.2,45.7l-0.9-1.5l1.5-0.9  l0.9,1.5L59.2,45.7z M62.3,43.9l-0.9-1.5l1.5-0.9l0.9,1.5L62.3,43.9z M65.3,42.2l-0.9-1.5l1.5-0.9l0.9,1.5L65.3,42.2z M68.3,40.4  l-0.9-1.5L69,38l0.9,1.5L68.3,40.4z M71.4,38.7l-0.9-1.5l1.5-0.9l0.9,1.5L71.4,38.7z M74.4,36.9l-0.9-1.5l1.5-0.9l1,1.5L74.4,36.9z   M77.5,35.1l-0.9-1.5l1.5-0.9l0.9,1.5L77.5,35.1z M80.5,33.4l-0.9-1.5l1.5-0.9l0.9,1.5L80.5,33.4z" fill="none"/><rect x="27.4" y="36.526" transform="matrix(0.866 0.5 -0.5 0.866 22.5051 -9.1361)" width="1.8" height="1.8"/><rect x="24.29" y="34.776" transform="matrix(0.866 0.5 -0.5 0.866 21.2136 -7.8153)" width="1.8" height="1.8"/><rect x="33.493" y="40.048" transform="matrix(0.866 0.5 -0.5 0.866 25.0826 -11.7107)" width="1.8" height="1.8"/><rect x="21.325" y="32.977" transform="matrix(0.866 0.5 -0.5 0.866 19.9164 -6.5738)" width="1.8" height="1.8"/><rect x="18.214" y="31.227" transform="matrix(0.866 0.5 -0.5 0.866 18.6248 -5.253)" width="1.8" height="1.8"/><rect x="30.461" y="38.362" transform="matrix(0.866 0.5 -0.5 0.866 23.8332 -10.4203)" width="1.8" height="1.8"/><rect x="45.653" y="47.134" transform="matrix(0.866 0.5 -0.5 0.866 30.2545 -16.8413)" width="1.8" height="1.8"/><rect x="42.688" y="45.334" transform="matrix(0.866 0.5 -0.5 0.866 28.9573 -15.6)" width="1.8" height="1.8"/><rect x="39.577" y="43.584" transform="matrix(0.866 0.5 -0.5 0.866 27.6657 -14.2792)" width="1.8" height="1.8"/><rect x="36.619" y="41.774" transform="matrix(0.866 0.5 -0.5 0.866 26.3643 -13.0423)" width="1.8" height="1.8"/><rect x="49.1" y="81.2" width="1.8" height="1.8"/><rect x="49.1" y="77.7" width="1.8" height="1.8"/><rect x="49.1" y="74.2" width="1.8" height="1.8"/><rect x="49.1" y="84.8" width="1.8" height="1.8"/><rect x="49.1" y="70.7" width="1.8" height="1.8"/><rect x="49.1" y="56.6" width="1.8" height="1.8"/><rect x="49.1" y="53.1" width="1.8" height="1.8"/><rect x="49.1" y="60.1" width="1.8" height="1.8"/><rect x="49.1" y="67.2" width="1.8" height="1.8"/><rect x="49.1" y="63.6" width="1.8" height="1.8"/><rect x="61.723" y="41.807" transform="matrix(0.5 0.866 -0.866 0.5 68.2961 -32.8799)" width="1.8" height="1.8"/><rect x="58.649" y="43.642" transform="matrix(0.5 0.866 -0.866 0.5 68.3477 -29.3)" width="1.8" height="1.8"/><rect x="52.521" y="47.182" transform="matrix(0.5 0.866 -0.866 0.5 68.35 -22.2235)" width="1.8" height="1.8"/><rect x="64.721" y="40.13" transform="matrix(0.5 0.866 -0.866 0.5 68.3428 -36.3142)" width="1.8" height="1.8"/><rect x="55.611" y="45.34" transform="matrix(0.5 0.866 -0.866 0.5 68.2993 -25.82)" width="1.8" height="1.8"/><rect x="67.735" y="38.332" transform="matrix(0.5 0.866 -0.866 0.5 68.2924 -39.8232)" width="1.8" height="1.8"/><rect x="79.975" y="31.259" transform="matrix(0.5 0.866 -0.866 0.5 68.2869 -53.9601)" width="1.8" height="1.8"/><polygon points="50,49 49.3,48.6 48.4,50.1 49.1,50.5 49.1,51.3 50.9,51.3 50.9,50.5 51.6,50.1 50.7,48.6 "/><rect x="76.987" y="33.044" transform="matrix(0.5 0.866 -0.866 0.5 68.3384 -50.4799)" width="1.8" height="1.8"/><rect x="70.859" y="36.584" transform="matrix(0.5 0.866 -0.866 0.5 68.3408 -43.4031)" width="1.8" height="1.8"/><rect x="73.862" y="34.792" transform="matrix(0.5 0.866 -0.866 0.5 68.2899 -46.9)" width="1.8" height="1.8"/><path d="M50,8.2L13.8,29.1v41.8L50,91.8l36.2-20.9V29.1L50,8.2z M50.9,89.1v-0.8h-1.8v0.8L15.7,69.8V31.2l0.7,0.4l0.9-1.5l-0.7-0.4  L50,10.4l33.4,19.3l-0.7,0.4l0.9,1.5l0.7-0.4v38.6L50.9,89.1z"/><text x="0" y="115" fill="#000000" font-size="5px" font-weight="bold" font-family="'Helvetica Neue', Helvetica, Arial-Unicode, Arial, Sans-serif">Created by DaanDirk</text><text x="0" y="120" fill="#000000" font-size="5px" font-weight="bold" font-family="'Helvetica Neue', Helvetica, Arial-Unicode, Arial, Sans-serif">from the Noun Project</text></svg>