<svg xmlns="http://www.w3.org/2000/svg" xmlns:xlink="http://www.w3.org/1999/xlink" version="1.1" baseProfile="basic" x="0px" y="0px" viewBox="900 0 100 125" xml:space="preserve"><path d="M983.6,31.6l-0.9-1.5l0.7-0.4L950,10.4l-33.4,19.3l0.7,0.4l-0.9,1.5l-0.7-0.4v38.6l33.4,19.3v-0.8h1.8v0.8l33.4-19.3V31.2  L983.6,31.6z M919.5,33.4l-1.5-0.9l0.9-1.5l1.5,0.9L919.5,33.4z M922.5,35.1l-1.5-0.9l0.9-1.5l1.5,0.9L922.5,35.1z M925.6,36.9  L924,36l0.9-1.5l1.5,0.9L925.6,36.9z M928.6,38.7l-1.5-0.9l0.9-1.5l1.5,0.9L928.6,38.7z M931.7,40.4l-1.5-0.9L931,38l1.5,0.9  L931.7,40.4z M934.7,42.2l-1.5-0.9l0.9-1.5l1.5,0.9L934.7,42.2z M937.7,43.9l-1.5-0.9l0.9-1.5l1.5,0.9L937.7,43.9z M940.8,45.7  l-1.5-0.9l0.9-1.5l1.5,0.9L940.8,45.7z M943.8,47.5l-1.5-0.9l0.9-1.5l1.5,0.9L943.8,47.5z M946.9,49.2l-1.5-0.9l0.9-1.5l1.5,0.9  L946.9,49.2z M950.9,86.5h-1.8v-1.8h1.8V86.5z M950.9,83h-1.8v-1.8h1.8V83z M950.9,79.5h-1.8v-1.8h1.8V79.5z M950.9,76h-1.8v-1.8  h1.8V76z M950.9,72.4h-1.8v-1.8h1.8V72.4z M950.9,68.9h-1.8v-1.8h1.8V68.9z M950.9,65.4h-1.8v-1.8h1.8V65.4z M950.9,61.9h-1.8v-1.8  h1.8V61.9z M950.9,58.4h-1.8v-1.8h1.8V58.4z M950.9,54.8h-1.8v-1.8h1.8V54.8z M950.9,50.5v0.8h-1.8v-0.8l-0.7-0.4l0.9-1.5L950,49  l0.7-0.4l0.9,1.5L950.9,50.5z M953.1,49.2l-0.9-1.5l1.5-0.9l0.9,1.5L953.1,49.2z M956.2,47.5l-0.9-1.5l1.5-0.9l0.9,1.5L956.2,47.5z   M959.2,45.7l-0.9-1.5l1.5-0.9l0.9,1.5L959.2,45.7z M962.3,43.9l-0.9-1.5l1.5-0.9l0.9,1.5L962.3,43.9z M965.3,42.2l-0.9-1.5l1.5-0.9  l0.9,1.5L965.3,42.2z M968.3,40.4l-0.9-1.5L969,38l0.9,1.5L968.3,40.4z M971.4,38.7l-0.9-1.5l1.5-0.9l0.9,1.5L971.4,38.7z   M974.4,36.9l-0.9-1.5l1.5-0.9L976,36L974.4,36.9z M977.5,35.1l-0.9-1.5l1.5-0.9l0.9,1.5L977.5,35.1z M980.5,33.4l-0.9-1.5l1.5-0.9  l0.9,1.5L980.5,33.4z"/><path d="M950,6.1L912,28v43.9l38,21.9l38-21.9V28L950,6.1z M986,70.8l-36,20.8l-36-20.8V29.2l36-20.8l36,20.8V70.8z"/><text x="900" y="115" fill="#000000" font-size="5px" font-weight="bold" font-family="'Helvetica Neue', Helvetica, Arial-Unicode, Arial, Sans-serif">Created by DaanDirk</text><text x="900" y="120" fill="#000000" font-size="5px" font-weight="bold" font-family="'Helvetica Neue', Helvetica, Arial-Unicode, Arial, Sans-serif">from the Noun Project</text></svg>