<svg xmlns="http://www.w3.org/2000/svg" xmlns:xlink="http://www.w3.org/1999/xlink" version="1.1" baseProfile="basic" x="0px" y="0px" viewBox="900 0 100 125" xml:space="preserve"><path d="M983.4,70.3l-32.9-19h-1.1l-32.9,19l32.5,18.8v-0.8h1.8v0.8L983.4,70.3z M949.1,53.1h1.8v1.8h-1.8V53.1z M949.1,56.6h1.8  v1.8h-1.8V56.6z M949.1,60.1h1.8v1.8h-1.8V60.1z M949.1,63.6h1.8v1.8h-1.8V63.6z M949.1,67.2h1.8v1.8h-1.8V67.2z M949.1,70.7h1.8  v1.8h-1.8V70.7z M949.1,74.2h1.8V76h-1.8V74.2z M949.1,77.7h1.8v1.8h-1.8V77.7z M949.1,81.2h1.8V83h-1.8V81.2z M949.1,86.5v-1.8h1.8  v1.8H949.1z"/><path d="M948.6,49.8l0.5-0.9v-38l-32.5,18.8l0.7,0.4l-0.9,1.5l-0.7-0.4v37.6L948.6,49.8z M946.2,46.8l1.5,0.9l-0.9,1.5l-1.5-0.9  L946.2,46.8z M943.2,45.1l1.5,0.9l-0.9,1.5l-1.5-0.9L943.2,45.1z M940.2,43.3l1.5,0.9l-0.9,1.5l-1.5-0.9L940.2,43.3z M937.1,41.5  l1.5,0.9l-0.9,1.5l-1.5-0.9L937.1,41.5z M934.1,39.8l1.5,0.9l-0.9,1.5l-1.5-0.9L934.1,39.8z M931,38l1.5,0.9l-0.9,1.5l-1.5-0.9  L931,38z M928,36.3l1.5,0.9l-0.9,1.5l-1.5-0.9L928,36.3z M924.9,34.5l1.5,0.9l-0.9,1.5L924,36L924.9,34.5z M921.9,32.7l1.5,0.9  l-0.9,1.5l-1.5-0.9L921.9,32.7z M918.8,31l1.5,0.9l-0.9,1.5l-1.5-0.9L918.8,31z"/><path d="M983.6,31.6l-0.9-1.5l0.7-0.4l-32.5-18.8v38l0.5,0.9l32.9,19V31.2L983.6,31.6z M953.1,49.2l-0.9-1.5l1.5-0.9l0.9,1.5  L953.1,49.2z M956.2,47.5l-0.9-1.5l1.5-0.9l0.9,1.5L956.2,47.5z M959.2,45.7l-0.9-1.5l1.5-0.9l0.9,1.5L959.2,45.7z M962.3,43.9  l-0.9-1.5l1.5-0.9l0.9,1.5L962.3,43.9z M965.3,42.2l-0.9-1.5l1.5-0.9l0.9,1.5L965.3,42.2z M968.3,40.4l-0.9-1.5L969,38l0.9,1.5  L968.3,40.4z M971.4,38.7l-0.9-1.5l1.5-0.9l0.9,1.5L971.4,38.7z M974.4,36.9l-0.9-1.5l1.5-0.9L976,36L974.4,36.9z M977.5,35.1  l-0.9-1.5l1.5-0.9l0.9,1.5L977.5,35.1z M980.5,33.4l-0.9-1.5l1.5-0.9l0.9,1.5L980.5,33.4z"/><path d="M950,6.1L912,28v43.9l38,21.9l38-21.9V28L950,6.1z M986,70.8l-36,20.8l-36-20.8V29.2l36-20.8l36,20.8V70.8z"/><text x="900" y="115" fill="#000000" font-size="5px" font-weight="bold" font-family="'Helvetica Neue', Helvetica, Arial-Unicode, Arial, Sans-serif">Created by DaanDirk</text><text x="900" y="120" fill="#000000" font-size="5px" font-weight="bold" font-family="'Helvetica Neue', Helvetica, Arial-Unicode, Arial, Sans-serif">from the Noun Project</text></svg>