<svg xmlns="http://www.w3.org/2000/svg" viewBox="0 0 100 125" x="0px" y="0px"><title>psp </title><path d="M83.4,70.35l-32.9-19H49.4l-32.9,19L49,89.15v-.8h1.8v.8ZM49.1,53.15h1.8v1.8H49.1Zm0,3.5h1.8v1.8H49.1Zm0,3.5h1.8v1.8H49.1Zm0,3.5h1.8v1.8H49.1Zm0,3.6h1.8v1.8H49.1Zm0,3.5h1.8v1.8H49.1Zm0,3.5h1.8v1.8H49.1Zm0,3.5h1.8v1.8H49.1Zm0,3.5h1.8v1.8H49.1Zm0,5.3v-1.8h1.8v1.8Zm-.5-36.7.5-.9v-38L16.6,29.75l.7.4-.9,1.5-.7-.4v37.6Zm-2.4-3,1.5.9-.9,1.5-1.5-.9Zm-3-1.7,1.5.9-.9,1.5-1.5-.9Zm-3-1.8,1.5.9-.9,1.5-1.5-.9Zm-3.1-1.8,1.5.9-.9,1.5-1.5-.9Zm-3-1.7,1.5.9-.9,1.5-1.5-.9ZM31,38.05l1.5.9-.9,1.5-1.5-.9Zm-3-1.7,1.5.9-.9,1.5-1.5-.9Zm-3.1-1.8,1.5.9-.9,1.5-1.5-.9Zm-3-1.8,1.5.9-.9,1.5-1.5-.9Zm-3.1-1.7,1.5.9-.9,1.5-1.5-.9Zm64.8.6-.9-1.5.7-.4L50.9,10.95v38l.5.9,32.9,19V31.25ZM53.1,49.25l-.9-1.5,1.5-.9.9,1.5Zm3.1-1.7-.9-1.5,1.5-.9.9,1.5Zm3-1.8-.9-1.5,1.5-.9.9,1.5Zm3.1-1.8-.9-1.5,1.5-.9.9,1.5Zm3-1.7-.9-1.5,1.5-.9.9,1.5Zm3-1.8-.9-1.5,1.6-.9.9,1.5Zm3.1-1.7-.9-1.5,1.5-.9.9,1.5Zm3-1.8-.9-1.5,1.5-.9,1,1.5Zm3.1-1.8-.9-1.5,1.5-.9.9,1.5Zm3-1.7-.9-1.5,1.5-.9.9,1.5Z"/><text x="0" y="115" fill="#000000" font-size="5px" font-weight="bold" font-family="'Helvetica Neue', Helvetica, Arial-Unicode, Arial, Sans-serif">Created by DaanDirk</text><text x="0" y="120" fill="#000000" font-size="5px" font-weight="bold" font-family="'Helvetica Neue', Helvetica, Arial-Unicode, Arial, Sans-serif">from the Noun Project</text></svg>