<svg xmlns="http://www.w3.org/2000/svg" xmlns:xlink="http://www.w3.org/1999/xlink" version="1.1" x="0px" y="0px" viewBox="0 0 100 125" style="enable-background:new 0 0 100 100;" xml:space="preserve"><path d="M28.6,38.6l-1.6-0.9l0.9-1.6l1.6,0.9L28.6,38.6z M26.5,35.4l-1.6-0.9L24,36l1.6,0.9L26.5,35.4z M35.7,40.6l-1.6-0.9  l-0.9,1.6l1.6,0.9L35.7,40.6z M23.5,33.6l-1.6-0.9L21,34.2l1.6,0.9L23.5,33.6z M20.3,31.8l-1.6-0.9l-0.9,1.6l1.6,0.9L20.3,31.8z   M32.7,38.9L31.1,38l-0.9,1.6l1.6,0.9L32.7,38.9z M47.8,47.6l-1.6-0.9l-0.9,1.6l1.6,0.9L47.8,47.6z M44.8,45.9L43.2,45l-0.9,1.6  l1.6,0.9L44.8,45.9z M41.7,44.1l-1.6-0.9l-0.9,1.6l1.6,0.9L41.7,44.1z M38.7,42.4l-1.6-0.9L36.3,43l1.6,0.9L38.7,42.4z M50.9,81.2  h-1.8V83h1.8V81.2z M50.9,77.7h-1.8v1.8h1.8V77.7z M50.9,74.2h-1.8V76h1.8V74.2z M50.9,84.8h-1.8v1.8h1.8V84.8z M50.9,70.7h-1.8v1.8  h1.8V70.7z M50.9,56.6h-1.8v1.8h1.8V56.6z M50.9,53.1h-1.8v1.8h1.8V53.1z M50.9,60.1h-1.8v1.8h1.8V60.1z M50.9,67.2h-1.8V69h1.8  V67.2z M50.9,63.6h-1.8v1.8h1.8V63.6z M61.4,42.4l0.9,1.6l1.6-0.9l-0.9-1.6L61.4,42.4z M58.3,44.2l0.9,1.6l1.6-0.9l-0.9-1.6  L58.3,44.2z M52.2,47.8l0.9,1.6l1.6-0.9l-0.9-1.6L52.2,47.8z M64.5,40.6l0.9,1.6l1.6-0.9L66,39.7L64.5,40.6z M55.2,45.9l0.9,1.6  l1.6-0.9L56.8,45L55.2,45.9z M67.4,38.9l0.9,1.6l1.6-0.9L68.9,38L67.4,38.9z M79.7,31.8l0.9,1.6l1.6-0.9l-0.9-1.6L79.7,31.8z   M76.6,33.6l0.9,1.6l1.6-0.9l-0.9-1.6L76.6,33.6z M70.6,37.2l0.9,1.6l1.6-0.9l-0.9-1.6L70.6,37.2z M73.6,35.3l0.9,1.6L76,36  l-0.9-1.6L73.6,35.3z M86.2,29.1v41.8L50,91.8L13.8,70.9V29.1L50,8.2L86.2,29.1z M50.9,88.3v0.8l32.5-18.8l-32.9-19h-1l-32.9,19  l32.5,18.8v-0.8H50.9z M15.7,31.3v37.5l32.9-19l0.5-0.9v-38L16.6,29.7l0.7,0.4l-0.9,1.6L15.7,31.3z M84.3,68.8V31.2l-0.7,0.4  l-0.9-1.6l0.7-0.4L50.9,10.9v38l0.5,0.9L84.3,68.8z"/><text x="0" y="115" fill="#000000" font-size="5px" font-weight="bold" font-family="'Helvetica Neue', Helvetica, Arial-Unicode, Arial, Sans-serif">Created by DaanDirk</text><text x="0" y="120" fill="#000000" font-size="5px" font-weight="bold" font-family="'Helvetica Neue', Helvetica, Arial-Unicode, Arial, Sans-serif">from the Noun Project</text></svg>