<svg xmlns="http://www.w3.org/2000/svg" xmlns:xlink="http://www.w3.org/1999/xlink" preserveAspectRatio="xMidYMid" viewBox="0 0 100 125" x="0px" y="0px"><defs><style>
      .cls-1 {
        fill: #000;
        fill-rule: evenodd;
      }
    </style></defs><g><path d="M90.244,74.969 L50.500,97.116 L49.500,97.085 L9.725,74.969 L8.969,74.563 L8.969,25.344 L9.740,24.969 L49.478,2.821 L50.460,2.821 L90.315,24.969 L90.969,25.281 L90.969,74.594 L90.244,74.969 ZM49.969,5.593 L48.969,7.438 L12.689,71.248 L11.730,72.962 L13.708,72.969 L86.335,72.969 L88.298,72.962 L87.240,71.181 L50.969,7.436 L49.969,5.593 ZM50.028,95.090 L86.136,74.969 L13.840,74.969 L50.028,95.090 ZM10.969,70.227 L47.313,6.304 L10.969,26.560 L10.969,70.227 ZM52.622,6.297 L88.969,70.175 L88.969,26.495 L52.622,6.297 Z" class="cls-1"/><path d="M84.997,26.969 L84.997,24.969 L87.006,24.969 L87.006,26.969 L84.997,26.969 ZM89.108,25.325 L90.887,26.352 L89.920,28.092 L88.177,27.085 L89.108,25.325 ZM81.005,24.969 L82.998,24.969 L82.998,26.969 L81.005,26.969 L81.005,24.969 ZM76.996,24.969 L79.005,24.969 L79.005,26.969 L76.996,26.969 L76.996,24.969 ZM73.006,24.969 L74.996,24.969 L74.996,26.969 L73.006,26.969 L73.006,24.969 ZM68.998,24.969 L71.006,24.969 L71.006,26.969 L68.998,26.969 L68.998,24.969 ZM65.006,24.969 L66.997,24.969 L66.997,26.969 L65.006,26.969 L65.006,24.969 ZM60.997,24.969 L63.006,24.969 L63.006,26.969 L60.997,26.969 L60.997,24.969 ZM57.007,24.969 L58.998,24.969 L58.998,26.969 L57.007,26.969 L57.007,24.969 ZM53.000,24.969 L55.007,24.969 L55.007,26.969 L53.000,26.969 L53.000,24.969 ZM53.345,92.421 L52.352,94.167 L50.634,93.175 L51.000,92.499 L51.613,91.421 L53.345,92.421 ZM49.005,24.969 L51.000,24.969 L51.000,26.969 L49.005,26.969 L49.005,24.969 ZM47.729,94.311 L46.767,92.622 L48.511,91.643 L49.448,93.346 L47.729,94.311 ZM44.780,89.129 L46.524,88.151 L47.515,89.893 L45.771,90.871 L44.780,89.129 ZM44.996,24.969 L47.005,24.969 L47.005,26.969 L44.996,26.969 L44.996,24.969 ZM43.784,87.379 L42.783,85.620 L44.528,84.642 L45.528,86.400 L43.784,87.379 ZM40.795,82.127 L42.540,81.148 L43.531,82.891 L41.787,83.870 L40.795,82.127 ZM41.006,24.969 L42.996,24.969 L42.996,26.969 L41.006,26.969 L41.006,24.969 ZM39.799,80.376 L38.799,78.618 L40.543,77.639 L41.544,79.398 L39.799,80.376 ZM36.812,75.125 L38.556,74.147 L39.547,75.889 L37.803,76.867 L36.812,75.125 ZM36.997,24.969 L39.006,24.969 L39.006,26.969 L36.997,26.969 L36.997,24.969 ZM35.815,73.375 L34.815,71.616 L36.559,70.638 L37.560,72.396 L35.815,73.375 ZM32.826,68.122 L34.571,67.143 L35.563,68.887 L33.819,69.866 L32.826,68.122 ZM33.006,24.969 L34.998,24.969 L34.998,26.969 L33.006,26.969 L33.006,24.969 ZM31.830,66.371 L30.830,64.613 L32.574,63.634 L33.575,65.393 L31.830,66.371 ZM28.843,61.120 L30.587,60.142 L31.578,61.884 L29.834,62.862 L28.843,61.120 ZM28.998,24.969 L31.006,24.969 L31.006,26.969 L28.998,26.969 L28.998,24.969 ZM27.846,59.370 L26.846,57.611 L28.590,56.633 L29.591,58.391 L27.846,59.370 ZM24.858,54.118 L26.602,53.139 L27.594,54.882 L25.850,55.861 L24.858,54.118 ZM25.007,24.969 L26.997,24.969 L26.997,26.969 L25.007,26.969 L25.007,24.969 ZM23.862,52.367 L22.861,50.609 L24.606,49.630 L25.606,51.389 L23.862,52.367 ZM20.874,47.116 L22.618,46.138 L23.610,47.880 L21.865,48.858 L20.874,47.116 ZM21.000,24.969 L23.008,24.969 L23.008,26.969 L21.000,26.969 L21.000,24.969 ZM19.878,45.366 L18.878,43.608 L20.623,42.630 L21.622,44.387 L19.878,45.366 ZM16.888,40.112 L18.633,39.133 L19.626,40.879 L17.882,41.858 L16.888,40.112 ZM17.006,24.969 L19.000,24.969 L19.000,26.969 L17.006,26.969 L17.006,24.969 ZM15.892,38.361 L14.892,36.603 L16.636,35.624 L17.637,37.382 L15.892,38.361 ZM12.905,33.110 L14.649,32.132 L15.640,33.874 L13.896,34.852 L12.905,33.110 ZM12.998,24.969 L15.006,24.969 L15.006,26.969 L12.998,26.969 L12.998,24.969 ZM11.908,31.359 L10.908,29.601 L12.650,28.624 L13.653,30.381 L11.908,31.359 ZM50.869,96.777 L49.131,96.777 L48.725,96.062 L50.200,95.234 L51.364,95.906 L50.869,96.777 ZM86.951,33.315 L85.966,35.046 L84.234,34.046 L85.218,32.315 L86.951,33.315 ZM84.978,36.785 L83.985,38.531 L82.253,37.531 L83.246,35.785 L84.978,36.785 ZM82.996,40.270 L82.013,42.000 L80.281,41.000 L81.264,39.270 L82.996,40.270 ZM81.024,43.738 L80.031,45.485 L78.299,44.485 L79.292,42.738 L81.024,43.738 ZM79.043,47.223 L78.057,48.958 L76.325,47.958 L77.311,46.223 L79.043,47.223 ZM77.068,50.696 L76.076,52.442 L74.344,51.442 L75.336,49.696 L77.068,50.696 ZM75.087,54.180 L74.104,55.910 L72.372,54.910 L73.355,53.180 L75.087,54.180 ZM73.115,57.649 L72.122,59.395 L70.390,58.395 L71.383,56.649 L73.115,57.649 ZM71.134,61.134 L70.150,62.865 L68.418,61.865 L69.402,60.134 L71.134,61.134 ZM69.161,64.604 L68.168,66.350 L66.436,65.350 L67.429,63.604 L69.161,64.604 ZM67.180,68.089 L66.196,69.818 L64.464,68.818 L65.448,67.089 L67.180,68.089 ZM65.208,71.557 L64.215,73.303 L62.483,72.303 L63.476,70.557 L65.208,71.557 ZM63.226,75.042 L62.241,76.774 L60.509,75.774 L61.494,74.042 L63.226,75.042 ZM61.253,78.513 L60.260,80.259 L58.528,79.259 L59.521,77.513 L61.253,78.513 ZM59.271,81.998 L58.288,83.728 L56.556,82.728 L57.539,80.998 L59.271,81.998 ZM57.299,85.466 L56.306,87.213 L54.574,86.213 L55.567,84.466 L57.299,85.466 ZM54.334,90.682 L52.602,89.682 L53.586,87.951 L55.318,88.951 L54.334,90.682 ZM87.939,31.577 L86.207,30.577 L87.200,28.830 L88.932,29.830 L87.939,31.577 Z" class="cls-1"/></g><text x="0" y="115" fill="#000000" font-size="5px" font-weight="bold" font-family="'Helvetica Neue', Helvetica, Arial-Unicode, Arial, Sans-serif">Created by DaanDirk</text><text x="0" y="120" fill="#000000" font-size="5px" font-weight="bold" font-family="'Helvetica Neue', Helvetica, Arial-Unicode, Arial, Sans-serif">from the Noun Project</text></svg>