<svg xmlns="http://www.w3.org/2000/svg" xmlns:xlink="http://www.w3.org/1999/xlink" version="1.1" baseProfile="basic" x="0px" y="0px" viewBox="0 0 100 125" xml:space="preserve"><rect x="18.902" y="36.624" transform="matrix(-0.866 0.5 -0.5 -0.866 55.7303 60.0463)" width="1.837" height="1.732"/><rect x="19.681" y="29.219" width="1.732" height="1.838"/><rect x="30.076" y="29.219" width="1.733" height="1.838"/><rect x="17.165" y="33.611" transform="matrix(-0.866 0.5 -0.5 -0.866 50.9834 55.2932)" width="1.837" height="1.732"/><rect x="26.611" y="29.219" width="1.732" height="1.838"/><rect x="31.027" y="57.618" transform="matrix(-0.866 0.5 -0.5 -0.866 88.8525 93.1588)" width="1.837" height="1.732"/><rect x="33.541" y="29.219" width="1.732" height="1.838"/><rect x="27.562" y="51.629" transform="matrix(-0.866 0.5 -0.5 -0.866 79.3938 83.7153)" width="1.837" height="1.732"/><rect x="20.634" y="39.612" transform="matrix(-0.866 0.5 -0.5 -0.866 60.4564 64.7564)" width="1.837" height="1.732"/><rect x="25.83" y="48.606" transform="matrix(-0.866 0.5 -0.5 -0.866 74.6492 78.9405)" width="1.837" height="1.732"/><rect x="29.294" y="54.63" transform="matrix(-0.866 0.5 -0.5 -0.866 84.1262 88.4496)" width="1.837" height="1.732"/><rect x="22.366" y="42.626" transform="matrix(-0.866 0.5 -0.5 -0.866 65.1952 69.5144)" width="1.837" height="1.732"/><rect x="24.098" y="45.627" transform="matrix(-0.866 0.5 -0.5 -0.866 69.9275 74.2484)" width="1.837" height="1.732"/><rect x="23.146" y="29.219" width="1.732" height="1.838"/><rect x="68.191" y="29.219" width="1.733" height="1.838"/><rect x="64.726" y="29.219" width="1.732" height="1.838"/><rect x="37.006" y="29.219" width="1.733" height="1.838"/><rect x="71.656" y="29.219" width="1.732" height="1.838"/><rect x="78.586" y="29.219" width="1.732" height="1.838"/><rect x="75.121" y="29.219" width="1.732" height="1.838"/><rect x="61.261" y="29.219" width="1.733" height="1.838"/><rect x="43.936" y="29.219" width="1.732" height="1.838"/><rect x="47.401" y="29.219" width="1.732" height="1.838"/><rect x="40.471" y="29.219" width="1.732" height="1.838"/><rect x="57.796" y="29.219" width="1.732" height="1.838"/><rect x="50.866" y="29.219" width="1.732" height="1.838"/><rect x="54.331" y="29.219" width="1.732" height="1.838"/><rect x="39.694" y="72.632" transform="matrix(-0.866 0.5 -0.5 -0.866 112.5338 116.8419)" width="1.837" height="1.732"/><rect x="68.863" y="54.637" transform="matrix(0.866 0.5 -0.5 0.866 37.1016 -27.4551)" width="1.837" height="1.732"/><rect x="74.048" y="45.642" transform="matrix(0.866 0.5 -0.5 0.866 33.2984 -31.2527)" width="1.837" height="1.732"/><rect x="72.327" y="48.636" transform="matrix(0.866 0.5 -0.5 0.866 34.5648 -29.9912)" width="1.837" height="1.732"/><rect x="70.583" y="51.644" transform="matrix(0.866 0.5 -0.5 0.866 35.8353 -28.7162)" width="1.837" height="1.732"/><rect x="63.679" y="63.624" transform="matrix(0.866 0.5 -0.5 0.866 40.9004 -23.6588)" width="1.837" height="1.732"/><rect x="61.935" y="66.632" transform="matrix(0.866 0.5 -0.5 0.866 42.1709 -22.3838)" width="1.837" height="1.732"/><rect x="67.13" y="57.639" transform="matrix(0.866 0.5 -0.5 0.866 38.3702 -26.1864)" width="1.837" height="1.732"/><rect x="65.419" y="60.628" transform="matrix(0.866 0.5 -0.5 0.866 39.6355 -24.9303)" width="1.837" height="1.732"/><rect x="80.976" y="33.638" transform="matrix(0.866 0.5 -0.5 0.866 28.2246 -36.3254)" width="1.837" height="1.732"/><rect x="79.244" y="36.639" transform="matrix(0.866 0.5 -0.5 0.866 29.4931 -35.0572)" width="1.837" height="1.732"/><rect x="32.758" y="60.632" transform="matrix(-0.866 0.5 -0.5 -0.866 93.591 97.9175)" width="1.837" height="1.732"/><rect x="77.523" y="39.633" transform="matrix(0.866 0.5 -0.5 0.866 30.7594 -33.7957)" width="1.837" height="1.732"/><rect x="75.78" y="42.64" transform="matrix(0.866 0.5 -0.5 0.866 32.0296 -32.521)" width="1.837" height="1.732"/><rect x="41.427" y="75.62" transform="matrix(-0.866 0.5 -0.5 -0.866 117.2602 121.5505)" width="1.837" height="1.732"/><rect x="44.891" y="81.621" transform="matrix(-0.866 0.5 -0.5 -0.866 126.7264 131.0172)" width="1.837" height="1.732"/><rect x="43.159" y="78.62" transform="matrix(-0.866 0.5 -0.5 -0.866 121.9939 126.2832)" width="1.837" height="1.732"/><rect x="37.963" y="69.618" transform="matrix(-0.866 0.5 -0.5 -0.866 107.7953 112.0831)" width="1.837" height="1.732"/><rect x="36.231" y="66.607" transform="matrix(-0.866 0.5 -0.5 -0.866 103.0584 107.3306)" width="1.837" height="1.732"/><rect x="34.498" y="63.629" transform="matrix(-0.866 0.5 -0.5 -0.866 98.3364 102.6395)" width="1.837" height="1.732"/><rect x="58.45" y="72.646" transform="matrix(0.866 0.5 -0.5 0.866 44.7111 -19.8358)" width="1.837" height="1.732"/><rect x="56.73" y="75.64" transform="matrix(0.866 0.5 -0.5 0.866 45.9774 -18.5744)" width="1.837" height="1.732"/><rect x="54.985" y="78.647" transform="matrix(0.866 0.5 -0.5 0.866 47.2475 -17.2993)" width="1.837" height="1.732"/><rect x="46.672" y="84.59" transform="matrix(0.5 0.866 -0.866 0.5 97.8208 1.5845)" width="1.732" height="1.837"/><rect x="60.194" y="69.639" transform="matrix(0.866 0.5 -0.5 0.866 43.4411 -21.1108)" width="1.837" height="1.732"/><rect x="51.521" y="84.642" transform="matrix(0.866 0.5 -0.5 0.866 49.7808 -14.7637)" width="1.837" height="1.732"/><rect x="53.265" y="81.642" transform="matrix(0.866 0.5 -0.5 0.866 48.5144 -16.0378)" width="1.837" height="1.732"/><path d="M50,8.438L14.003,29.219v41.563L50,91.563l35.997-20.781V29.219L50,8.438z M84.099,69.688l-32.2,18.591l0.044-0.076  l-1.593-0.919L50,87.888l-0.35-0.604l-1.593,0.919l0.044,0.076l-32.2-18.591V32.503l0.105,0.182l1.593-0.919l-0.411-0.709h0.761  v-1.838h-0.153L50,10.625l32.204,18.594h-0.153v1.838h0.761l-0.411,0.709l1.593,0.919l0.105-0.182L84.099,69.688L84.099,69.688z"/><text x="0" y="115" fill="#000000" font-size="5px" font-weight="bold" font-family="'Helvetica Neue', Helvetica, Arial-Unicode, Arial, Sans-serif">Created by DaanDirk</text><text x="0" y="120" fill="#000000" font-size="5px" font-weight="bold" font-family="'Helvetica Neue', Helvetica, Arial-Unicode, Arial, Sans-serif">from the Noun Project</text></svg>