<svg xmlns="http://www.w3.org/2000/svg" xmlns:xlink="http://www.w3.org/1999/xlink" version="1.1" baseProfile="basic" x="0px" y="0px" viewBox="0 0 100 125" xml:space="preserve"><path d="M83.994,32.734l-1.593-0.919l0.411-0.709h-0.761v-1.838h0.153L50,10.675L17.796,29.269h0.153v1.838h-0.761l0.411,0.709  l-1.593,0.919l-0.105-0.182v37.185l32.2,18.591l-0.044-0.076l1.593-0.919L50,87.938l0.35-0.604l1.593,0.919l-0.044,0.076  l32.2-18.591V32.553L83.994,32.734z M43.936,29.269h1.732v1.838h-1.732V29.269z M40.471,29.269h1.732v1.838h-1.732V29.269z   M37.006,29.269h1.733v1.838h-1.733V29.269z M33.541,29.269h1.732v1.838h-1.732V29.269z M30.076,29.269h1.733v1.838h-1.733V29.269z   M26.611,29.269h1.732v1.838h-1.732V29.269z M23.146,29.269h1.732v1.838h-1.732V29.269z M19.681,29.269h1.732v1.838h-1.732V29.269z   M16.872,34.239l1.591-0.919l0.866,1.5l-1.591,0.919L16.872,34.239z M18.609,37.24l1.591-0.919l0.866,1.5l-1.591,0.919L18.609,37.24  z M20.341,40.241l1.591-0.919l0.866,1.5l-1.591,0.919L20.341,40.241z M22.073,43.242l1.591-0.919l0.866,1.5l-1.591,0.919  L22.073,43.242z M23.805,46.243l1.591-0.919l0.866,1.5l-1.591,0.919L23.805,46.243z M25.537,49.244l1.591-0.919l0.866,1.5  l-1.591,0.919L25.537,49.244z M27.27,52.245l1.591-0.919l0.866,1.5l-1.591,0.919L27.27,52.245z M29.002,55.246l1.591-0.919  l0.866,1.5l-1.591,0.919L29.002,55.246z M30.734,58.247l1.591-0.919l0.866,1.5L31.6,59.747L30.734,58.247z M32.466,61.248  l1.591-0.919l0.866,1.5l-1.591,0.919L32.466,61.248z M34.206,64.244l1.591-0.919l0.866,1.5l-1.591,0.919L34.206,64.244z   M35.938,67.245l1.591-0.919l0.866,1.5l-1.591,0.919L35.938,67.245z M37.67,70.246l1.591-0.919l0.866,1.5l-1.591,0.919L37.67,70.246  z M39.402,73.247l1.591-0.919l0.866,1.5l-1.591,0.919L39.402,73.247z M41.134,76.248l1.591-0.919l0.866,1.5L42,77.748L41.134,76.248  z M42.867,79.249l1.591-0.919l0.866,1.5l-1.591,0.919L42.867,79.249z M44.599,82.25l1.591-0.919l0.866,1.5l-1.591,0.919  L44.599,82.25z M47.197,86.751l-0.866-1.5l1.591-0.919l0.866,1.5L47.197,86.751z M49.134,31.106h-1.732v-1.838h1.732V31.106z   M78.586,29.269h1.732v1.838h-1.732V29.269z M75.121,29.269h1.732v1.838h-1.732V29.269z M71.656,29.269h1.732v1.838h-1.732V29.269z   M68.191,29.269h1.733v1.838h-1.733V29.269z M64.726,29.269h1.732v1.838h-1.732V29.269z M61.261,29.269h1.733v1.838h-1.733V29.269z   M57.796,29.269h1.732v1.838h-1.732V29.269z M54.331,29.269h1.732v1.838h-1.732V29.269z M50.866,29.269h1.732v1.838h-1.732V29.269z   M52.803,86.746l-1.591-0.919l0.866-1.5l1.591,0.919L52.803,86.746z M54.535,83.753l-1.591-0.919l0.866-1.5l1.591,0.919  L54.535,83.753z M56.267,80.752l-1.591-0.919l0.866-1.5l1.591,0.919L56.267,80.752z M57.999,77.751l-1.591-0.919l0.866-1.5  l1.591,0.919L57.999,77.751z M59.731,74.751l-1.591-0.919l0.866-1.5l1.591,0.919L59.731,74.751z M61.464,71.75l-1.591-0.919  l0.866-1.5l1.591,0.919L61.464,71.75z M63.196,68.749l-1.591-0.919l0.866-1.5l1.591,0.919L63.196,68.749z M64.928,65.748  l-1.591-0.919l0.866-1.5l1.591,0.919L64.928,65.748z M66.668,62.751l-1.591-0.919l0.866-1.5l1.591,0.919L66.668,62.751z M68.4,59.75  l-1.591-0.919l0.866-1.5l1.591,0.919L68.4,59.75z M70.132,56.749l-1.591-0.919l0.866-1.5l1.591,0.919L70.132,56.749z M71.864,53.748  l-1.591-0.919l0.866-1.5l1.591,0.919L71.864,53.748z M73.596,50.747l-1.591-0.919l0.866-1.5l1.591,0.919L73.596,50.747z   M75.328,47.746l-1.591-0.919l0.866-1.5l1.591,0.919L75.328,47.746z M77.061,44.745l-1.591-0.919l0.866-1.5l1.591,0.919  L77.061,44.745z M78.793,41.744l-1.591-0.919l0.866-1.5l1.591,0.919L78.793,41.744z M80.525,38.743l-1.591-0.919l0.866-1.5  l1.591,0.919L80.525,38.743z M82.257,35.742l-1.591-0.919l0.866-1.5l1.591,0.919L82.257,35.742z"/><path d="M50,6.15l-38,21.9v43.9l38,21.9l38-21.9v-43.9L50,6.15z M86,70.85l-36,20.8l-36-20.8v-41.6l36-20.8l36,20.8V70.85z"/><text x="0" y="115" fill="#000000" font-size="5px" font-weight="bold" font-family="'Helvetica Neue', Helvetica, Arial-Unicode, Arial, Sans-serif">Created by DaanDirk</text><text x="0" y="120" fill="#000000" font-size="5px" font-weight="bold" font-family="'Helvetica Neue', Helvetica, Arial-Unicode, Arial, Sans-serif">from the Noun Project</text></svg>