<svg xmlns="http://www.w3.org/2000/svg" xmlns:xlink="http://www.w3.org/1999/xlink" version="1.1" baseProfile="basic" x="0px" y="0px" viewBox="0 0 100 125" xml:space="preserve"><path d="M82.204,70.831h-20.21l-0.53,0.919l-1.591-0.919H40.122l-1.585,0.915l-0.529-0.915H17.795l30.306,17.498l-0.044-0.076  l1.593-0.919L50,87.938l0.35-0.604l1.593,0.919l-0.044,0.076L82.204,70.831z M39.402,73.247l1.591-0.919l0.866,1.5l-1.591,0.919  L39.402,73.247z M41.134,76.248l1.591-0.919l0.866,1.5L42,77.748L41.134,76.248z M42.867,79.249l1.591-0.919l0.866,1.5l-1.591,0.919  L42.867,79.249z M44.599,82.25l1.591-0.919l0.866,1.5l-1.591,0.919L44.599,82.25z M47.197,86.751l-0.866-1.5l1.591-0.919l0.866,1.5  L47.197,86.751z M59.006,72.332l1.591,0.919l-0.866,1.5l-1.591-0.919L59.006,72.332z M57.274,75.332l1.591,0.919l-0.866,1.5  l-1.591-0.919L57.274,75.332z M55.542,78.333l1.591,0.919l-0.866,1.5l-1.591-0.919L55.542,78.333z M53.81,81.334l1.591,0.919  l-0.866,1.5l-1.591-0.919L53.81,81.334z M51.212,85.828l0.866-1.5l1.591,0.919l-0.866,1.5L51.212,85.828z"/><path d="M83.994,32.734l-1.593-0.919l0.411-0.709h-0.761v-1.838h0.153l-30.31-17.5l10.102,17.5h0.997v1.728l10.068,17.441l1.4,0.808  l-0.467,0.809l10.103,17.502V32.551L83.994,32.734z M78.586,29.269h1.732v1.838h-1.732V29.269z M75.121,29.269h1.732v1.838h-1.732  V29.269z M66.459,31.106h-1.732v-1.838h1.732V31.106z M69.924,31.106h-1.733v-1.838h1.733V31.106z M73.389,31.106h-1.732v-1.838  h1.732V31.106z M75.328,47.746l-1.591-0.919l0.866-1.5l1.591,0.919L75.328,47.746z M77.061,44.745l-1.591-0.919l0.866-1.5  l1.591,0.919L77.061,44.745z M78.793,41.744l-1.591-0.919l0.866-1.5l1.591,0.919L78.793,41.744z M80.525,38.743l-1.591-0.919  l0.866-1.5l1.591,0.919L80.525,38.743z M82.257,35.742l-1.591-0.919l0.866-1.5l1.591,0.919L82.257,35.742z"/><path d="M26.002,50.049l-0.465-0.805l1.395-0.805l10.074-17.447v-1.723h0.995l10.104-17.5l-30.31,17.5h0.153v1.838h-0.761  l0.411,0.709l-1.593,0.919L15.9,32.553v34.991L26.002,50.049z M18.609,37.24l1.591-0.919l0.866,1.5l-1.591,0.919L18.609,37.24z   M22.073,43.242l1.591-0.919l0.866,1.5l-1.591,0.919L22.073,43.242z M33.541,29.269h1.732v1.838h-1.732V29.269z M30.076,29.269  h1.733v1.838h-1.733V29.269z M26.611,29.269h1.732v1.838h-1.732V29.269z M26.263,46.824l-1.591,0.919l-0.866-1.5l1.591-0.919  L26.263,46.824z M23.146,29.269h1.732v1.838h-1.732V29.269z M22.798,40.822l-1.591,0.919l-0.866-1.5l1.591-0.919L22.798,40.822z   M19.681,29.269h1.732v1.838h-1.732V29.269z M18.464,33.321l0.866,1.5l-1.591,0.919l-0.866-1.5L18.464,33.321z"/><path d="M17.188,68.994h65.625L50,12.162L17.188,68.994z M27.27,52.245l1.591-0.919l0.866,1.5l-1.591,0.919L27.27,52.245z   M29.002,55.246l1.591-0.919l0.866,1.5l-1.591,0.919L29.002,55.246z M30.734,58.247l1.591-0.919l0.866,1.5L31.6,59.747  L30.734,58.247z M32.466,61.248l1.591-0.919l0.866,1.5l-1.591,0.919L32.466,61.248z M34.206,64.244l1.591-0.919l0.866,1.5  l-1.591,0.919L34.206,64.244z M36.804,68.746l-0.866-1.5l1.591-0.919l0.866,1.5L36.804,68.746z M42.204,31.106h-1.732v-1.838h1.732  V31.106z M45.669,31.106h-1.732v-1.838h1.732V31.106z M49.134,31.106h-1.732v-1.838h1.732V31.106z M71.139,51.329l1.591,0.919  l-0.866,1.5l-1.591-0.919L71.139,51.329z M69.407,54.33l1.591,0.919l-0.866,1.5l-1.591-0.919L69.407,54.33z M67.675,57.331  l1.591,0.919l-0.866,1.5l-1.591-0.919L67.675,57.331z M65.943,60.332l1.591,0.919l-0.866,1.5l-1.591-0.919L65.943,60.332z   M64.203,63.328l1.591,0.919l-0.866,1.5l-1.591-0.919L64.203,63.328z M62.471,66.33l1.591,0.919l-0.866,1.5l-1.591-0.919  L62.471,66.33z M57.796,29.269h1.732v1.838h-1.732V29.269z M54.331,29.269h1.732v1.838h-1.732V29.269z M50.866,29.269h1.732v1.838  h-1.732V29.269z"/><path d="M50,6.15l-38,21.9v43.9l38,21.9l38-21.9v-43.9L50,6.15z M86,70.85l-36,20.8l-36-20.8v-41.6l36-20.8l36,20.8V70.85z"/><text x="0" y="115" fill="#000000" font-size="5px" font-weight="bold" font-family="'Helvetica Neue', Helvetica, Arial-Unicode, Arial, Sans-serif">Created by DaanDirk</text><text x="0" y="120" fill="#000000" font-size="5px" font-weight="bold" font-family="'Helvetica Neue', Helvetica, Arial-Unicode, Arial, Sans-serif">from the Noun Project</text></svg>