<svg xmlns="http://www.w3.org/2000/svg" xmlns:xlink="http://www.w3.org/1999/xlink" version="1.1" baseProfile="basic" x="0px" y="0px" viewBox="0 0 100 125" xml:space="preserve"><rect x="18.902" y="36.624" transform="matrix(-0.866 0.5 -0.5 -0.866 55.7303 60.0463)" width="1.837" height="1.732"/><rect x="19.681" y="29.219" width="1.732" height="1.838"/><rect x="30.076" y="29.219" width="1.733" height="1.838"/><rect x="17.165" y="33.611" transform="matrix(-0.866 0.5 -0.5 -0.866 50.9834 55.2932)" width="1.837" height="1.732"/><rect x="26.611" y="29.219" width="1.732" height="1.838"/><rect x="31.027" y="57.618" transform="matrix(-0.866 0.5 -0.5 -0.866 88.8525 93.1588)" width="1.837" height="1.732"/><rect x="33.541" y="29.219" width="1.732" height="1.838"/><rect x="27.562" y="51.629" transform="matrix(-0.866 0.5 -0.5 -0.866 79.3938 83.7153)" width="1.837" height="1.732"/><rect x="20.634" y="39.612" transform="matrix(-0.866 0.5 -0.5 -0.866 60.4564 64.7564)" width="1.837" height="1.732"/><rect x="29.294" y="54.63" transform="matrix(-0.866 0.5 -0.5 -0.866 84.1262 88.4496)" width="1.837" height="1.732"/><rect x="22.366" y="42.626" transform="matrix(-0.866 0.5 -0.5 -0.866 65.1952 69.5144)" width="1.837" height="1.732"/><rect x="24.098" y="45.627" transform="matrix(-0.866 0.5 -0.5 -0.866 69.9275 74.2484)" width="1.837" height="1.732"/><rect x="23.146" y="29.219" width="1.732" height="1.838"/><rect x="68.191" y="29.219" width="1.733" height="1.838"/><rect x="64.726" y="29.219" width="1.732" height="1.838"/><rect x="71.656" y="29.219" width="1.732" height="1.838"/><rect x="78.586" y="29.219" width="1.732" height="1.838"/><rect x="75.121" y="29.219" width="1.732" height="1.838"/><rect x="43.936" y="29.219" width="1.732" height="1.838"/><rect x="47.401" y="29.219" width="1.732" height="1.838"/><rect x="40.471" y="29.219" width="1.732" height="1.838"/><rect x="57.796" y="29.219" width="1.732" height="1.838"/><rect x="50.866" y="29.219" width="1.732" height="1.838"/><rect x="54.331" y="29.219" width="1.732" height="1.838"/><rect x="39.694" y="72.632" transform="matrix(-0.866 0.5 -0.5 -0.866 112.5338 116.8419)" width="1.837" height="1.732"/><rect x="68.851" y="54.602" transform="matrix(-0.866 -0.5 0.5 -0.866 102.4564 138.3906)" width="1.837" height="1.732"/><rect x="74.048" y="45.642" transform="matrix(0.866 0.5 -0.5 0.866 33.2984 -31.2527)" width="1.837" height="1.732"/><rect x="70.572" y="51.607" transform="matrix(-0.866 -0.5 0.5 -0.866 107.1647 133.6624)" width="1.837" height="1.732"/><rect x="63.647" y="63.601" transform="matrix(-0.866 -0.5 0.5 -0.866 88.2472 152.5795)" width="1.837" height="1.732"/><rect x="61.903" y="66.608" transform="matrix(-0.866 -0.5 0.5 -0.866 83.4882 157.3188)" width="1.837" height="1.732"/><rect x="67.12" y="57.603" transform="matrix(-0.866 -0.5 0.5 -0.866 97.7253 143.1232)" width="1.837" height="1.732"/><rect x="65.387" y="60.603" transform="matrix(-0.866 -0.5 0.5 -0.866 92.9912 147.8561)" width="1.837" height="1.732"/><rect x="80.976" y="33.638" transform="matrix(0.866 0.5 -0.5 0.866 28.2246 -36.3254)" width="1.837" height="1.732"/><rect x="79.244" y="36.639" transform="matrix(0.866 0.5 -0.5 0.866 29.4931 -35.0572)" width="1.837" height="1.732"/><rect x="32.758" y="60.632" transform="matrix(-0.866 0.5 -0.5 -0.866 93.591 97.9175)" width="1.837" height="1.732"/><rect x="77.523" y="39.633" transform="matrix(0.866 0.5 -0.5 0.866 30.7594 -33.7957)" width="1.837" height="1.732"/><rect x="75.78" y="42.64" transform="matrix(0.866 0.5 -0.5 0.866 32.0296 -32.521)" width="1.837" height="1.732"/><rect x="41.427" y="75.62" transform="matrix(-0.866 0.5 -0.5 -0.866 117.2602 121.5505)" width="1.837" height="1.732"/><rect x="44.891" y="81.621" transform="matrix(-0.866 0.5 -0.5 -0.866 126.7264 131.0172)" width="1.837" height="1.732"/><rect x="43.159" y="78.62" transform="matrix(-0.866 0.5 -0.5 -0.866 121.9939 126.2832)" width="1.837" height="1.732"/><rect x="36.304" y="66.586" transform="matrix(0.5 0.866 -0.866 0.5 77.0444 1.5612)" width="1.732" height="1.837"/><rect x="34.498" y="63.629" transform="matrix(-0.866 0.5 -0.5 -0.866 98.3364 102.6395)" width="1.837" height="1.732"/><rect x="58.439" y="72.61" transform="matrix(-0.866 -0.5 0.5 -0.866 74.0233 166.7867)" width="1.837" height="1.732"/><rect x="56.719" y="75.604" transform="matrix(-0.866 -0.5 0.5 -0.866 69.3161 171.5145)" width="1.837" height="1.732"/><rect x="54.975" y="78.612" transform="matrix(-0.866 -0.5 0.5 -0.866 64.5581 176.2547)" width="1.837" height="1.732"/><rect x="46.672" y="84.59" transform="matrix(0.5 0.866 -0.866 0.5 97.8208 1.5845)" width="1.732" height="1.837"/><rect x="51.49" y="84.617" transform="matrix(-0.866 -0.5 0.5 -0.866 55.053 185.718)" width="1.837" height="1.732"/><rect x="53.255" y="81.607" transform="matrix(-0.866 -0.5 0.5 -0.866 59.8514 180.9827)" width="1.837" height="1.732"/><path d="M50,8.438L14.003,29.219v41.563L50,91.563l35.997-20.781V29.219L50,8.438z M82.813,68.944H17.188L50,12.112L82.813,68.944z   M15.901,32.502l0.105,0.182l1.593-0.919l-0.411-0.709h0.761v-1.838h-0.153l30.31-17.5l-10.104,17.5h-0.995v1.723L26.933,48.387  l-1.395,0.805l0.465,0.805L15.902,67.491L15.901,32.502L15.901,32.502z M50.35,87.284L50,87.888l-0.35-0.604l-1.593,0.919  l0.044,0.076L17.795,70.781h20.213l0.529,0.915l1.585-0.915h19.751l1.591,0.919l0.53-0.919h20.21L51.898,88.279l0.044-0.076  L50.35,87.284z M84.099,67.507L73.996,50.004l0.467-0.809l-1.4-0.808L62.995,30.946v-1.728h-0.997l-10.102-17.5l30.31,17.5h-0.153  v1.838h0.761l-0.411,0.709l1.593,0.919l0.105-0.182v35.004H84.099z"/><text x="0" y="115" fill="#000000" font-size="5px" font-weight="bold" font-family="'Helvetica Neue', Helvetica, Arial-Unicode, Arial, Sans-serif">Created by DaanDirk</text><text x="0" y="120" fill="#000000" font-size="5px" font-weight="bold" font-family="'Helvetica Neue', Helvetica, Arial-Unicode, Arial, Sans-serif">from the Noun Project</text></svg>