<svg xmlns="http://www.w3.org/2000/svg" viewBox="0 0 100 125" x="0px" y="0px"><title>psp </title><path d="M83.994,32.734,82.4,31.815l.411-.709h-.761V29.268H82.2L50,10.675,17.8,29.269h.153v1.838h-.761l.411.709-1.593.919-.1-.182V69.738L48.1,88.329l-.044-.076,1.593-.919.35.6.35-.6,1.593.919-.044.076L84.1,69.738V32.553ZM43.936,29.269h1.732v1.838H43.936Zm-3.465,0H42.2v1.838H40.471Zm-3.465,0h1.733v1.838H37.006Zm-3.465,0h1.732v1.838H33.541Zm-3.465,0h1.733v1.838H30.076Zm-3.465,0h1.732v1.838H26.611Zm-3.465,0h1.732v1.838H23.146Zm-3.465,0h1.732v1.838H19.681Zm-2.809,4.97,1.591-.919.866,1.5-1.591.919Zm1.737,3,1.591-.919.866,1.5-1.591.919Zm1.732,3,1.591-.919.866,1.5-1.591.919Zm1.732,3,1.591-.919.866,1.5-1.591.919Zm1.732,3,1.591-.919.866,1.5-1.591.919Zm1.732,3,1.591-.919.866,1.5-1.591.919Zm1.733,3,1.591-.919.866,1.5-1.591.919Zm1.732,3,1.591-.919.866,1.5-1.591.919Zm1.732,3,1.591-.919.866,1.5-1.591.919Zm1.732,3,1.591-.919.866,1.5-1.591.919Zm1.74,3,1.591-.919.866,1.5-1.591.919Zm1.732,3,1.591-.919.866,1.5-1.591.919Zm1.732,3,1.591-.919.866,1.5-1.591.919Zm1.732,3,1.591-.919.866,1.5-1.591.919Zm1.732,3,1.591-.919.866,1.5L42,77.748Zm1.733,3,1.591-.919.866,1.5-1.591.919Zm1.732,3,1.591-.919.866,1.5-1.591.919Zm2.6,4.5-.866-1.5,1.591-.919.866,1.5Zm1.937-55.645H47.4V29.268h1.732Zm29.452-1.837h1.732v1.838H78.586Zm-3.465,0h1.732v1.838H75.121Zm-3.465,0h1.732v1.838H71.656Zm-3.465,0h1.733v1.838H68.191Zm-3.465,0h1.732v1.838H64.726Zm-3.465,0h1.733v1.838H61.261Zm-3.465,0h1.732v1.838H57.8Zm-3.465,0h1.732v1.838H54.331Zm-3.465,0H52.6v1.838H50.866ZM52.8,86.746l-1.591-.919.866-1.5,1.591.919Zm1.732-2.993-1.591-.919.866-1.5,1.591.919Zm1.732-3-1.591-.919.866-1.5,1.591.919Zm1.732-3-1.591-.919.866-1.5,1.591.919Zm1.732-3-1.591-.919.866-1.5,1.591.919Zm1.733-3-1.591-.919.866-1.5,1.591.919Zm1.732-3L61.6,67.83l.866-1.5,1.591.919Zm1.732-3-1.591-.919.866-1.5,1.591.919Zm1.74-3-1.591-.919.866-1.5,1.591.919Zm1.732-3-1.591-.919.866-1.5,1.591.919Zm1.732-3-1.591-.919.866-1.5L71,55.249Zm1.732-3-1.591-.919.866-1.5,1.591.919Zm1.732-3L72,49.828l.866-1.5,1.591.919Zm1.732-3-1.591-.919.866-1.5,1.591.919Zm1.733-3-1.591-.919.866-1.5,1.591.919Zm1.732-3L77.2,40.825l.866-1.5,1.591.919Zm1.732-3-1.591-.919.866-1.5,1.591.919Zm1.732-3-1.591-.919.866-1.5,1.591.919Z"/><text x="0" y="115" fill="#000000" font-size="5px" font-weight="bold" font-family="'Helvetica Neue', Helvetica, Arial-Unicode, Arial, Sans-serif">Created by DaanDirk</text><text x="0" y="120" fill="#000000" font-size="5px" font-weight="bold" font-family="'Helvetica Neue', Helvetica, Arial-Unicode, Arial, Sans-serif">from the Noun Project</text></svg>