<svg xmlns="http://www.w3.org/2000/svg" viewBox="0 0 100 125" x="0px" y="0px"><title>psp </title><path d="M82.2,70.831H61.994l-.53.919-1.591-.919H40.122l-1.585.915-.529-.915H17.8L48.1,88.329l-.044-.076,1.593-.919.35.6.35-.6,1.593.919-.044.076ZM39.4,73.247l1.591-.919.866,1.5-1.591.919Zm1.732,3,1.591-.919.866,1.5L42,77.748Zm1.733,3,1.591-.919.866,1.5-1.591.919Zm1.732,3,1.591-.919.866,1.5-1.591.919Zm2.6,4.5-.866-1.5,1.591-.919.866,1.5ZM59.006,72.332l1.591.919-.866,1.5-1.591-.919Zm-1.732,3,1.591.919L58,77.751l-1.591-.919Zm-1.732,3,1.591.919-.866,1.5-1.591-.919Zm-1.732,3,1.591.919-.866,1.5-1.591-.919Zm-2.6,4.494.866-1.5,1.591.919-.866,1.5ZM83.994,32.734,82.4,31.815l.411-.709h-.761V29.268H82.2l-30.31-17.5L62,29.268h1V31L73.061,48.437l1.4.808-.467.809,10.1,17.5V32.551Zm-5.408-3.465h1.732v1.838H78.586Zm-3.465,0h1.732v1.838H75.121Zm-8.662,1.837H64.727V29.268h1.732Zm3.465,0H68.191V29.268h1.733Zm3.465,0H71.657V29.268h1.732Zm1.939,16.64-1.591-.919.866-1.5,1.591.919Zm1.733-3-1.591-.919.866-1.5,1.591.919Zm1.732-3L77.2,40.825l.866-1.5,1.591.919Zm1.732-3-1.591-.919.866-1.5,1.591.919Zm1.732-3-1.591-.919.866-1.5,1.591.919ZM26,50.049l-.465-.805,1.4-.805L37.006,30.992V29.269H38l10.1-17.5L17.8,29.269h.153v1.838h-.761l.411.709L16,32.735l-.1-.182V67.544ZM18.609,37.24l1.591-.919.866,1.5-1.591.919Zm3.464,6,1.591-.919.866,1.5-1.591.919ZM33.541,29.269h1.732v1.838H33.541Zm-3.465,0h1.733v1.838H30.076Zm-3.465,0h1.732v1.838H26.611Zm-.348,17.555-1.591.919-.866-1.5,1.591-.919ZM23.146,29.269h1.732v1.838H23.146ZM22.8,40.822l-1.591.919-.866-1.5,1.591-.919ZM19.681,29.269h1.732v1.838H19.681Zm-1.217,4.052.866,1.5-1.591.919-.866-1.5ZM17.188,68.994H82.813L50,12.162ZM27.27,52.245l1.591-.919.866,1.5-1.591.919Zm1.732,3,1.591-.919.866,1.5-1.591.919Zm1.732,3,1.591-.919.866,1.5-1.591.919Zm1.732,3,1.591-.919.866,1.5-1.591.919Zm1.74,3,1.591-.919.866,1.5-1.591.919Zm2.6,4.5-.866-1.5,1.591-.919.866,1.5Zm5.4-37.64H40.472V29.268H42.2Zm3.465,0H43.937V29.268h1.732Zm3.465,0H47.4V29.268h1.732ZM71.139,51.329l1.591.919-.866,1.5-1.591-.919Zm-1.732,3L71,55.249l-.866,1.5-1.591-.919Zm-1.732,3,1.591.919-.866,1.5-1.591-.919Zm-1.732,3,1.591.919-.866,1.5-1.591-.919Zm-1.74,3,1.591.919-.866,1.5-1.591-.919Zm-1.732,3,1.591.919-.866,1.5-1.591-.919ZM57.8,29.269h1.732v1.838H57.8Zm-3.465,0h1.732v1.838H54.331Zm-3.465,0H52.6v1.838H50.866Z"/><text x="0" y="115" fill="#000000" font-size="5px" font-weight="bold" font-family="'Helvetica Neue', Helvetica, Arial-Unicode, Arial, Sans-serif">Created by DaanDirk</text><text x="0" y="120" fill="#000000" font-size="5px" font-weight="bold" font-family="'Helvetica Neue', Helvetica, Arial-Unicode, Arial, Sans-serif">from the Noun Project</text></svg>