<?xml version="1.0" encoding="iso-8859-1"?>
<!-- Generator: Adobe Illustrator 18.0.0, SVG Export Plug-In . SVG Version: 6.00 Build 0)  -->
<!DOCTYPE svg PUBLIC "-//W3C//DTD SVG 1.1//EN" "http://www.w3.org/Graphics/SVG/1.1/DTD/svg11.dtd">
<svg version="1.1" id="Capa_1" xmlns="http://www.w3.org/2000/svg" xmlns:xlink="http://www.w3.org/1999/xlink" x="0px" y="0px"
	 viewBox="0 0 343.497 343.497" style="enable-background:new 0 0 343.497 343.497;" xml:space="preserve">
<g>
	<path d="M248.688,236.938l-79.528-18.072c-2.153-0.49-4.297,0.86-4.787,3.014c-0.49,2.154,0.86,4.297,3.014,4.787l79.528,18.072
		c0.298,0.068,0.596,0.101,0.89,0.101c1.826,0,3.476-1.259,3.897-3.115C252.192,239.57,250.842,237.427,248.688,236.938z"/>
	<path d="M257.098,247.542c-2.209,0-4,1.791-4,4v74c0,2.209,1.791,4,4,4c2.209,0,4-1.791,4-4v-74
		C261.098,249.333,259.307,247.542,257.098,247.542z"/>
	<path d="M292.849,207.017l-29.721,25.492c-1.677,1.438-1.871,3.963-0.432,5.64c0.791,0.922,1.911,1.396,3.038,1.396
		c0.921,0,1.848-0.317,2.602-0.964l29.721-25.492c1.677-1.438,1.871-3.963,0.432-5.64
		C297.051,205.772,294.526,205.579,292.849,207.017z"/>
	<path d="M154.159,19.798c-2.209-0.183-4.139,1.442-4.328,3.643l-9.175,106.853c-0.189,2.201,1.442,4.139,3.643,4.328
		c0.117,0.01,0.232,0.015,0.347,0.015c2.054,0,3.802-1.573,3.981-3.658l9.175-106.853C157.991,21.925,156.36,19.987,154.159,19.798z
		"/>
	<path d="M131.829,140.717l-96.389,13.365c-2.188,0.303-3.716,2.323-3.413,4.511c0.277,2.002,1.992,3.451,3.957,3.451
		c0.183,0,0.368-0.013,0.554-0.039l96.389-13.365c2.188-0.303,3.716-2.323,3.413-4.511
		C136.037,141.942,134.018,140.417,131.829,140.717z"/>
	<path d="M196.343,189.794c1.463-1.655,1.308-4.183-0.347-5.646l-38.572-34.109c-1.655-1.463-4.183-1.307-5.646,0.347
		c-1.463,1.655-1.308,4.183,0.347,5.646l38.572,34.109c0.761,0.673,1.707,1.003,2.648,1.003
		C194.451,191.145,195.552,190.688,196.343,189.794z"/>
	<path d="M330.636,119.263l-3.906-25.458c-0.548-3.574-2.575-6.793-5.562-8.832l-31.029-21.184c-2.186-1.492-4.739-2.28-7.384-2.28
		c-3.107,0-6.122,1.108-8.488,3.121l-33.58,28.561c-3.416,2.906-5.096,7.294-4.493,11.738l3.68,27.139
		c0.498,3.668,2.537,6.97,5.594,9.058l31.738,21.667c2.186,1.492,4.739,2.28,7.383,2.28c3.318,0,6.483-1.242,8.914-3.499
		l33.097-30.727C329.786,127.891,331.294,123.56,330.636,119.263z M321.157,124.985l-32.472,30.147l-2.32-19.887
		c-0.256-2.195-2.245-3.762-4.437-3.51c-2.194,0.256-3.766,2.242-3.51,4.437l2.251,19.299l-30.691-20.952
		c-1.19-0.813-1.984-2.098-2.177-3.526l-3.239-23.89l26.365,18.805c0.704,0.502,1.516,0.744,2.319,0.744
		c1.249,0,2.479-0.583,3.26-1.678c1.283-1.798,0.865-4.296-0.934-5.579L246.559,98.7l32.892-27.976
		c0.921-0.783,2.095-1.215,3.305-1.215c1.029,0,2.022,0.307,2.873,0.888l30.158,20.589l-30.913,28.882
		c-1.614,1.508-1.7,4.04-0.192,5.654c0.788,0.843,1.854,1.269,2.924,1.269c0.978,0,1.958-0.357,2.73-1.077l29.035-27.127
		l3.358,21.889C322.985,122.148,322.397,123.834,321.157,124.985z"/>
	<path d="M296.139,191.52l-78.838-17.929l8.858-103.068c0.769-8.949-2.936-17.671-9.91-23.331L165.557,6.05
		C160.749,2.148,154.693,0,148.503,0c-1.239,0-2.49,0.086-3.718,0.257l-94.333,13.08c-12.046,1.67-21.554,11.26-23.12,23.32
		L12.938,147.469c-1.193,9.188,2.328,18.234,9.419,24.198l53.132,44.683c4.87,4.095,11.056,6.351,17.418,6.351
		c1.239,0,2.49-0.086,3.718-0.257l55.979-7.762c-2.544,3.607-3.952,7.958-3.952,12.429v72.42c0,9.674,6.519,18.218,15.854,20.778
		l81.965,22.422c1.891,0.514,3.81,0.766,5.71,0.766c5.261,0,10.384-1.929,14.399-5.556l39.201-35.351
		c4.525-4.083,7.12-9.916,7.12-16v-74.07C312.902,202.395,306.008,193.758,296.139,191.52z M95.526,214.52
		c-5.308,0.736-10.79-0.846-14.888-4.293l-53.132-44.683c-4.995-4.201-7.476-10.572-6.635-17.045L35.266,37.688
		c1.104-8.495,7.8-15.25,16.285-16.427l94.333-13.08C146.749,8.061,147.631,8,148.503,8c4.36,0,8.626,1.514,12.012,4.262
		l50.692,41.142c4.913,3.987,7.522,10.13,6.98,16.434l-9.802,114.053c-0.768,8.926-7.501,16.02-16.375,17.25L95.526,214.52z
		 M304.902,286.59c0,3.825-1.633,7.492-4.479,10.06l-39.203,35.352c-3.437,3.104-8.164,4.231-12.643,3.01l-81.958-22.419
		c-5.869-1.61-9.968-6.981-9.968-13.063v-72.42c0-3.741,1.567-7.347,4.3-9.896l4.642-4.334l27.516-3.815
		c12.598-1.747,22.157-11.817,23.247-24.489l0.252-2.938l77.758,17.683c6.203,1.407,10.535,6.834,10.535,13.199V286.59z"/>
</g>
<g>
</g>
<g>
</g>
<g>
</g>
<g>
</g>
<g>
</g>
<g>
</g>
<g>
</g>
<g>
</g>
<g>
</g>
<g>
</g>
<g>
</g>
<g>
</g>
<g>
</g>
<g>
</g>
<g>
</g>
</svg>
