<?xml version="1.0" encoding="iso-8859-1"?>
<!-- Generator: Adobe Illustrator 19.0.0, SVG Export Plug-In . SVG Version: 6.00 Build 0)  -->
<svg version="1.1" id="Layer_1" xmlns="http://www.w3.org/2000/svg" xmlns:xlink="http://www.w3.org/1999/xlink" x="0px" y="0px"
	 viewBox="0 0 512 512" style="enable-background:new 0 0 512 512;" xml:space="preserve">
<g>
	<g>
		<path d="M508.388,450.167l-39.264-34.029c-4.369-3.786-10.981-3.316-14.769,1.054c-3.787,4.37-3.315,10.982,1.054,14.769
			l18.053,15.646H87.917l97.022-57.537l57.069,32.109c2.541,1.43,5.563,1.736,8.339,0.844s5.053-2.901,6.285-5.543l26.539-56.914
			l20.457,17.554c4.165,3.575,10.383,3.325,14.249-0.571l62.777-63.252l83.093,57.129c4.764,3.276,11.284,2.07,14.559-2.696
			c3.276-4.765,2.07-11.283-2.696-14.559l-79.964-54.979l93.683-94.394c4.074-4.104,4.048-10.733-0.057-14.807
			c-4.103-4.074-10.732-4.05-14.807,0.057l-96.357,97.088l-53.264-36.621c-2.537-1.745-5.715-2.283-8.685-1.474
			c-2.97,0.809-5.434,2.887-6.737,5.677l-33.566,71.983l-97.751-83.879c-2.355-2.021-5.481-2.893-8.545-2.381
			c-3.06,0.512-5.737,2.355-7.306,5.032L60.204,419.521V308.378l89.223-168.971l109.025,107.86c2.232,2.207,5.343,3.288,8.461,2.969
			c3.123-0.329,5.934-2.043,7.657-4.669l44.05-67.128l37.941,42.45c2.154,2.408,5.283,3.681,8.521,3.469
			c3.223-0.22,6.164-1.915,7.969-4.594l97.898-145.269c3.231-4.795,1.964-11.303-2.831-14.535
			c-4.796-3.232-11.303-1.963-14.535,2.831l-90.376,134.109l-38.057-42.578c-2.167-2.425-5.341-3.703-8.584-3.465
			c-3.245,0.242-6.192,1.978-7.976,4.697l-44.507,67.825l-109.96-108.785c-2.357-2.331-5.678-3.412-8.954-2.904
			c-3.276,0.503-6.121,2.529-7.668,5.46L60.204,263.534V45.868L75.85,63.921c2.071,2.389,4.985,3.613,7.917,3.613
			c2.43,0,4.872-0.842,6.853-2.558c4.369-3.787,4.843-10.4,1.054-14.768L57.646,10.944c-0.08-0.091-0.153-0.17-0.227-0.25
			c-0.032-0.036-0.064-0.072-0.097-0.107c-0.075-0.078-0.146-0.146-0.216-0.213c-1.034-1.027-2.287-1.853-3.713-2.384
			c-4.094-1.528-8.708-0.351-11.572,2.952L7.792,50.205c-3.786,4.37-3.314,10.983,1.056,14.771
			c4.37,3.787,10.983,3.314,14.769-1.054l15.646-18.053v259.992c0,0.021,0,0.041,0,0.062v141.685H10.47
			c-5.783,0-10.47,4.689-10.47,10.47s4.688,10.47,10.47,10.47h28.793v25.652c0,5.782,4.688,10.47,10.47,10.47
			s10.47-4.689,10.47-10.47v-25.652h413.257l-18.053,15.646c-4.37,3.787-4.843,10.4-1.055,14.768
			c2.071,2.389,4.985,3.613,7.917,3.613c2.43,0,4.872-0.842,6.853-2.558l39.264-34.029c0.062-0.054,0.114-0.106,0.172-0.159
			c1.215-1.1,2.183-2.489,2.781-4.093C512.867,457.642,511.69,453.029,508.388,450.167z M323.176,274.778l39.941,27.463
			l-53.243,53.647l-17.514-15.028L323.176,274.778z M173.983,266.873l92.686,79.534l-24.24,51.983l-52.492-29.535
			c-3.264-1.835-7.257-1.79-10.474,0.118L79.285,428.381L173.983,266.873z"/>
	</g>
</g>
<g>
</g>
<g>
</g>
<g>
</g>
<g>
</g>
<g>
</g>
<g>
</g>
<g>
</g>
<g>
</g>
<g>
</g>
<g>
</g>
<g>
</g>
<g>
</g>
<g>
</g>
<g>
</g>
<g>
</g>
</svg>
