<?xml version="1.0" encoding="iso-8859-1"?>
<!-- Generator: Adobe Illustrator 19.0.0, SVG Export Plug-In . SVG Version: 6.00 Build 0)  -->
<svg version="1.1" id="Layer_1" xmlns="http://www.w3.org/2000/svg" xmlns:xlink="http://www.w3.org/1999/xlink" x="0px" y="0px"
	 viewBox="0 0 512 512" style="enable-background:new 0 0 512 512;" xml:space="preserve">
<g>
	<g>
		<path d="M501.985,426.875H20.029V75.11c0-5.531-4.479-10.015-10.015-10.015C4.479,65.095,0,69.579,0,75.11v360.665
			c0,5.531,5.731,11.13,11.266,11.13h490.719c5.535,0,10.015-4.484,10.015-10.015C512,431.359,507.521,426.875,501.985,426.875z"/>
	</g>
</g>
<g>
	<g>
		<path d="M268.714,138.132c-28.391-28.396-54.425-38.572-77.291-30.289c-40.616,14.704-55.012,82.406-59.941,136.611
			C122.073,347.912,66.328,386.89,65.76,387.271c-4.567,3.076-5.799,9.272-2.738,13.863c1.927,2.895,5.105,4.46,8.342,4.46
			c1.907,0,3.834-0.543,5.545-1.682c2.621-1.746,64.196-44.019,74.523-157.648c6.132-67.447,23.188-111.037,46.807-119.584
			c18.699-6.743,40.909,10.215,56.313,25.614c3.912,3.912,10.249,3.912,14.161,0S272.626,142.044,268.714,138.132z"/>
	</g>
</g>
<g>
	<g>
		<path d="M472.147,385.57c-0.264-0.015-26.709-1.599-62.484-46.318c-9.565-11.961-21.477-33.311-34.093-55.917
			c-30.201-54.157-61.643-110.225-94.494-107.037c-16.44,1.545-29.183,16.548-38.954,45.863
			c-38.337,114.988-115.227,164.45-116,164.934c-4.675,2.944-6.093,9.12-3.159,13.799c1.907,3.037,5.164,4.699,8.499,4.699
			c1.809,0,3.638-0.494,5.291-1.521c3.394-2.122,83.638-53.389,124.362-175.575c6.611-19.819,14.572-31.575,21.839-32.259
			c0.313-0.03,0.626-0.044,0.939-0.044c20.137,0,52.597,58.191,74.191,96.895c13.027,23.354,25.33,45.413,35.932,58.67
			c41.858,52.323,74.357,53.834,77.927,53.834c5.447,0,9.8-4.362,9.907-9.814C481.966,390.333,477.584,385.79,472.147,385.57z"/>
	</g>
</g>
<g>
</g>
<g>
</g>
<g>
</g>
<g>
</g>
<g>
</g>
<g>
</g>
<g>
</g>
<g>
</g>
<g>
</g>
<g>
</g>
<g>
</g>
<g>
</g>
<g>
</g>
<g>
</g>
<g>
</g>
</svg>
