<?xml version="1.0" encoding="iso-8859-1"?>
<!-- Generator: Adobe Illustrator 18.0.0, SVG Export Plug-In . SVG Version: 6.00 Build 0)  -->
<!DOCTYPE svg PUBLIC "-//W3C//DTD SVG 1.1//EN" "http://www.w3.org/Graphics/SVG/1.1/DTD/svg11.dtd">
<svg version="1.1" id="Capa_1" xmlns="http://www.w3.org/2000/svg" xmlns:xlink="http://www.w3.org/1999/xlink" x="0px" y="0px"
	 viewBox="0 0 347.118 347.118" style="enable-background:new 0 0 347.118 347.118;" xml:space="preserve">
<g>
	<path d="M343.759,311.684l-32.732-21.672c-3.453-2.286-8.107-1.341-10.395,2.113c-2.285,3.454-1.34,8.107,2.113,10.395l11.963,7.92
		H36.678v-67.367c7.908,0.207,20.436-0.239,33.684-3.791c29.642-7.947,48.316-27.395,54-56.239
		c7.54-38.261,27.501-55.312,44.046-55.312c0.088,0,0.18,0.001,0.27,0.002c17.463,0.196,31.467,18.483,36.545,47.724
		c3.059,17.602,4.328,33.435,5.449,47.403c1.727,21.528,3.09,38.532,10.139,51.014c7.986,14.142,22.395,20.727,45.34,20.727
		c4.143,0,7.5-3.357,7.5-7.5c0-4.143-3.357-7.5-7.5-7.5c-21.922,0-28.619-6.624-32.279-13.103
		c-5.422-9.602-6.67-25.151-8.248-44.837c-1.146-14.291-2.445-30.489-5.621-48.772c-7.647-44.014-31.439-59.934-51.154-60.155
		c-13.096-0.157-26.057,6.212-36.568,17.907c-10.792,12.005-18.618,29.122-22.633,49.502c-4.541,23.04-18.93,38.027-42.768,44.543
		c-11.851,3.239-23.313,3.572-30.199,3.372V32.412l7.922,11.961c1.443,2.18,3.828,3.36,6.26,3.36c1.422,0,2.86-0.404,4.134-1.248
		c3.454-2.287,4.399-6.94,2.112-10.394L35.429,3.359C34.04,1.262,31.691,0,29.176,0s-4.864,1.262-6.253,3.359L1.248,36.092
		c-2.287,3.453-1.342,8.107,2.112,10.394c3.453,2.289,8.107,1.342,10.393-2.112l7.924-11.966v38.95h-9.825
		c-4.143,0-7.5,3.357-7.5,7.5c0,4.143,3.357,7.5,7.5,7.5h9.825v44.771h-9.825c-4.143,0-7.5,3.357-7.5,7.5c0,4.143,3.357,7.5,7.5,7.5
		h9.825V190.9h-9.825c-4.143,0-7.5,3.357-7.5,7.5c0,4.143,3.357,7.5,7.5,7.5h9.825v44.77h-9.825c-4.143,0-7.5,3.357-7.5,7.5
		c0,4.143,3.357,7.5,7.5,7.5h9.825v44.77h-9.825c-4.143,0-7.5,3.357-7.5,7.5c0,4.143,3.357,7.5,7.5,7.5h9.825v9.826
		c0,4.143,3.357,7.5,7.5,7.5c4.142,0,7.5-3.357,7.5-7.5v-9.826h44.77v9.826c0,4.143,3.357,7.5,7.5,7.5c4.143,0,7.5-3.357,7.5-7.5
		v-9.826h44.77v9.826c0,4.143,3.357,7.5,7.5,7.5c4.143,0,7.5-3.357,7.5-7.5v-9.826h44.771v9.826c0,4.143,3.357,7.5,7.5,7.5
		c4.143,0,7.5-3.357,7.5-7.5v-9.826h44.771v9.826c0,4.143,3.357,7.5,7.5,7.5s7.5-3.357,7.5-7.5v-9.826h38.949l-11.965,7.925
		c-3.453,2.287-4.398,6.941-2.111,10.395c1.443,2.179,3.828,3.359,6.26,3.359c1.422,0,2.859-0.404,4.135-1.248l32.732-21.68
		c2.098-1.39,3.357-3.737,3.357-6.254C347.118,315.421,345.856,313.073,343.759,311.684z"/>
</g>
<g>
</g>
<g>
</g>
<g>
</g>
<g>
</g>
<g>
</g>
<g>
</g>
<g>
</g>
<g>
</g>
<g>
</g>
<g>
</g>
<g>
</g>
<g>
</g>
<g>
</g>
<g>
</g>
<g>
</g>
</svg>
