<?xml version="1.0" encoding="iso-8859-1"?>
<!-- Generator: Adobe Illustrator 16.0.0, SVG Export Plug-In . SVG Version: 6.00 Build 0)  -->
<!DOCTYPE svg PUBLIC "-//W3C//DTD SVG 1.1//EN" "http://www.w3.org/Graphics/SVG/1.1/DTD/svg11.dtd">
<svg version="1.1" id="Capa_1" xmlns="http://www.w3.org/2000/svg" xmlns:xlink="http://www.w3.org/1999/xlink" x="0px" y="0px"
	 width="188.548px" height="188.548px" viewBox="0 0 188.548 188.548" style="enable-background:new 0 0 188.548 188.548;"
	 xml:space="preserve">
<g>
	<path d="M187.198,155.711c-6.226-2.227-11.58-6.141-17.132-9.636c-1.307-0.823-2.677,0.287-2.814,1.615
		c-0.258,2.467-0.327,4.945-0.456,7.415c-27.292-2.688-54.695-3.248-82.115-3.232c-21.932,0.012-45.945-1.795-68.442,0.263
		c0.371-5.016,0.7-10.053,1.004-15.099c0.242-0.11,0.461-0.275,0.601-0.56c6.003-12.272,12.72-24.139,19.396-36.048
		c5.908,7.792,8.283,18.28,11.268,27.375c0.754,2.298,4.39,1.314,3.632-1.001c-0.227-0.693-0.447-1.409-0.67-2.115
		c3.619-10.716,5.475-21.669,7.026-32.892c0.58-4.191,1.063-8.417,1.588-12.616c0.706-5.816,1.603-11.603,2.693-17.357
		c0.355-7.295,1.495-7.646,3.423-1.051c9.486,24.698,8.21,52.612,13.937,78.28c0.332,1.488,2.798,1.973,3.448,0.451
		c4.703-10.999,9.269-22.189,10.025-34.102c3.307,5.117,5.056,10.898,6.933,16.774c0.562,1.76,3.054,1.799,3.599,0
		c6.062-20.002,7.087-41.021,12.175-61.215c4.118,18.05,5.342,36.595,8.104,54.896c0.229,1.521,1.767,1.664,2.777,0.965
		c0.244-0.086,0.442-0.271,0.521-0.509c0.28-0.39,0.434-0.883,0.347-1.461c-0.06-0.396-0.108-0.792-0.167-1.188
		c0.646-3.855,3.331-8.267,4.74-11.264c1.957-4.164,4.066-8.252,6.171-12.343c4.613,10.457,6.93,21.722,9.516,32.827
		c0.384,1.647,2.618,1.778,3.444,0.45c4.687-7.529,11.54-14.801,13.488-23.664c0.504-2.291-2.834-3.229-3.518-0.97
		c-2.129,7.034-6.642,12.932-10.753,18.97c-2.579-11.213-5.198-22.491-10.488-32.778c-0.616-1.196-2.599-1.224-3.205,0
		c-1.154,2.324-7.331,13.081-10.403,21.515c-2.333-17.911-3.842-35.937-8.669-53.414c-0.508-1.838-3.096-1.763-3.639,0
		c-6.239,20.251-7.335,41.546-12.426,62.047c-1.719-5.047-4.016-9.935-8.489-12.608c0.007-0.848,0.058-1.687,0.023-2.543
		c-0.1-2.429-3.882-2.438-3.781,0c0.423,10.243-2.486,19.479-5.96,28.956c-3.484,9.505-2.905-4.753-3.326-7.382
		c-1.182-7.377-1.928-14.857-2.822-22.278c-2.09-17.347-5.178-34.188-12.499-50.152c-0.698-1.523-3.043-1.019-3.432,0.448
		c-6.12,23.147-6.535,47.203-11.875,70.49c-2.683-8.649-5.658-17.581-11.7-24.221c-0.807-0.887-2.379-0.646-2.947,0.38
		c-6.162,11.115-12.428,22.21-17.708,33.776c1.444-27.294,1.722-54.855-0.368-81.792c2.113,0.082,4.226,0.166,6.34,0.205
		c1.164,0.021,2.166-1.208,1.789-2.349c-2.765-8.348-5.429-16.72-6.283-25.516c-0.199-2.049-2.901-2.505-3.598-0.487
		c-2.97,8.604-7.459,16.537-11.031,24.888c-0.624,1.458,0.603,2.958,1.926,2.653c0.117,0.042,0.181,0.143,0.326,0.148
		c2.286,0.104,4.572,0.213,6.858,0.315c1.034,34.906-0.846,69.658-1.026,104.51c-4.152,0.465-8.262,1.03-12.27,1.828
		c-0.404,0.08-0.406,0.737,0,0.815c4.012,0.775,8.127,1.252,12.279,1.615c-0.004,4.011-0.007,8.021,0.048,12.037
		c0.021,1.493,2.16,1.446,2.283,0c0.335-3.911,0.642-7.851,0.949-11.789c20.242,1.322,41.652-1.146,61.388-1.319
		c29.798-0.262,59.553,0.473,89.224,3.194c-0.217,1.997-0.523,3.982-1.153,5.932c-0.674,2.083,2.367,2.952,3.265,1.146
		c2.604-0.172,5.245-1.668,7.59-2.621c3.614-1.47,7.249-2.964,11.023-3.971C189.106,158.843,188.886,156.315,187.198,155.711z"/>
</g>
<g>
</g>
<g>
</g>
<g>
</g>
<g>
</g>
<g>
</g>
<g>
</g>
<g>
</g>
<g>
</g>
<g>
</g>
<g>
</g>
<g>
</g>
<g>
</g>
<g>
</g>
<g>
</g>
<g>
</g>
</svg>
