<?xml version="1.0" encoding="iso-8859-1"?>
<!-- Generator: Adobe Illustrator 16.0.0, SVG Export Plug-In . SVG Version: 6.00 Build 0)  -->
<!DOCTYPE svg PUBLIC "-//W3C//DTD SVG 1.1//EN" "http://www.w3.org/Graphics/SVG/1.1/DTD/svg11.dtd">
<svg version="1.1" id="Capa_1" xmlns="http://www.w3.org/2000/svg" xmlns:xlink="http://www.w3.org/1999/xlink" x="0px" y="0px"
	 width="191.366px" height="191.366px" viewBox="0 0 191.366 191.366" style="enable-background:new 0 0 191.366 191.366;"
	 xml:space="preserve">
<g>
	<g>
		<path d="M190.457,152.273c-5.944-2.876-12.225-4.85-18.617-6.46c-1.146-0.289-2.388,0.561-2.355,1.795
			c0.036,1.427,0.173,2.85,0.322,4.273c-7.314-1.726-16.013-0.606-22.912-0.552c-21.976,0.171-43.768,1.363-65.769,1.051
			c-17.774-0.253-35.343-0.529-53.02-2.407c-2.893-0.307-7.499-1.302-12.167-1.912c4.606-2.739,11.162-11.062,12.692-12.61
			c7.811-7.91,15.783-15.891,23.006-24.385c1.735,6.71,4.364,13.063,6.819,19.578c0.119,0.317,0.303,0.555,0.513,0.749
			c-0.056,0.951,1.034,1.97,1.96,1.282c7.585-5.637,15.506-10.646,23.577-15.388c3.78,9.563,7.767,19.047,11.868,28.475
			c0.628,1.444,2.497,0.972,3.237,0c4.064-5.343,6.735-11.637,9.938-17.513c4.18-7.669,12.458,2.342,15.984,3.901
			c13.552,5.994,38.84,0.062,53.496-0.134c2.412-0.032,2.415-3.774,0-3.743c-19.451,0.258-45.573,6.976-60.387-7.837
			c-3.815-3.815-7.87-1.179-10.187,2.508c-3.802,6.054-6.801,12.525-10.391,18.7c1.585-2.726-4.796-16.408-9.648-26.622
			c13.19-7.571,26.715-14.562,39.862-22.377c16.672-9.909,31.855-25.584,51.193-30.048c1.814-0.419,1.448-3.478-0.443-3.285
			c-18.206,1.854-34.685,18.409-49.369,28.087c-13.76,9.068-28.627,16.14-42.83,24.281c-1.44-3.035-2.609-5.544-3.141-6.952
			c-7.903-20.918-18.491-41.35-23.707-63.104c-0.376-1.566-2.666-1.862-3.432-0.449c-17.433,32.154-28.45,67.159-43.052,100.602
			c-0.465-10.935-2.237-22.309-2.327-32.406c-0.153-17.197-1.03-34.393,0.215-51.521c1.615,0.049,3.227,0.096,4.869,0.109
			c1.053,0.008,1.815-0.855,1.863-1.863c0.441-9.16-3.193-17.692-5.648-26.346c-0.447-1.575-2.58-1.83-3.421-0.447
			C6.386,33.684-4.659,52.424,2.224,56.33c0.024,0.418,0.205,0.805,0.764,0.885c1.381,0.198,2.759,0.269,4.138,0.374
			c-2.183,12.136,0.118,26.096,0.272,37.63c0.159,11.863,0.068,23.715,0.399,35.577c0.157,5.631,0.684,11.217,1.23,16.81
			c-2.779,0.075-5.27,0.523-6.945,1.761c-0.208,0.154-0.306,0.558,0,0.688c2.27,0.967,4.787,1.714,7.403,2.367
			c0.003,0.027,0.005,0.056,0.008,0.084c-0.036,0.714-0.073,1.427-0.109,2.14c-0.643,1.654-0.646,2.597-0.105,2.937
			c-0.066,0.379-0.133,0.758-0.199,1.137c-0.386,2.201,2.902,3.175,3.393,0.935c0.452-2.06,0.745-4.192,0.943-6.366
			c14.015,2.669,31.024,2.109,43.458,2.558c20.471,0.737,41.235,1.202,61.702,0.372c14.703-0.597,36.121-4.687,51.573-0.37
			c0.069,1.085,0.132,2.171,0.087,3.258c-0.008,0.165-0.037,0.326-0.068,0.488c-0.259,0.17-0.416,0.463-0.272,0.807
			c0.056,0.131,0.128,0.219,0.189,0.334c0.019,0.157,0.053,0.205,0.098,0.174c0.442,0.727,1.012,1.096,1.585,1.132
			c1.815,1.912,5.596,0.38,7.605-0.294c4.053-1.358,8.536-3.299,11.466-6.512C191.597,154.39,191.596,152.825,190.457,152.273z
			 M47.098,68.872c1-2.344,10.83-19.719,10.818-19.767c4.142,17.269,13.827,33.241,19.699,49.894
			c1.759,4.987,3.629,9.934,5.543,14.864c-7.459,4.428-14.712,9.19-21.445,14.829c-2.78-7.298-5.778-14.4-7.319-22.103
			c-0.264-1.316-2.265-1.899-3.14-0.829c-11.119,13.587-23.964,26.853-36.111,39.403c7.152-14.108,13.023-28.734,18.744-43.479
			C38.154,90.686,42.466,79.727,47.098,68.872z"/>
	</g>
</g>
<g>
</g>
<g>
</g>
<g>
</g>
<g>
</g>
<g>
</g>
<g>
</g>
<g>
</g>
<g>
</g>
<g>
</g>
<g>
</g>
<g>
</g>
<g>
</g>
<g>
</g>
<g>
</g>
<g>
</g>
</svg>
