<svg xmlns="http://www.w3.org/2000/svg" viewBox="0 0 100 125" x="0px" y="0px"><title>psp </title><path d="M83.6,31.65l-.9-1.5.7-.4L50,10.45,16.6,29.75l.7.4-.9,1.5-.7-.4v38.6l33.4,19.3v-.8h1.8v.8l33.4-19.3V31.25Zm-64.1,1.8-1.5-.9.9-1.5,1.5.9Zm3,1.7-1.5-.9.9-1.5,1.5.9Zm3.1,1.8-1.6-.9.9-1.5,1.5.9Zm3,1.8-1.5-.9.9-1.5,1.5.9Zm3.1,1.7-1.5-.9.8-1.5,1.5.9Zm3,1.8-1.5-.9.9-1.5,1.5.9Zm3,1.7-1.5-.9.9-1.5,1.5.9Zm3.1,1.8-1.5-.9.9-1.5,1.5.9Zm3,1.8-1.5-.9.9-1.5,1.5.9Zm3.1,1.7-1.5-.9.9-1.5,1.5.9Zm4,37.3H49.1v-1.8h1.8Zm0-3.5H49.1v-1.8h1.8Zm0-3.5H49.1v-1.8h1.8Zm0-3.5H49.1v-1.8h1.8Zm0-3.6H49.1v-1.8h1.8Zm0-3.5H49.1v-1.8h1.8Zm0-3.5H49.1v-1.8h1.8Zm0-3.5H49.1v-1.8h1.8Zm0-3.5H49.1v-1.8h1.8Zm0-3.6H49.1v-1.8h1.8Zm0-4.3v.8H49.1v-.8l-.7-.4.9-1.5.7.4.7-.4.9,1.5Zm2.2-1.3-.9-1.5,1.5-.9.9,1.5Zm3.1-1.7-.9-1.5,1.5-.9.9,1.5Zm3-1.8-.9-1.5,1.5-.9.9,1.5Zm3.1-1.8-.9-1.5,1.5-.9.9,1.5Zm3-1.7-.9-1.5,1.5-.9.9,1.5Zm3-1.8-.9-1.5,1.6-.9.9,1.5Zm3.1-1.7-.9-1.5,1.5-.9.9,1.5Zm3-1.8-.9-1.5,1.5-.9,1,1.5Zm3.1-1.8-.9-1.5,1.5-.9.9,1.5Zm3-1.7-.9-1.5,1.5-.9.9,1.5Z"/><text x="0" y="115" fill="#000000" font-size="5px" font-weight="bold" font-family="'Helvetica Neue', Helvetica, Arial-Unicode, Arial, Sans-serif">Created by DaanDirk</text><text x="0" y="120" fill="#000000" font-size="5px" font-weight="bold" font-family="'Helvetica Neue', Helvetica, Arial-Unicode, Arial, Sans-serif">from the Noun Project</text></svg>