<svg xmlns="http://www.w3.org/2000/svg" xmlns:xlink="http://www.w3.org/1999/xlink" version="1.1" x="0px" y="0px" viewBox="0 0 100 125" enable-background="new 0 0 100 100" xml:space="preserve"><polygon points="30.917,82.868 83.112,65.066 41.654,31.079 "/><polygon points="80.891,14.657 82.146,14.141 34.306,4.075 41.663,29.509 "/><polygon points="83.625,14.614 82.001,15.282 82.009,15.303 42.318,30.33 83.625,64.193 "/><polygon points="33.408,4.573 4.484,43.216 40.723,29.86 "/><polygon points="71.796,87.147 93.758,57.799 84.512,65.579 "/><polygon points="23.979,83.508 50.157,91.115 30.145,84.117 "/><polygon points="84.625,17.348 84.625,64.176 95.662,54.889 "/><polygon points="31.782,83.631 65.583,95.45 66.325,94.458 83.009,66.159 "/><polygon points="5.269,48.243 19.277,82.037 29.227,83.021 "/><polygon points="40.66,30.949 3.902,44.497 29.998,82.378 "/><text x="0" y="115" fill="#000000" font-size="5px" font-weight="bold" font-family="'Helvetica Neue', Helvetica, Arial-Unicode, Arial, Sans-serif">Created by Derek Palladino</text><text x="0" y="120" fill="#000000" font-size="5px" font-weight="bold" font-family="'Helvetica Neue', Helvetica, Arial-Unicode, Arial, Sans-serif">from the Noun Project</text></svg>