<?xml version="1.0" encoding="iso-8859-1"?>
<!-- Generator: Adobe Illustrator 19.0.0, SVG Export Plug-In . SVG Version: 6.00 Build 0)  -->
<svg version="1.1" id="Layer_1" xmlns="http://www.w3.org/2000/svg" xmlns:xlink="http://www.w3.org/1999/xlink" x="0px" y="0px"
	 viewBox="0 0 511.985 511.985" style="enable-background:new 0 0 511.985 511.985;" xml:space="preserve">
<g>
	<g>
		<g>
			<rect y="281.592" width="42.667" height="221.867"/>
			<path d="M507.366,307.065c-14.968-20.838-30.131-21.163-68.087-1.195l-73.574,44.988c-7.185,3.823-36.727,16.068-41.438,16.068
				H179.2c-25.6,0-25.6,12.843-25.6,17.067c0,4.71-3.823,8.533-8.533,8.533c-4.71,0-8.533-3.823-8.533-8.533
				c0-21.376,15.949-34.133,42.667-34.133h133.453c-0.009-5.931-2.355-12.476-7.117-19.584c-5.453-8.141-12.595-14.84-20.796-20.011
				l56.764-56.772c3.336-3.337,3.336-8.73,0-12.066l-96.538-96.538c-3.337-3.337-8.73-3.337-12.066,0l-96.546,96.538
				c-3.328,3.337-3.328,8.73,0,12.066l35.337,35.337c-3.371-1.818-6.622-3.849-9.66-6.135
				c-40.866-30.814-95.915,23.927-98.961,26.266l-3.337,2.56v166.34h110.933c17.408,0,34.97-1.331,52.19-3.942l110.618-16.819
				c4.019-0.051,8.107-0.529,11.733-1.348c10.189-1.434,19.934-6.298,28.177-14.08l129.348-100.727l0.205-0.162
				C512.998,332.443,514.953,317.637,507.366,307.065z M281.173,241.426c3.328-3.337,8.73-3.337,12.066,0
				c3.328,3.328,3.328,8.738,0,12.066c-3.336,3.337-8.738,3.337-12.066,0C277.837,250.164,277.837,244.754,281.173,241.426z
				 M232.9,241.426c3.328-3.337,8.738-3.337,12.066,0c3.336,3.328,3.336,8.738,0,12.066c-3.328,3.337-8.738,3.337-12.066,0
				C229.564,250.164,229.564,244.754,232.9,241.426z M184.627,241.426c3.337-3.337,8.738-3.337,12.066,0
				c3.337,3.328,3.337,8.738,0,12.066c-3.328,3.337-8.73,3.337-12.066,0C181.291,250.164,181.291,244.754,184.627,241.426z"/>
			<path d="M324.267,162.126H460.8c4.71,0,8.533-3.823,8.533-8.533V17.059c0-4.71-3.823-8.533-8.533-8.533H324.267
				c-4.71,0-8.533,3.823-8.533,8.533v136.533C315.733,158.303,319.556,162.126,324.267,162.126z M426.667,42.659
				c4.71,0,8.533,3.823,8.533,8.533c0,4.71-3.823,8.533-8.533,8.533s-8.533-3.823-8.533-8.533
				C418.133,46.482,421.956,42.659,426.667,42.659z M426.667,110.926c4.71,0,8.533,3.823,8.533,8.533s-3.823,8.533-8.533,8.533
				s-8.533-3.823-8.533-8.533S421.956,110.926,426.667,110.926z M392.533,76.792c4.71,0,8.533,3.823,8.533,8.533
				s-3.823,8.533-8.533,8.533c-4.71,0-8.533-3.823-8.533-8.533S387.823,76.792,392.533,76.792z M358.4,42.659
				c4.71,0,8.533,3.823,8.533,8.533c0,4.71-3.823,8.533-8.533,8.533s-8.533-3.823-8.533-8.533
				C349.867,46.482,353.69,42.659,358.4,42.659z M358.4,110.926c4.71,0,8.533,3.823,8.533,8.533s-3.823,8.533-8.533,8.533
				s-8.533-3.823-8.533-8.533S353.69,110.926,358.4,110.926z"/>
		</g>
	</g>
</g>
<g>
</g>
<g>
</g>
<g>
</g>
<g>
</g>
<g>
</g>
<g>
</g>
<g>
</g>
<g>
</g>
<g>
</g>
<g>
</g>
<g>
</g>
<g>
</g>
<g>
</g>
<g>
</g>
<g>
</g>
</svg>
