<?xml version="1.0" encoding="iso-8859-1"?>
<!-- Generator: Adobe Illustrator 19.0.0, SVG Export Plug-In . SVG Version: 6.00 Build 0)  -->
<svg version="1.1" id="Layer_1" xmlns="http://www.w3.org/2000/svg" xmlns:xlink="http://www.w3.org/1999/xlink" x="0px" y="0px"
	 viewBox="0 0 512 512" style="enable-background:new 0 0 512 512;" xml:space="preserve">
<g>
	<g>
		<path d="M508.359,402.64l-85.333-74.667c-4.228-3.699-10.596-3.487-14.568,0.484l-51.473,51.473l-34.997-113.741l29.128-22.655
			l46.674,46.676c2.484,2.483,6.029,3.585,9.491,2.944c3.454-0.641,6.372-2.944,7.799-6.155l85.333-192
			c2.392-5.383-0.033-11.686-5.415-14.079c-5.387-2.393-11.688,0.033-14.079,5.415l-79.026,177.807l-42.35-42.351
			c-3.803-3.802-9.848-4.178-14.091-0.876l-30.174,23.469L276.862,119.53c-1.266-4.111-4.875-7.06-9.155-7.479
			c-4.279-0.413-8.393,1.772-10.432,5.559l-54.021,100.325l-45.466-59.106c-1.952-2.538-4.941-4.065-8.143-4.159
			c-3.234-0.061-6.275,1.258-8.372,3.677L21.333,296.739V16c0-5.891-4.776-10.667-10.667-10.667S0,10.109,0,16v480
			c0,5.891,4.776,10.667,10.667,10.667h480c5.891,0,10.667-4.776,10.667-10.667s-4.776-10.667-10.667-10.667H21.333v-74.667h96
			c3.925,0,7.531-2.155,9.392-5.609l79.699-148.012l41.122,53.458c1.73,2.25,4.288,3.717,7.103,4.077
			c2.813,0.362,5.66-0.418,7.9-2.161l41.429-32.223l37.828,122.94c1.1,3.575,3.994,6.314,7.624,7.215
			c3.631,0.904,7.469-0.163,10.115-2.809l56.943-56.944l77.823,68.095c2.025,1.771,4.527,2.639,7.021,2.639
			c2.969,0,5.923-1.233,8.031-3.642C513.24,413.258,512.791,406.519,508.359,402.64z M110.962,389.334H21.333v-60.021
			l127.508-147.125l43.33,56.329L110.962,389.334z M257.917,288.996l-40.41-52.533l46.464-86.29l33.298,108.217L257.917,288.996z"/>
	</g>
</g>
<g>
</g>
<g>
</g>
<g>
</g>
<g>
</g>
<g>
</g>
<g>
</g>
<g>
</g>
<g>
</g>
<g>
</g>
<g>
</g>
<g>
</g>
<g>
</g>
<g>
</g>
<g>
</g>
<g>
</g>
</svg>
