<?xml version="1.0" encoding="UTF-8"?>
<svg xmlns:dc="http://purl.org/dc/elements/1.1/" xmlns:cc="http://creativecommons.org/ns#" xmlns:rdf="http://www.w3.org/1999/02/22-rdf-syntax-ns#" xmlns:svg="http://www.w3.org/2000/svg" xmlns="http://www.w3.org/2000/svg" id="svg2" xml:space="preserve" enable-background="new 0 0 100 100" viewBox="0 0 100 125" y="0px" x="0px" version="1.1"><metadata id="metadata24"><rdf:RDF><cc:Work rdf:about=""><dc:format>image/svg+xml</dc:format><dc:type rdf:resource="http://purl.org/dc/dcmitype/StillImage"/><dc:title/></cc:Work></rdf:RDF></metadata><defs id="defs22"/><path id="path4" d="M34.449,72.826L23.851,41.064l26.853-21.056l27.455,21.056  l-10.2,32.344L34.449,72.826z" fill="#000000"/><path id="path6" d="M2.878,34.373L3.77,66.281l17.192,23.602l12.24-15.092  l-11.28-34.152L2.878,34.373z" fill="#000000"/><path id="path8" d="M67.664,75.568l-33.525-0.201L23.358,90.52l27.099,8.449  l27.684-8.83L67.664,75.568z" fill="#000000"/><path id="path10" d="M4.499,33.375L21.4,10.646l27.974-9.616v16.901L22.35,39.216  L4.499,33.375z" fill="#000000"/><path id="path12" d="M52.702,1.047l27.682,9.325l16.153,23.325l-17.028,5.967  l-27.1-21.423L52.702,1.047z" fill="#000000"/><path id="path14" d="M69.944,74.227l10.415-31.761l16.762-5.829l-0.076,28.558  L80.436,88.506L69.944,74.227z" fill="#000000"/><text id="text3352" y="57.7892" x="50.649071" style="font-style:normal;font-variant:normal;font-weight:normal;font-stretch:normal;font-size:27.5px;line-height:125%;font-family:Sans;-inkscape-font-specification:'Sans, Normal';text-align:center;letter-spacing:0px;word-spacing:0px;writing-mode:lr-tb;text-anchor:middle;fill:#ffffff;fill-opacity:1;stroke:none;stroke-width:1px;stroke-linecap:butt;stroke-linejoin:miter;stroke-opacity:1" xml:space="preserve"><tspan y="57.7892" x="50.649071" id="tspan3354">12</tspan></text>
</svg>
