<?xml version="1.0" encoding="UTF-8"?>
<svg xmlns:dc="http://purl.org/dc/elements/1.1/" xmlns:cc="http://creativecommons.org/ns#" xmlns:rdf="http://www.w3.org/1999/02/22-rdf-syntax-ns#" xmlns:svg="http://www.w3.org/2000/svg" xmlns="http://www.w3.org/2000/svg" version="1.1" id="svg2" y="0px" x="0px" viewBox="0 0 100 125">
  <metadata id="metadata16">
    <rdf:RDF>
      <cc:Work rdf:about="">
        <dc:format>image/svg+xml</dc:format>
        <dc:type rdf:resource="http://purl.org/dc/dcmitype/StillImage"/>
        <dc:title>psp </dc:title>
      </cc:Work>
    </rdf:RDF>
  </metadata>
  <defs id="defs14"/>
  <title id="title4">psp </title>
  <path id="path6" d="M83.6,31.65l-.9-1.5.7-.4L50,10.45,16.6,29.75l.7.4-.9,1.5-.7-.4v38.6l33.4,19.3v-.8h1.8v.8l33.4-19.3V31.25Zm-64.1,1.8-1.5-.9.9-1.5,1.5.9Zm3,1.7-1.5-.9.9-1.5,1.5.9Zm3.1,1.8-1.6-.9.9-1.5,1.5.9Zm3,1.8-1.5-.9.9-1.5,1.5.9Zm3.1,1.7-1.5-.9.8-1.5,1.5.9Zm3,1.8-1.5-.9.9-1.5,1.5.9Zm3,1.7-1.5-.9.9-1.5,1.5.9Zm3.1,1.8-1.5-.9.9-1.5,1.5.9Zm3,1.8-1.5-.9.9-1.5,1.5.9Zm3.1,1.7-1.5-.9.9-1.5,1.5.9Zm4,37.3H49.1v-1.8h1.8Zm0-3.5H49.1v-1.8h1.8Zm0-3.5H49.1v-1.8h1.8Zm0-3.5H49.1v-1.8h1.8Zm0-3.6H49.1v-1.8h1.8Zm0-3.5H49.1v-1.8h1.8Zm0-3.5H49.1v-1.8h1.8Zm0-3.5H49.1v-1.8h1.8Zm0-3.5H49.1v-1.8h1.8Zm0-3.6H49.1v-1.8h1.8Zm0-4.3v.8H49.1v-.8l-.7-.4.9-1.5.7.4.7-.4.9,1.5Zm2.2-1.3-.9-1.5,1.5-.9.9,1.5Zm3.1-1.7-.9-1.5,1.5-.9.9,1.5Zm3-1.8-.9-1.5,1.5-.9.9,1.5Zm3.1-1.8-.9-1.5,1.5-.9.9,1.5Zm3-1.7-.9-1.5,1.5-.9.9,1.5Zm3-1.8-.9-1.5,1.6-.9.9,1.5Zm3.1-1.7-.9-1.5,1.5-.9.9,1.5Zm3-1.8-.9-1.5,1.5-.9,1,1.5Zm3.1-1.8-.9-1.5,1.5-.9.9,1.5Zm3-1.7-.9-1.5,1.5-.9.9,1.5Z"/>
  <text id="text3344" y="37.286648" x="41.266876" style="font-style:normal;font-variant:normal;font-weight:normal;font-stretch:normal;font-size:25px;line-height:125%;font-family:Sans;-inkscape-font-specification:'Sans, Normal';text-align:start;letter-spacing:0px;word-spacing:0px;writing-mode:lr-tb;text-anchor:start;fill:#000000;fill-opacity:1;stroke:none;stroke-width:1px;stroke-linecap:butt;stroke-linejoin:miter;stroke-opacity:1" xml:space="preserve"><tspan style="font-style:normal;font-variant:normal;font-weight:normal;font-stretch:normal;font-size:25px;line-height:125%;font-family:Sans;-inkscape-font-specification:'Sans, Normal';text-align:start;writing-mode:lr-tb;text-anchor:start;fill:#ffffff" y="37.286648" x="41.266876" id="tspan3346">5</tspan></text>
</svg>
